<?xml version="1.0" encoding="UTF-8" standalone="no"?>
<svg
   xmlns:dc="http://purl.org/dc/elements/1.1/"
   xmlns:cc="http://creativecommons.org/ns#"
   xmlns:rdf="http://www.w3.org/1999/02/22-rdf-syntax-ns#"
   xmlns:svg="http://www.w3.org/2000/svg"
   xmlns="http://www.w3.org/2000/svg"
   xmlns:sodipodi="http://sodipodi.sourceforge.net/DTD/sodipodi-0.dtd"
   xmlns:inkscape="http://www.inkscape.org/namespaces/inkscape"
   width="160mm"
   height="160mm"
   viewBox="0 0 160 160"
   version="1.1"
   id="svg8"
   sodipodi:docname="add-image-icon.inkscape.svg"
   inkscape:version="1.0 (4035a4f, 2020-05-01)">
  <defs
     id="defs2">
    <inkscape:path-effect
       effect="bspline"
       id="path-effect865"
       is_visible="true"
       lpeversion="1"
       weight="33.333333"
       steps="2"
       helper_size="0"
       apply_no_weight="true"
       apply_with_weight="true"
       only_selected="false" />
  </defs>
  <sodipodi:namedview
     id="base"
     pagecolor="#ffffff"
     bordercolor="#666666"
     borderopacity="1.0"
     inkscape:pageopacity="0.0"
     inkscape:pageshadow="2"
     inkscape:zoom="1.28"
     inkscape:cx="361.32391"
     inkscape:cy="185.20897"
     inkscape:document-units="mm"
     inkscape:current-layer="layer6"
     inkscape:document-rotation="0"
     showgrid="false"
     inkscape:window-width="2560"
     inkscape:window-height="1395"
     inkscape:window-x="1920"
     inkscape:window-y="23"
     inkscape:window-maximized="0" />
  <metadata
     id="metadata5">
    <rdf:RDF>
      <cc:Work
         rdf:about="">
        <dc:format>image/svg+xml</dc:format>
        <dc:type
           rdf:resource="http://purl.org/dc/dcmitype/StillImage" />
        <dc:title></dc:title>
      </cc:Work>
    </rdf:RDF>
  </metadata>
  <g
     inkscape:groupmode="layer"
     id="layer4"
     inkscape:label="Sky">
    <rect
       style="fill:#afc6e9;fill-opacity:1;fill-rule:evenodd;stroke:#212178;stroke-width:0.30293;stroke-linejoin:round;stroke-miterlimit:4;stroke-dasharray:none;stroke-opacity:1"
       id="image-icon-sky"
       width="121.54297"
       height="104.11692"
       x="15.61968"
       y="13.25507"
       ry="3.468545" />
  </g>
  <g
     inkscape:groupmode="layer"
     id="layer3"
     inkscape:label="Sun">
    <circle
       style="fill:#ffeeaa;fill-opacity:1;fill-rule:evenodd;stroke:none;stroke-width:8.0108;stroke-linejoin:round;stroke-miterlimit:4;stroke-dasharray:none;stroke-opacity:1"
       id="image-icon-sun"
       cy="41.85672"
       cx="101.07339"
       r="15" />
  </g>
  <g
     inkscape:groupmode="layer"
     id="layer2"
     inkscape:label="Mountain">
    <path
       style="fill:#212178;fill-opacity:1;fill-rule:evenodd;stroke:#212178;stroke-width:0.0877336;stroke-linejoin:round;stroke-miterlimit:4;stroke-dasharray:none;stroke-opacity:1"
       d="m 15.566632,131.81878 c -0.100799,-0.16133 -0.113766,-0.97488 -0.113766,-7.13735 0,-5.87511 0.01553,-6.94083 0.09998,-6.86226 0.11671,0.10862 0.104981,0.12178 3.704048,-4.1691 14.791282,-17.634513 22.24587,-26.03843 26.561337,-29.943877 3.855519,-3.489187 5.787504,-3.858997 7.956556,-1.523 1.946105,2.09589 4.52111,6.466677 9.205206,15.624791 0.832466,1.62759 1.679792,3.224586 1.882947,3.548856 0.852855,1.36135 1.681048,1.41865 3.09899,0.21444 0.72649,-0.61698 1.687658,-1.606156 5.298408,-5.452843 10.831575,-11.539294 16.969249,-17.668161 21.268969,-21.238368 1.725367,-1.43265 3.344247,-2.42529 4.528797,-2.77691 0.78777,-0.23384 1.928156,-0.25013 2.630926,-0.0376 1.55252,0.46951 3.24798,1.76706 5.47049,4.186597 4.70509,5.122227 11.44599,14.224074 25.87695,34.940204 1.45951,2.09519 2.68106,3.84289 2.71454,3.88378 0.036,0.0439 0.10704,0.0314 0.1736,-0.0305 0.10145,-0.0944 0.11272,0.73463 0.11272,8.2896 0,8.02837 1.89731,7.04745 -0.13364,8.53004 -2.20656,1.61077 -4.40869,0.13557 -60.178464,0.13557 H 15.680397 Z"
       id="image-icon-mtn"
       sodipodi:nodetypes="sssssssssssssssssssscs" />
  </g>
  <g
     inkscape:label="Frame"
     inkscape:groupmode="layer"
     id="layer1">
    <rect
       style="fill:none;fill-rule:evenodd;stroke:#000000;stroke-width:6.14265;stroke-linejoin:round;stroke-miterlimit:4;stroke-dasharray:none;stroke-opacity:1"
       id="image-icon-frame"
       width="123.89447"
       height="123.89436"
       x="14.252427"
       y="11.073525"
       ry="3.6439514" />
  </g>
  <g
     inkscape:label="Add button"
     id="layer6"
     inkscape:groupmode="layer">
    <circle
       r="32.797947"
       cy="117.4978"
       cx="114.3189"
       id="path934"
       style="fill:#3fe422;fill-opacity:1;fill-rule:evenodd;stroke:#3fe422;stroke-width:3.4041;stroke-linejoin:round;stroke-miterlimit:4;stroke-dasharray:none;stroke-opacity:1" />
    <rect
       ry="5.0642905"
       y="112.4335"
       x="84.346565"
       height="10.128581"
       width="59.94466"
       id="rect973"
       style="fill:#ffffff;fill-opacity:1;fill-rule:evenodd;stroke:#ffffff;stroke-width:0;stroke-linecap:butt;stroke-linejoin:miter;stroke-miterlimit:4;stroke-dasharray:none;stroke-opacity:1" />
    <rect
       transform="rotate(90)"
       style="fill:#ffffff;fill-opacity:1;fill-rule:evenodd;stroke:#ffffff;stroke-width:0;stroke-linecap:butt;stroke-linejoin:miter;stroke-miterlimit:4;stroke-dasharray:none;stroke-opacity:1"
       id="rect975"
       width="59.94466"
       height="10.128581"
       x="87.525459"
       y="-119.3832"
       ry="5.0642905" />
  </g>
</svg>
