<svg width="718" height="176" version="1.1" viewBox="0 0 189.97 46.567" xmlns="http://www.w3.org/2000/svg">
  <g transform="translate(-8.5391 -23.661)" style="fill:#d5e5ff;opacity:.67846">
    <path d="m145.65 34.761 26.338 35.226 26.338-35.226-8.5878-10.883h-35.133z" style="fill:#d5e5ff;stroke-width:.072696;stroke:#000"/>
    <path d="m145.65 34.768h52.677" style="fill:#d5e5ff;stroke-width:.061008;stroke:#000"/>
    <path d="m154.73 34.761 17.299 35.226" style="fill:#d5e5ff;stroke-width:.061008;stroke:#000"/>
    <path d="m165 34.761 7.0241 35.226" style="fill:#d5e5ff;stroke-width:.061008;stroke:#000"/>
    <path d="m189.62 34.761-17.627 35.226" style="fill:#d5e5ff;stroke-width:.061008;stroke:#000"/>
    <path d="m179.77 34.761-7.7835 35.226" style="fill:#d5e5ff;stroke-width:.061008;stroke:#000"/>
    <path d="m154.73 34.754 5.6294-10.876" style="fill:#d5e5ff;stroke-width:.061008;stroke:#000"/>
    <path d="m165 34.754 3.3284-10.876" style="fill:#d5e5ff;stroke-width:.061008;stroke:#000"/>
    <path d="m179.77 34.754-2.7164-10.876" style="fill:#d5e5ff;stroke-width:.061008;stroke:#000"/>
    <path d="m189.62 34.754-4.5426-10.876" style="fill:#d5e5ff;stroke-width:.061008;stroke:#000"/>
  </g>
  <path d="m134.08 0.68017h-133.94" style="fill:none;stroke:#000"/>
  <path d="m134.08 45.887h-133.94" style="fill:none;stroke:#000"/>
  <text transform="scale(1.0544 .94842)" x="-1.8998765" y="27.899826" style="fill:#000000;font-family:sans-serif;font-size:29.259px;line-height:1.25;stroke-width:.73148"><tspan x="-1.8998765" y="27.899826" style="font-family:Futura;stroke-width:.73148">managem</tspan></text>
</svg>
