<?xml version="1.0" encoding="UTF-8" standalone="no"?>
<svg
   xmlns:dc="http://purl.org/dc/elements/1.1/"
   xmlns:cc="http://creativecommons.org/ns#"
   xmlns:rdf="http://www.w3.org/1999/02/22-rdf-syntax-ns#"
   xmlns:svg="http://www.w3.org/2000/svg"
   xmlns="http://www.w3.org/2000/svg"
   xmlns:sodipodi="http://sodipodi.sourceforge.net/DTD/sodipodi-0.dtd"
   xmlns:inkscape="http://www.inkscape.org/namespaces/inkscape"
   width="500"
   height="500"
   viewBox="0 0 132.29166 132.29167"
   version="1.1"
   id="svg8"
   inkscape:version="1.0.1 (3bc2e813f5, 2020-09-07)"
   sodipodi:docname="search-icon.inkscape.svg">
  <defs
     id="defs2">
    <inkscape:path-effect
       effect="bspline"
       id="path-effect51"
       is_visible="true"
       lpeversion="1"
       weight="33.333333"
       steps="2"
       helper_size="0"
       apply_no_weight="true"
       apply_with_weight="true"
       only_selected="false" />
    <inkscape:path-effect
       effect="bspline"
       id="path-effect47"
       is_visible="true"
       lpeversion="1"
       weight="33.333333"
       steps="2"
       helper_size="0"
       apply_no_weight="true"
       apply_with_weight="true"
       only_selected="false" />
  </defs>
  <sodipodi:namedview
     id="base"
     pagecolor="#ffffff"
     bordercolor="#666666"
     borderopacity="1.0"
     inkscape:pageopacity="0.0"
     inkscape:pageshadow="2"
     inkscape:zoom="2.8"
     inkscape:cx="178.66522"
     inkscape:cy="353.28896"
     inkscape:document-units="mm"
     inkscape:current-layer="layer1"
     inkscape:document-rotation="0"
     showgrid="false"
     units="px"
     inkscape:window-width="1366"
     inkscape:window-height="704"
     inkscape:window-x="0"
     inkscape:window-y="0"
     inkscape:window-maximized="1" />
  <metadata
     id="metadata5">
    <rdf:RDF>
      <cc:Work
         rdf:about="">
        <dc:format>image/svg+xml</dc:format>
        <dc:type
           rdf:resource="http://purl.org/dc/dcmitype/StillImage" />
        <dc:title></dc:title>
      </cc:Work>
    </rdf:RDF>
  </metadata>
  <g
     inkscape:label="Layer 1"
     inkscape:groupmode="layer"
     id="layer1">
    <g
       id="g27"
       transform="matrix(0.63071232,0.63071232,-0.70710678,0.70710678,79.723359,-2.5188629)">
      <path
         id="path10"
         style="fill:#b3b3b3;fill-rule:evenodd;stroke-width:1.43069;opacity:0.74300798"
         d="M 291.33594 90.515625 A 111.52264 90.738217 45 0 0 290.50586 90.517578 A 111.52264 90.738217 45 0 0 289.67773 90.527344 A 111.52264 90.738217 45 0 0 288.85156 90.544922 A 111.52264 90.738217 45 0 0 288.02734 90.568359 A 111.52264 90.738217 45 0 0 287.20312 90.599609 A 111.52264 90.738217 45 0 0 286.38086 90.636719 A 111.52264 90.738217 45 0 0 285.5625 90.683594 A 111.52264 90.738217 45 0 0 284.74414 90.734375 A 111.52264 90.738217 45 0 0 283.92773 90.794922 A 111.52264 90.738217 45 0 0 283.11328 90.861328 A 111.52264 90.738217 45 0 0 282.30078 90.933594 A 111.52264 90.738217 45 0 0 281.49219 91.013672 A 111.52264 90.738217 45 0 0 280.68359 91.101562 A 111.52264 90.738217 45 0 0 279.87891 91.197266 A 111.52264 90.738217 45 0 0 279.07422 91.298828 A 111.52264 90.738217 45 0 0 278.27344 91.40625 A 111.52264 90.738217 45 0 0 277.47461 91.521484 A 111.52264 90.738217 45 0 0 276.67773 91.644531 A 111.52264 90.738217 45 0 0 275.88477 91.773438 A 111.52264 90.738217 45 0 0 275.0918 91.910156 A 111.52264 90.738217 45 0 0 274.30273 92.054688 A 111.52264 90.738217 45 0 0 273.51758 92.205078 A 111.52264 90.738217 45 0 0 272.73242 92.363281 A 111.52264 90.738217 45 0 0 271.95312 92.527344 A 111.52264 90.738217 45 0 0 271.17383 92.697266 A 111.52264 90.738217 45 0 0 270.39844 92.876953 A 111.52264 90.738217 45 0 0 269.62695 93.060547 A 111.52264 90.738217 45 0 0 268.85742 93.253906 A 111.52264 90.738217 45 0 0 268.08984 93.453125 A 111.52264 90.738217 45 0 0 267.32617 93.658203 A 111.52264 90.738217 45 0 0 266.56641 93.871094 A 111.52264 90.738217 45 0 0 265.80859 94.089844 A 111.52264 90.738217 45 0 0 265.05469 94.316406 A 111.52264 90.738217 45 0 0 264.30469 94.548828 A 111.52264 90.738217 45 0 0 263.55664 94.789062 A 111.52264 90.738217 45 0 0 262.8125 95.035156 A 111.52264 90.738217 45 0 0 262.07227 95.289062 A 111.52264 90.738217 45 0 0 261.33594 95.548828 A 111.52264 90.738217 45 0 0 260.60156 95.816406 A 111.52264 90.738217 45 0 0 259.87109 96.089844 A 111.52264 90.738217 45 0 0 259.14453 96.371094 A 111.52264 90.738217 45 0 0 258.42188 96.658203 A 111.52264 90.738217 45 0 0 257.70312 96.951172 A 111.52264 90.738217 45 0 0 256.98828 97.251953 A 111.52264 90.738217 45 0 0 256.27539 97.558594 A 111.52264 90.738217 45 0 0 255.56836 97.871094 A 111.52264 90.738217 45 0 0 254.86523 98.191406 A 111.52264 90.738217 45 0 0 254.16602 98.517578 A 111.52264 90.738217 45 0 0 253.46875 98.851562 A 111.52264 90.738217 45 0 0 252.77734 99.189453 A 111.52264 90.738217 45 0 0 252.08984 99.535156 A 111.52264 90.738217 45 0 0 251.40625 99.888672 A 111.52264 90.738217 45 0 0 250.72852 100.24805 A 111.52264 90.738217 45 0 0 250.05273 100.61328 A 111.52264 90.738217 45 0 0 249.38281 100.98438 A 111.52264 90.738217 45 0 0 248.7168 101.36133 A 111.52264 90.738217 45 0 0 248.05469 101.74609 A 111.52264 90.738217 45 0 0 247.39648 102.13672 A 111.52264 90.738217 45 0 0 246.74414 102.5332 A 111.52264 90.738217 45 0 0 246.0957 102.9375 A 111.52264 90.738217 45 0 0 245.45117 103.3457 A 111.52264 90.738217 45 0 0 244.8125 103.76172 A 111.52264 90.738217 45 0 0 244.17773 104.18359 A 111.52264 90.738217 45 0 0 243.54883 104.61133 A 111.52264 90.738217 45 0 0 242.92383 105.04492 A 111.52264 90.738217 45 0 0 242.30273 105.48438 A 111.52264 90.738217 45 0 0 241.6875 105.92969 A 111.52264 90.738217 45 0 0 241.07617 106.38086 A 111.52264 90.738217 45 0 0 240.4707 106.83984 A 111.52264 90.738217 45 0 0 239.87109 107.30273 A 111.52264 90.738217 45 0 0 239.27539 107.77344 A 111.52264 90.738217 45 0 0 238.68359 108.24805 A 111.52264 90.738217 45 0 0 238.09961 108.73047 A 111.52264 90.738217 45 0 0 237.51953 109.2168 A 111.52264 90.738217 45 0 0 236.94336 109.71094 A 111.52264 90.738217 45 0 0 236.37305 110.20898 A 111.52264 90.738217 45 0 0 235.80859 110.71289 A 111.52264 90.738217 45 0 0 235.25 111.22266 A 111.52264 90.738217 45 0 0 234.69531 111.73828 A 111.52264 90.738217 45 0 0 234.14648 112.25977 A 111.52264 90.738217 45 0 0 233.60352 112.78711 A 111.52264 90.738217 45 0 0 233.06641 113.31836 A 111.52264 90.738217 45 0 0 232.88086 113.50586 A 111.52264 90.738217 45 0 0 232.34961 114.04492 A 111.52264 90.738217 45 0 0 231.82422 114.58984 A 111.52264 90.738217 45 0 0 231.30469 115.14062 A 111.52264 90.738217 45 0 0 230.79102 115.69727 A 111.52264 90.738217 45 0 0 230.2832 116.25781 A 111.52264 90.738217 45 0 0 229.78125 116.82422 A 111.52264 90.738217 45 0 0 229.28516 117.39648 A 111.52264 90.738217 45 0 0 228.79297 117.97266 A 111.52264 90.738217 45 0 0 228.30859 118.55469 A 111.52264 90.738217 45 0 0 227.83008 119.14258 A 111.52264 90.738217 45 0 0 227.35547 119.73438 A 111.52264 90.738217 45 0 0 226.88867 120.33203 A 111.52264 90.738217 45 0 0 226.42578 120.93359 A 111.52264 90.738217 45 0 0 225.9707 121.54102 A 111.52264 90.738217 45 0 0 225.52148 122.1543 A 111.52264 90.738217 45 0 0 225.07617 122.77148 A 111.52264 90.738217 45 0 0 224.63867 123.39258 A 111.52264 90.738217 45 0 0 224.20703 124.01953 A 111.52264 90.738217 45 0 0 223.78125 124.65039 A 111.52264 90.738217 45 0 0 223.36328 125.28711 A 111.52264 90.738217 45 0 0 222.94922 125.92773 A 111.52264 90.738217 45 0 0 222.54297 126.57422 A 111.52264 90.738217 45 0 0 222.14062 127.22461 A 111.52264 90.738217 45 0 0 221.74609 127.87891 A 111.52264 90.738217 45 0 0 221.35938 128.53711 A 111.52264 90.738217 45 0 0 220.97656 129.20117 A 111.52264 90.738217 45 0 0 220.60156 129.86914 A 111.52264 90.738217 45 0 0 220.23047 130.54102 A 111.52264 90.738217 45 0 0 219.86914 131.2168 A 111.52264 90.738217 45 0 0 219.51172 131.89648 A 111.52264 90.738217 45 0 0 219.16211 132.58203 A 111.52264 90.738217 45 0 0 218.81836 133.27148 A 111.52264 90.738217 45 0 0 218.48047 133.96484 A 111.52264 90.738217 45 0 0 218.15039 134.66211 A 111.52264 90.738217 45 0 0 217.82617 135.36328 A 111.52264 90.738217 45 0 0 217.50781 136.06836 A 111.52264 90.738217 45 0 0 217.19727 136.77734 A 111.52264 90.738217 45 0 0 216.89258 137.49023 A 111.52264 90.738217 45 0 0 216.59375 138.20508 A 111.52264 90.738217 45 0 0 216.30273 138.92578 A 111.52264 90.738217 45 0 0 216.01953 139.65039 A 111.52264 90.738217 45 0 0 215.74023 140.37891 A 111.52264 90.738217 45 0 0 215.46875 141.10938 A 111.52264 90.738217 45 0 0 215.20508 141.84375 A 111.52264 90.738217 45 0 0 214.94727 142.58203 A 111.52264 90.738217 45 0 0 214.69531 143.32422 A 111.52264 90.738217 45 0 0 214.45117 144.07031 A 111.52264 90.738217 45 0 0 214.21484 144.81836 A 111.52264 90.738217 45 0 0 213.98438 145.57031 A 111.52264 90.738217 45 0 0 213.75977 146.32617 A 111.52264 90.738217 45 0 0 213.54297 147.08398 A 111.52264 90.738217 45 0 0 213.33203 147.8457 A 111.52264 90.738217 45 0 0 213.12891 148.60938 A 111.52264 90.738217 45 0 0 212.93164 149.37695 A 111.52264 90.738217 45 0 0 212.74219 150.14844 A 111.52264 90.738217 45 0 0 212.56055 150.92188 A 111.52264 90.738217 45 0 0 212.38477 151.69727 A 111.52264 90.738217 45 0 0 212.21484 152.47656 A 111.52264 90.738217 45 0 0 212.05273 153.25781 A 111.52264 90.738217 45 0 0 211.89844 154.04297 A 111.52264 90.738217 45 0 0 211.75 154.83008 A 111.52264 90.738217 45 0 0 211.60938 155.62109 A 111.52264 90.738217 45 0 0 211.47461 156.41211 A 111.52264 90.738217 45 0 0 211.34766 157.20703 A 111.52264 90.738217 45 0 0 211.22852 158.00586 A 111.52264 90.738217 45 0 0 211.11523 158.80469 A 111.52264 90.738217 45 0 0 211.00781 159.60742 A 111.52264 90.738217 45 0 0 210.91016 160.41016 A 111.52264 90.738217 45 0 0 210.81641 161.2168 A 111.52264 90.738217 45 0 0 210.73242 162.02539 A 111.52264 90.738217 45 0 0 210.6543 162.83789 A 111.52264 90.738217 45 0 0 210.58398 163.65039 A 111.52264 90.738217 45 0 0 210.51953 164.46484 A 111.52264 90.738217 45 0 0 210.46289 165.28125 A 111.52264 90.738217 45 0 0 210.41211 166.09961 A 111.52264 90.738217 45 0 0 210.36914 166.91992 A 111.52264 90.738217 45 0 0 210.33398 167.74219 A 111.52264 90.738217 45 0 0 210.30469 168.56641 A 111.52264 90.738217 45 0 0 210.2832 169.39258 A 111.52264 90.738217 45 0 0 210.26953 170.21875 A 111.52264 90.738217 45 0 0 210.26172 171.04688 A 111.52264 90.738217 45 0 0 210.26172 171.87695 A 111.52264 90.738217 45 0 0 210.26758 172.70898 A 111.52264 90.738217 45 0 0 210.2832 173.54102 A 111.52264 90.738217 45 0 0 210.30273 174.375 A 111.52264 90.738217 45 0 0 210.33203 175.21094 A 111.52264 90.738217 45 0 0 210.36523 176.04688 A 111.52264 90.738217 45 0 0 210.4082 176.88477 A 111.52264 90.738217 45 0 0 210.45703 177.72461 A 111.52264 90.738217 45 0 0 210.51367 178.56445 A 111.52264 90.738217 45 0 0 210.57617 179.4043 A 111.52264 90.738217 45 0 0 210.64648 180.24609 A 111.52264 90.738217 45 0 0 210.72461 181.08789 A 111.52264 90.738217 45 0 0 210.80859 181.93164 A 111.52264 90.738217 45 0 0 210.90039 182.77539 A 111.52264 90.738217 45 0 0 210.99805 183.62109 A 111.52264 90.738217 45 0 0 211.10352 184.46484 A 111.52264 90.738217 45 0 0 211.2168 185.31055 A 111.52264 90.738217 45 0 0 211.33594 186.15625 A 111.52264 90.738217 45 0 0 211.46289 187.00391 A 111.52264 90.738217 45 0 0 211.5957 187.85156 A 111.52264 90.738217 45 0 0 211.73633 188.69727 A 111.52264 90.738217 45 0 0 211.88281 189.54492 A 111.52264 90.738217 45 0 0 212.03711 190.39258 A 111.52264 90.738217 45 0 0 212.19922 191.24023 A 111.52264 90.738217 45 0 0 212.36719 192.08789 A 111.52264 90.738217 45 0 0 212.54297 192.9375 A 111.52264 90.738217 45 0 0 212.72461 193.78516 A 111.52264 90.738217 45 0 0 212.91406 194.63281 A 111.52264 90.738217 45 0 0 213.10938 195.48047 A 111.52264 90.738217 45 0 0 213.3125 196.32617 A 111.52264 90.738217 45 0 0 213.52148 197.17383 A 111.52264 90.738217 45 0 0 213.73828 198.01953 A 111.52264 90.738217 45 0 0 213.96094 198.86719 A 111.52264 90.738217 45 0 0 214.19141 199.71289 A 111.52264 90.738217 45 0 0 214.42773 200.55859 A 111.52264 90.738217 45 0 0 214.67188 201.40234 A 111.52264 90.738217 45 0 0 214.92188 202.24609 A 111.52264 90.738217 45 0 0 215.17969 203.08984 A 111.52264 90.738217 45 0 0 215.44336 203.93164 A 111.52264 90.738217 45 0 0 215.71484 204.77344 A 111.52264 90.738217 45 0 0 215.99219 205.61523 A 111.52264 90.738217 45 0 0 216.27539 206.45508 A 111.52264 90.738217 45 0 0 216.56641 207.29297 A 111.52264 90.738217 45 0 0 216.86328 208.13086 A 111.52264 90.738217 45 0 0 217.16797 208.96875 A 111.52264 90.738217 45 0 0 217.47852 209.80469 A 111.52264 90.738217 45 0 0 217.79492 210.63867 A 111.52264 90.738217 45 0 0 218.11914 211.47266 A 111.52264 90.738217 45 0 0 218.44922 212.30273 A 111.52264 90.738217 45 0 0 218.78516 213.13477 A 111.52264 90.738217 45 0 0 219.12891 213.96289 A 111.52264 90.738217 45 0 0 219.47852 214.79102 A 111.52264 90.738217 45 0 0 219.83398 215.61523 A 111.52264 90.738217 45 0 0 220.19531 216.43945 A 111.52264 90.738217 45 0 0 220.56445 217.26172 A 111.52264 90.738217 45 0 0 220.93945 218.08398 A 111.52264 90.738217 45 0 0 221.32227 218.90234 A 111.52264 90.738217 45 0 0 221.70898 219.71875 A 111.52264 90.738217 45 0 0 222.10352 220.53516 A 111.52264 90.738217 45 0 0 222.50391 221.34766 A 111.52264 90.738217 45 0 0 222.91016 222.1582 A 111.52264 90.738217 45 0 0 223.32227 222.96875 A 111.52264 90.738217 45 0 0 223.74219 223.77539 A 111.52264 90.738217 45 0 0 224.16602 224.58008 A 111.52264 90.738217 45 0 0 224.59766 225.38281 A 111.52264 90.738217 45 0 0 225.03516 226.18164 A 111.52264 90.738217 45 0 0 225.47852 226.98047 A 111.52264 90.738217 45 0 0 225.92773 227.77539 A 111.52264 90.738217 45 0 0 226.38281 228.56836 A 111.52264 90.738217 45 0 0 226.84375 229.35938 A 111.52264 90.738217 45 0 0 227.31055 230.14648 A 111.52264 90.738217 45 0 0 227.7832 230.93164 A 111.52264 90.738217 45 0 0 228.26172 231.71484 A 111.52264 90.738217 45 0 0 228.74609 232.49414 A 111.52264 90.738217 45 0 0 229.23633 233.27148 A 111.52264 90.738217 45 0 0 229.73242 234.04492 A 111.52264 90.738217 45 0 0 230.23438 234.81641 A 111.52264 90.738217 45 0 0 230.74219 235.58398 A 111.52264 90.738217 45 0 0 231.25586 236.34961 A 111.52264 90.738217 45 0 0 231.77539 237.11133 A 111.52264 90.738217 45 0 0 232.29883 237.87109 A 111.52264 90.738217 45 0 0 232.82812 238.62695 A 111.52264 90.738217 45 0 0 233.36523 239.37891 A 111.52264 90.738217 45 0 0 233.90625 240.12891 A 111.52264 90.738217 45 0 0 234.45117 240.875 A 111.52264 90.738217 45 0 0 235.00391 241.61719 A 111.52264 90.738217 45 0 0 235.56055 242.35547 A 111.52264 90.738217 45 0 0 236.12305 243.0918 A 111.52264 90.738217 45 0 0 236.68945 243.82422 A 111.52264 90.738217 45 0 0 237.26367 244.55273 A 111.52264 90.738217 45 0 0 237.8418 245.27734 A 111.52264 90.738217 45 0 0 238.42383 245.99805 A 111.52264 90.738217 45 0 0 239.01367 246.7168 A 111.52264 90.738217 45 0 0 239.60547 247.42969 A 111.52264 90.738217 45 0 0 240.20508 248.13867 A 111.52264 90.738217 45 0 0 240.80859 248.8457 A 111.52264 90.738217 45 0 0 241.41602 249.54688 A 111.52264 90.738217 45 0 0 242.0293 250.24414 A 111.52264 90.738217 45 0 0 242.64844 250.93945 A 111.52264 90.738217 45 0 0 243.27148 251.62891 A 111.52264 90.738217 45 0 0 243.89844 252.31445 A 111.52264 90.738217 45 0 0 244.53125 252.99609 A 111.52264 90.738217 45 0 0 245.16797 253.67383 A 111.52264 90.738217 45 0 0 245.81055 254.3457 A 111.52264 90.738217 45 0 0 246.45508 255.01562 A 111.52264 90.738217 45 0 0 247.10742 255.67969 A 111.52264 90.738217 45 0 0 247.76172 256.33984 A 111.52264 90.738217 45 0 0 247.99023 256.56641 A 111.52264 90.738217 45 0 0 248.65234 257.2207 A 111.52264 90.738217 45 0 0 249.31836 257.87109 A 111.52264 90.738217 45 0 0 249.98828 258.51562 A 111.52264 90.738217 45 0 0 250.66211 259.15625 A 111.52264 90.738217 45 0 0 251.3418 259.79102 A 111.52264 90.738217 45 0 0 252.02539 260.42188 A 111.52264 90.738217 45 0 0 252.71094 261.04688 A 111.52264 90.738217 45 0 0 253.40234 261.66992 A 111.52264 90.738217 45 0 0 254.09766 262.28516 A 111.52264 90.738217 45 0 0 254.79688 262.89648 A 111.52264 90.738217 45 0 0 255.5 263.50391 A 111.52264 90.738217 45 0 0 256.20898 264.10547 A 111.52264 90.738217 45 0 0 256.91992 264.70117 A 111.52264 90.738217 45 0 0 257.63477 265.29297 A 111.52264 90.738217 45 0 0 258.35352 265.88086 A 111.52264 90.738217 45 0 0 259.07617 266.46094 A 111.52264 90.738217 45 0 0 259.80078 267.03711 A 111.52264 90.738217 45 0 0 260.53125 267.60938 A 111.52264 90.738217 45 0 0 261.26367 268.17383 A 111.52264 90.738217 45 0 0 262.00195 268.73438 A 111.52264 90.738217 45 0 0 262.74219 269.29102 A 111.52264 90.738217 45 0 0 263.48633 269.83984 A 111.52264 90.738217 45 0 0 264.23242 270.38477 A 111.52264 90.738217 45 0 0 264.98242 270.92383 A 111.52264 90.738217 45 0 0 265.73633 271.45703 A 111.52264 90.738217 45 0 0 266.49414 271.98438 A 111.52264 90.738217 45 0 0 267.25391 272.50781 A 111.52264 90.738217 45 0 0 268.01758 273.02539 A 111.52264 90.738217 45 0 0 268.7832 273.53516 A 111.52264 90.738217 45 0 0 269.55273 274.04102 A 111.52264 90.738217 45 0 0 270.32422 274.54102 A 111.52264 90.738217 45 0 0 271.09961 275.03516 A 111.52264 90.738217 45 0 0 271.87695 275.52344 A 111.52264 90.738217 45 0 0 272.6582 276.00586 A 111.52264 90.738217 45 0 0 273.44141 276.48242 A 111.52264 90.738217 45 0 0 274.22852 276.95312 A 111.52264 90.738217 45 0 0 275.01562 277.41797 A 111.52264 90.738217 45 0 0 275.80859 277.87891 A 111.52264 90.738217 45 0 0 276.60156 278.33203 A 111.52264 90.738217 45 0 0 277.39844 278.77734 A 111.52264 90.738217 45 0 0 278.19727 279.21875 A 111.52264 90.738217 45 0 0 278.99805 279.6543 A 111.52264 90.738217 45 0 0 279.80078 280.08398 A 111.52264 90.738217 45 0 0 280.60547 280.50586 A 111.52264 90.738217 45 0 0 281.41406 280.92188 A 111.52264 90.738217 45 0 0 282.22461 281.33398 A 111.52264 90.738217 45 0 0 283.03516 281.73828 A 111.52264 90.738217 45 0 0 283.84961 282.13672 A 111.52264 90.738217 45 0 0 284.66602 282.52734 A 111.52264 90.738217 45 0 0 285.48242 282.91406 A 111.52264 90.738217 45 0 0 286.30273 283.29297 A 111.52264 90.738217 45 0 0 287.125 283.66602 A 111.52264 90.738217 45 0 0 287.94727 284.03125 A 111.52264 90.738217 45 0 0 288.77148 284.39258 A 111.52264 90.738217 45 0 0 289.59766 284.74609 A 111.52264 90.738217 45 0 0 290.42578 285.09375 A 111.52264 90.738217 45 0 0 291.25586 285.43359 A 111.52264 90.738217 45 0 0 292.08594 285.76758 A 111.52264 90.738217 45 0 0 292.91797 286.0957 A 111.52264 90.738217 45 0 0 293.75195 286.41797 A 111.52264 90.738217 45 0 0 294.58789 286.73242 A 111.52264 90.738217 45 0 0 295.42383 287.04102 A 111.52264 90.738217 45 0 0 296.25977 287.3418 A 111.52264 90.738217 45 0 0 297.09961 287.63672 A 111.52264 90.738217 45 0 0 297.9375 287.92578 A 111.52264 90.738217 45 0 0 298.7793 288.20703 A 111.52264 90.738217 45 0 0 299.61914 288.48242 A 111.52264 90.738217 45 0 0 300.46094 288.75 A 111.52264 90.738217 45 0 0 301.30469 289.01172 A 111.52264 90.738217 45 0 0 302.14844 289.26562 A 111.52264 90.738217 45 0 0 302.99219 289.51367 A 111.52264 90.738217 45 0 0 303.83789 289.75586 A 111.52264 90.738217 45 0 0 304.68164 289.99023 A 111.52264 90.738217 45 0 0 305.5293 290.21875 A 111.52264 90.738217 45 0 0 306.375 290.43945 A 111.52264 90.738217 45 0 0 307.22266 290.65234 A 111.52264 90.738217 45 0 0 308.06836 290.86133 A 111.52264 90.738217 45 0 0 308.91602 291.06055 A 111.52264 90.738217 45 0 0 309.76367 291.25391 A 111.52264 90.738217 45 0 0 310.61133 291.44141 A 111.52264 90.738217 45 0 0 311.45898 291.62109 A 111.52264 90.738217 45 0 0 312.30664 291.79297 A 111.52264 90.738217 45 0 0 313.1543 291.95898 A 111.52264 90.738217 45 0 0 314.00195 292.11719 A 111.52264 90.738217 45 0 0 314.84961 292.26953 A 111.52264 90.738217 45 0 0 315.69727 292.41406 A 111.52264 90.738217 45 0 0 316.54492 292.55273 A 111.52264 90.738217 45 0 0 317.39258 292.68359 A 111.52264 90.738217 45 0 0 318.23828 292.80859 A 111.52264 90.738217 45 0 0 319.08398 292.92578 A 111.52264 90.738217 45 0 0 319.92969 293.03516 A 111.52264 90.738217 45 0 0 320.77539 293.13867 A 111.52264 90.738217 45 0 0 321.61914 293.23438 A 111.52264 90.738217 45 0 0 322.46289 293.32227 A 111.52264 90.738217 45 0 0 323.30469 293.4043 A 111.52264 90.738217 45 0 0 324.14844 293.48047 A 111.52264 90.738217 45 0 0 324.98828 293.54688 A 111.52264 90.738217 45 0 0 325.83008 293.60938 A 111.52264 90.738217 45 0 0 326.66797 293.66211 A 111.52264 90.738217 45 0 0 327.50781 293.70898 A 111.52264 90.738217 45 0 0 328.34375 293.74805 A 111.52264 90.738217 45 0 0 329.17969 293.78125 A 111.52264 90.738217 45 0 0 330.01562 293.80664 A 111.52264 90.738217 45 0 0 330.84961 293.82422 A 111.52264 90.738217 45 0 0 331.68164 293.83594 A 111.52264 90.738217 45 0 0 332.51172 293.83984 A 111.52264 90.738217 45 0 0 333.3418 293.83789 A 111.52264 90.738217 45 0 0 334.16992 293.82812 A 111.52264 90.738217 45 0 0 334.99609 293.81055 A 111.52264 90.738217 45 0 0 335.82227 293.78711 A 111.52264 90.738217 45 0 0 336.64453 293.75586 A 111.52264 90.738217 45 0 0 337.4668 293.71875 A 111.52264 90.738217 45 0 0 338.28516 293.67188 A 111.52264 90.738217 45 0 0 339.10352 293.62109 A 111.52264 90.738217 45 0 0 339.91992 293.56055 A 111.52264 90.738217 45 0 0 340.73438 293.49414 A 111.52264 90.738217 45 0 0 341.54688 293.42188 A 111.52264 90.738217 45 0 0 342.35547 293.33984 A 111.52264 90.738217 45 0 0 343.16406 293.25391 A 111.52264 90.738217 45 0 0 343.9707 293.1582 A 111.52264 90.738217 45 0 0 344.77344 293.05664 A 111.52264 90.738217 45 0 0 345.57422 292.94922 A 111.52264 90.738217 45 0 0 346.37305 292.83398 A 111.52264 90.738217 45 0 0 347.16992 292.71094 A 111.52264 90.738217 45 0 0 347.96484 292.58008 A 111.52264 90.738217 45 0 0 348.75586 292.44531 A 111.52264 90.738217 45 0 0 349.54492 292.30078 A 111.52264 90.738217 45 0 0 350.33008 292.15039 A 111.52264 90.738217 45 0 0 351.11523 291.99219 A 111.52264 90.738217 45 0 0 351.89648 291.82812 A 111.52264 90.738217 45 0 0 352.67383 291.6582 A 111.52264 90.738217 45 0 0 353.44922 291.47852 A 111.52264 90.738217 45 0 0 354.2207 291.29297 A 111.52264 90.738217 45 0 0 354.99023 291.10156 A 111.52264 90.738217 45 0 0 355.75781 290.90234 A 111.52264 90.738217 45 0 0 356.52148 290.69727 A 111.52264 90.738217 45 0 0 357.28125 290.48438 A 111.52264 90.738217 45 0 0 358.03906 290.26562 A 111.52264 90.738217 45 0 0 358.79297 290.03906 A 111.52264 90.738217 45 0 0 359.54297 289.80664 A 111.52264 90.738217 45 0 0 360.29102 289.56641 A 111.52264 90.738217 45 0 0 361.03516 289.31836 A 111.52264 90.738217 45 0 0 361.77539 289.06641 A 111.52264 90.738217 45 0 0 362.51172 288.80469 A 111.52264 90.738217 45 0 0 363.24609 288.53906 A 111.52264 90.738217 45 0 0 363.97656 288.26562 A 111.52264 90.738217 45 0 0 364.70312 287.98438 A 111.52264 90.738217 45 0 0 365.42578 287.69727 A 111.52264 90.738217 45 0 0 366.14453 287.4043 A 111.52264 90.738217 45 0 0 366.85938 287.10352 A 111.52264 90.738217 45 0 0 367.57227 286.79688 A 111.52264 90.738217 45 0 0 368.2793 286.48438 A 111.52264 90.738217 45 0 0 368.98242 286.16406 A 111.52264 90.738217 45 0 0 369.68359 285.83789 A 111.52264 90.738217 45 0 0 370.37891 285.50391 A 111.52264 90.738217 45 0 0 371.07031 285.16602 A 111.52264 90.738217 45 0 0 371.75781 284.81836 A 111.52264 90.738217 45 0 0 372.44141 284.4668 A 111.52264 90.738217 45 0 0 373.11914 284.10742 A 111.52264 90.738217 45 0 0 373.79492 283.74219 A 111.52264 90.738217 45 0 0 374.46484 283.37109 A 111.52264 90.738217 45 0 0 375.13281 282.99414 A 111.52264 90.738217 45 0 0 375.79297 282.60938 A 111.52264 90.738217 45 0 0 376.45117 282.21875 A 111.52264 90.738217 45 0 0 377.10352 281.82227 A 111.52264 90.738217 45 0 0 377.75195 281.41797 A 111.52264 90.738217 45 0 0 378.39648 281.00977 A 111.52264 90.738217 45 0 0 379.03516 280.59375 A 111.52264 90.738217 45 0 0 379.66992 280.17188 A 111.52264 90.738217 45 0 0 380.30078 279.74414 A 111.52264 90.738217 45 0 0 380.92578 279.31055 A 111.52264 90.738217 45 0 0 381.54492 278.87109 A 111.52264 90.738217 45 0 0 382.16016 278.42578 A 111.52264 90.738217 45 0 0 382.77148 277.97266 A 111.52264 90.738217 45 0 0 383.37695 277.51562 A 111.52264 90.738217 45 0 0 383.97656 277.05273 A 111.52264 90.738217 45 0 0 384.57227 276.58203 A 111.52264 90.738217 45 0 0 385.16406 276.10742 A 111.52264 90.738217 45 0 0 385.74805 275.625 A 111.52264 90.738217 45 0 0 386.33008 275.13867 A 111.52264 90.738217 45 0 0 386.9043 274.64453 A 111.52264 90.738217 45 0 0 387.47461 274.14648 A 111.52264 90.738217 45 0 0 388.03906 273.64258 A 111.52264 90.738217 45 0 0 388.59766 273.13281 A 111.52264 90.738217 45 0 0 389.15234 272.61719 A 111.52264 90.738217 45 0 0 389.70117 272.0957 A 111.52264 90.738217 45 0 0 390.24414 271.56836 A 111.52264 90.738217 45 0 0 390.7832 271.03516 A 111.52264 90.738217 45 0 0 390.9668 270.84961 A 111.52264 90.738217 45 0 0 391.49805 270.31055 A 111.52264 90.738217 45 0 0 392.02344 269.76562 A 111.52264 90.738217 45 0 0 392.54297 269.21484 A 111.52264 90.738217 45 0 0 393.05664 268.6582 A 111.52264 90.738217 45 0 0 393.56445 268.09766 A 111.52264 90.738217 45 0 0 394.06641 267.53125 A 111.52264 90.738217 45 0 0 394.5625 266.95898 A 111.52264 90.738217 45 0 0 395.05469 266.38281 A 111.52264 90.738217 45 0 0 395.53906 265.80078 A 111.52264 90.738217 45 0 0 396.01953 265.21289 A 111.52264 90.738217 45 0 0 396.49219 264.62109 A 111.52264 90.738217 45 0 0 396.95898 264.02344 A 111.52264 90.738217 45 0 0 397.42188 263.41992 A 111.52264 90.738217 45 0 0 397.87695 262.8125 A 111.52264 90.738217 45 0 0 398.32812 262.20117 A 111.52264 90.738217 45 0 0 398.77148 261.58398 A 111.52264 90.738217 45 0 0 399.20898 260.96289 A 111.52264 90.738217 45 0 0 399.64062 260.33594 A 111.52264 90.738217 45 0 0 400.06641 259.70312 A 111.52264 90.738217 45 0 0 400.48438 259.06836 A 111.52264 90.738217 45 0 0 400.89844 258.42773 A 111.52264 90.738217 45 0 0 401.30469 257.78125 A 111.52264 90.738217 45 0 0 401.70703 257.13086 A 111.52264 90.738217 45 0 0 402.10156 256.47656 A 111.52264 90.738217 45 0 0 402.49023 255.81836 A 111.52264 90.738217 45 0 0 402.87109 255.1543 A 111.52264 90.738217 45 0 0 403.24805 254.48633 A 111.52264 90.738217 45 0 0 403.61719 253.81445 A 111.52264 90.738217 45 0 0 403.98047 253.13867 A 111.52264 90.738217 45 0 0 404.33594 252.45703 A 111.52264 90.738217 45 0 0 404.68555 251.77344 A 111.52264 90.738217 45 0 0 405.0293 251.08398 A 111.52264 90.738217 45 0 0 405.36719 250.39062 A 111.52264 90.738217 45 0 0 405.69727 249.69336 A 111.52264 90.738217 45 0 0 406.02148 248.99219 A 111.52264 90.738217 45 0 0 406.33984 248.28711 A 111.52264 90.738217 45 0 0 406.65039 247.57812 A 111.52264 90.738217 45 0 0 406.95508 246.86523 A 111.52264 90.738217 45 0 0 407.25391 246.14844 A 111.52264 90.738217 45 0 0 407.54492 245.42969 A 111.52264 90.738217 45 0 0 407.83008 244.70508 A 111.52264 90.738217 45 0 0 408.10742 243.97656 A 111.52264 90.738217 45 0 0 408.37891 243.24609 A 111.52264 90.738217 45 0 0 408.64258 242.51172 A 111.52264 90.738217 45 0 0 408.90039 241.77344 A 111.52264 90.738217 45 0 0 409.15234 241.03125 A 111.52264 90.738217 45 0 0 409.39648 240.28516 A 111.52264 90.738217 45 0 0 409.63281 239.53711 A 111.52264 90.738217 45 0 0 409.86523 238.78516 A 111.52264 90.738217 45 0 0 410.08789 238.0293 A 111.52264 90.738217 45 0 0 410.30469 237.27148 A 111.52264 90.738217 45 0 0 410.51562 236.50977 A 111.52264 90.738217 45 0 0 410.71875 235.74609 A 111.52264 90.738217 45 0 0 410.91602 234.97852 A 111.52264 90.738217 45 0 0 411.10547 234.20703 A 111.52264 90.738217 45 0 0 411.28711 233.43359 A 111.52264 90.738217 45 0 0 411.46289 232.6582 A 111.52264 90.738217 45 0 0 411.63281 231.87891 A 111.52264 90.738217 45 0 0 411.79492 231.0957 A 111.52264 90.738217 45 0 0 411.94922 230.3125 A 111.52264 90.738217 45 0 0 412.09766 229.52539 A 111.52264 90.738217 45 0 0 412.23828 228.73438 A 111.52264 90.738217 45 0 0 412.37305 227.94336 A 111.52264 90.738217 45 0 0 412.5 227.14844 A 111.52264 90.738217 45 0 0 412.62109 226.34961 A 111.52264 90.738217 45 0 0 412.73438 225.55078 A 111.52264 90.738217 45 0 0 412.83984 224.74805 A 111.52264 90.738217 45 0 0 412.93945 223.94336 A 111.52264 90.738217 45 0 0 413.03125 223.13867 A 111.52264 90.738217 45 0 0 413.11523 222.32812 A 111.52264 90.738217 45 0 0 413.19336 221.51758 A 111.52264 90.738217 45 0 0 413.26562 220.70508 A 111.52264 90.738217 45 0 0 413.32812 219.89062 A 111.52264 90.738217 45 0 0 413.38477 219.07422 A 111.52264 90.738217 45 0 0 413.43555 218.25586 A 111.52264 90.738217 45 0 0 413.47852 217.43555 A 111.52264 90.738217 45 0 0 413.51367 216.61328 A 111.52264 90.738217 45 0 0 413.54297 215.78906 A 111.52264 90.738217 45 0 0 413.56445 214.96289 A 111.52264 90.738217 45 0 0 413.57812 214.13672 A 111.52264 90.738217 45 0 0 413.58594 213.30859 A 111.52264 90.738217 45 0 0 413.58594 212.47852 A 111.52264 90.738217 45 0 0 413.58008 211.64648 A 111.52264 90.738217 45 0 0 413.56641 210.81445 A 111.52264 90.738217 45 0 0 413.54492 209.97852 A 111.52264 90.738217 45 0 0 413.51758 209.14453 A 111.52264 90.738217 45 0 0 413.48242 208.30664 A 111.52264 90.738217 45 0 0 413.43945 207.4707 A 111.52264 90.738217 45 0 0 413.39062 206.63086 A 111.52264 90.738217 45 0 0 413.33398 205.79102 A 111.52264 90.738217 45 0 0 413.27148 204.95117 A 111.52264 90.738217 45 0 0 413.20117 204.10938 A 111.52264 90.738217 45 0 0 413.12305 203.26758 A 111.52264 90.738217 45 0 0 413.03906 202.42383 A 111.52264 90.738217 45 0 0 412.94727 201.58008 A 111.52264 90.738217 45 0 0 412.84961 200.73438 A 111.52264 90.738217 45 0 0 412.74414 199.89062 A 111.52264 90.738217 45 0 0 412.63086 199.04492 A 111.52264 90.738217 45 0 0 412.51172 198.19727 A 111.52264 90.738217 45 0 0 412.38477 197.35156 A 111.52264 90.738217 45 0 0 412.25195 196.50391 A 111.52264 90.738217 45 0 0 412.11133 195.6582 A 111.52264 90.738217 45 0 0 411.96484 194.81055 A 111.52264 90.738217 45 0 0 411.81055 193.96289 A 111.52264 90.738217 45 0 0 411.64844 193.11523 A 111.52264 90.738217 45 0 0 411.48047 192.26758 A 111.52264 90.738217 45 0 0 411.30469 191.41797 A 111.52264 90.738217 45 0 0 411.12305 190.57031 A 111.52264 90.738217 45 0 0 410.93359 189.72266 A 111.52264 90.738217 45 0 0 410.73828 188.875 A 111.52264 90.738217 45 0 0 410.53516 188.0293 A 111.52264 90.738217 45 0 0 410.32617 187.18164 A 111.52264 90.738217 45 0 0 410.10938 186.33398 A 111.52264 90.738217 45 0 0 409.88672 185.48828 A 111.52264 90.738217 45 0 0 409.65625 184.64258 A 111.52264 90.738217 45 0 0 409.41992 183.79688 A 111.52264 90.738217 45 0 0 409.17578 182.95312 A 111.52264 90.738217 45 0 0 408.92578 182.10938 A 111.52264 90.738217 45 0 0 408.66797 181.26562 A 111.52264 90.738217 45 0 0 408.4043 180.42383 A 111.52264 90.738217 45 0 0 408.13281 179.58203 A 111.52264 90.738217 45 0 0 407.85547 178.74023 A 111.52264 90.738217 45 0 0 407.57227 177.90039 A 111.52264 90.738217 45 0 0 407.28125 177.06055 A 111.52264 90.738217 45 0 0 406.98438 176.22266 A 111.52264 90.738217 45 0 0 406.67969 175.38672 A 111.52264 90.738217 45 0 0 406.36914 174.55078 A 111.52264 90.738217 45 0 0 406.05273 173.7168 A 111.52264 90.738217 45 0 0 405.72852 172.88281 A 111.52264 90.738217 45 0 0 405.39844 172.05273 A 111.52264 90.738217 45 0 0 405.0625 171.2207 A 111.52264 90.738217 45 0 0 404.71875 170.39258 A 111.52264 90.738217 45 0 0 404.36914 169.56445 A 111.52264 90.738217 45 0 0 404.01367 168.74023 A 111.52264 90.738217 45 0 0 403.65234 167.91602 A 111.52264 90.738217 45 0 0 403.2832 167.0918 A 111.52264 90.738217 45 0 0 402.9082 166.27148 A 111.52264 90.738217 45 0 0 402.52734 165.45312 A 111.52264 90.738217 45 0 0 402.13867 164.63672 A 111.52264 90.738217 45 0 0 401.74414 163.82031 A 111.52264 90.738217 45 0 0 401.34375 163.00781 A 111.52264 90.738217 45 0 0 400.9375 162.19531 A 111.52264 90.738217 45 0 0 400.52539 161.38672 A 111.52264 90.738217 45 0 0 400.10547 160.58008 A 111.52264 90.738217 45 0 0 399.68164 159.77539 A 111.52264 90.738217 45 0 0 399.25 158.97266 A 111.52264 90.738217 45 0 0 398.8125 158.17188 A 111.52264 90.738217 45 0 0 398.36914 157.375 A 111.52264 90.738217 45 0 0 397.91992 156.58008 A 111.52264 90.738217 45 0 0 397.46484 155.78711 A 111.52264 90.738217 45 0 0 397.00391 154.99609 A 111.52264 90.738217 45 0 0 396.53711 154.20898 A 111.52264 90.738217 45 0 0 396.06445 153.42383 A 111.52264 90.738217 45 0 0 395.58594 152.64062 A 111.52264 90.738217 45 0 0 395.10156 151.86133 A 111.52264 90.738217 45 0 0 394.61133 151.08398 A 111.52264 90.738217 45 0 0 394.11523 150.31055 A 111.52264 90.738217 45 0 0 393.61328 149.53906 A 111.52264 90.738217 45 0 0 393.10547 148.77148 A 111.52264 90.738217 45 0 0 392.5918 148.00586 A 111.52264 90.738217 45 0 0 392.07422 147.24414 A 111.52264 90.738217 45 0 0 391.54883 146.48438 A 111.52264 90.738217 45 0 0 391.01953 145.72852 A 111.52264 90.738217 45 0 0 390.48438 144.97656 A 111.52264 90.738217 45 0 0 389.94336 144.22656 A 111.52264 90.738217 45 0 0 389.39648 143.48047 A 111.52264 90.738217 45 0 0 388.84375 142.73828 A 111.52264 90.738217 45 0 0 388.28711 142 A 111.52264 90.738217 45 0 0 387.72461 141.26367 A 111.52264 90.738217 45 0 0 387.1582 140.53125 A 111.52264 90.738217 45 0 0 386.58398 139.80273 A 111.52264 90.738217 45 0 0 386.00586 139.07812 A 111.52264 90.738217 45 0 0 385.42383 138.35742 A 111.52264 90.738217 45 0 0 384.83594 137.63867 A 111.52264 90.738217 45 0 0 384.24219 136.92578 A 111.52264 90.738217 45 0 0 383.64258 136.2168 A 111.52264 90.738217 45 0 0 383.03906 135.50977 A 111.52264 90.738217 45 0 0 382.43164 134.80859 A 111.52264 90.738217 45 0 0 381.81836 134.10938 A 111.52264 90.738217 45 0 0 381.20117 133.41602 A 111.52264 90.738217 45 0 0 380.57812 132.72656 A 111.52264 90.738217 45 0 0 379.94922 132.04102 A 111.52264 90.738217 45 0 0 379.31641 131.35938 A 111.52264 90.738217 45 0 0 378.67969 130.68164 A 111.52264 90.738217 45 0 0 378.03906 130.00977 A 111.52264 90.738217 45 0 0 377.39258 129.33984 A 111.52264 90.738217 45 0 0 376.74023 128.67578 A 111.52264 90.738217 45 0 0 376.08594 128.01562 A 111.52264 90.738217 45 0 0 375.85742 127.78711 A 111.52264 90.738217 45 0 0 375.19531 127.13477 A 111.52264 90.738217 45 0 0 374.5293 126.48438 A 111.52264 90.738217 45 0 0 373.85938 125.83984 A 111.52264 90.738217 45 0 0 373.18555 125.19922 A 111.52264 90.738217 45 0 0 372.50586 124.56445 A 111.52264 90.738217 45 0 0 371.82422 123.93359 A 111.52264 90.738217 45 0 0 371.13672 123.30664 A 111.52264 90.738217 45 0 0 370.44531 122.68555 A 111.52264 90.738217 45 0 0 369.75 122.07031 A 111.52264 90.738217 45 0 0 369.05078 121.45898 A 111.52264 90.738217 45 0 0 368.34766 120.85156 A 111.52264 90.738217 45 0 0 367.64062 120.25 A 111.52264 90.738217 45 0 0 366.92773 119.65234 A 111.52264 90.738217 45 0 0 366.21289 119.0625 A 111.52264 90.738217 45 0 0 365.49414 118.47461 A 111.52264 90.738217 45 0 0 364.77344 117.89453 A 111.52264 90.738217 45 0 0 364.04688 117.31836 A 111.52264 90.738217 45 0 0 363.31641 116.74609 A 111.52264 90.738217 45 0 0 362.58398 116.17969 A 111.52264 90.738217 45 0 0 361.8457 115.61914 A 111.52264 90.738217 45 0 0 361.10547 115.06445 A 111.52264 90.738217 45 0 0 360.36328 114.51562 A 111.52264 90.738217 45 0 0 359.61523 113.9707 A 111.52264 90.738217 45 0 0 358.86523 113.43164 A 111.52264 90.738217 45 0 0 358.11133 112.89844 A 111.52264 90.738217 45 0 0 357.35352 112.37109 A 111.52264 90.738217 45 0 0 356.59375 111.84766 A 111.52264 90.738217 45 0 0 355.83008 111.33008 A 111.52264 90.738217 45 0 0 355.06445 110.82031 A 111.52264 90.738217 45 0 0 354.29492 110.31445 A 111.52264 90.738217 45 0 0 353.52344 109.81445 A 111.52264 90.738217 45 0 0 352.74805 109.32031 A 111.52264 90.738217 45 0 0 351.9707 108.83203 A 111.52264 90.738217 45 0 0 351.18945 108.34961 A 111.52264 90.738217 45 0 0 350.40625 107.87305 A 111.52264 90.738217 45 0 0 349.62109 107.40234 A 111.52264 90.738217 45 0 0 348.83203 106.93555 A 111.52264 90.738217 45 0 0 348.04102 106.47656 A 111.52264 90.738217 45 0 0 347.24609 106.02344 A 111.52264 90.738217 45 0 0 346.44922 105.57617 A 111.52264 90.738217 45 0 0 345.65234 105.13672 A 111.52264 90.738217 45 0 0 344.84961 104.70117 A 111.52264 90.738217 45 0 0 344.04688 104.27148 A 111.52264 90.738217 45 0 0 343.24219 103.84961 A 111.52264 90.738217 45 0 0 342.43359 103.43164 A 111.52264 90.738217 45 0 0 341.625 103.02148 A 111.52264 90.738217 45 0 0 340.8125 102.61719 A 111.52264 90.738217 45 0 0 339.99805 102.21875 A 111.52264 90.738217 45 0 0 339.18164 101.82812 A 111.52264 90.738217 45 0 0 338.36523 101.44141 A 111.52264 90.738217 45 0 0 337.54492 101.0625 A 111.52264 90.738217 45 0 0 336.72461 100.68945 A 111.52264 90.738217 45 0 0 335.90039 100.32422 A 111.52264 90.738217 45 0 0 335.07617 99.962891 A 111.52264 90.738217 45 0 0 334.25 99.609375 A 111.52264 90.738217 45 0 0 333.42188 99.261719 A 111.52264 90.738217 45 0 0 332.5918 98.921875 A 111.52264 90.738217 45 0 0 331.76172 98.587891 A 111.52264 90.738217 45 0 0 330.92969 98.259766 A 111.52264 90.738217 45 0 0 330.0957 97.9375 A 111.52264 90.738217 45 0 0 329.25977 97.623047 A 111.52264 90.738217 45 0 0 328.42383 97.314453 A 111.52264 90.738217 45 0 0 327.58789 97.013672 A 111.52264 90.738217 45 0 0 326.75 96.71875 A 111.52264 90.738217 45 0 0 325.91016 96.429688 A 111.52264 90.738217 45 0 0 325.07031 96.148438 A 111.52264 90.738217 45 0 0 324.22852 95.873047 A 111.52264 90.738217 45 0 0 323.38672 95.605469 A 111.52264 90.738217 45 0 0 322.54297 95.34375 A 111.52264 90.738217 45 0 0 321.69922 95.087891 A 111.52264 90.738217 45 0 0 320.85547 94.839844 A 111.52264 90.738217 45 0 0 320.01172 94.599609 A 111.52264 90.738217 45 0 0 319.16602 94.365234 A 111.52264 90.738217 45 0 0 318.32031 94.136719 A 111.52264 90.738217 45 0 0 317.47266 93.916016 A 111.52264 90.738217 45 0 0 316.62695 93.701172 A 111.52264 90.738217 45 0 0 315.7793 93.494141 A 111.52264 90.738217 45 0 0 314.93164 93.294922 A 111.52264 90.738217 45 0 0 314.08398 93.101562 A 111.52264 90.738217 45 0 0 313.23633 92.914062 A 111.52264 90.738217 45 0 0 312.38867 92.734375 A 111.52264 90.738217 45 0 0 311.54102 92.5625 A 111.52264 90.738217 45 0 0 310.69336 92.396484 A 111.52264 90.738217 45 0 0 309.8457 92.238281 A 111.52264 90.738217 45 0 0 308.99805 92.085938 A 111.52264 90.738217 45 0 0 308.15039 91.939453 A 111.52264 90.738217 45 0 0 307.30273 91.802734 A 111.52264 90.738217 45 0 0 306.45703 91.671875 A 111.52264 90.738217 45 0 0 305.60938 91.546875 A 111.52264 90.738217 45 0 0 304.76367 91.429688 A 111.52264 90.738217 45 0 0 303.91797 91.320312 A 111.52264 90.738217 45 0 0 303.07422 91.216797 A 111.52264 90.738217 45 0 0 302.22852 91.121094 A 111.52264 90.738217 45 0 0 301.38477 91.033203 A 111.52264 90.738217 45 0 0 300.54297 90.951172 A 111.52264 90.738217 45 0 0 299.70117 90.875 A 111.52264 90.738217 45 0 0 298.85938 90.808594 A 111.52264 90.738217 45 0 0 298.01953 90.746094 A 111.52264 90.738217 45 0 0 297.17969 90.693359 A 111.52264 90.738217 45 0 0 296.3418 90.646484 A 111.52264 90.738217 45 0 0 295.50391 90.607422 A 111.52264 90.738217 45 0 0 294.66797 90.574219 A 111.52264 90.738217 45 0 0 293.83203 90.548828 A 111.52264 90.738217 45 0 0 292.99805 90.53125 A 111.52264 90.738217 45 0 0 292.16602 90.519531 A 111.52264 90.738217 45 0 0 291.33594 90.515625 z "
         transform="matrix(0.20974962,-0.18708867,0.20974962,0.18708867,-61.204208,58.154033)" />
      <path
         id="path886"
         style="fill:#333333;fill-rule:evenodd;stroke-width:1.43069"
         d="M 285.55859 65.099609 A 139.40329 113.42277 45 0 0 213.35156 93.605469 A 139.40329 113.42277 45 0 0 231.72266 272.37891 A 139.40329 113.42277 45 0 0 410.49609 290.75 A 139.40329 113.42277 45 0 0 392.12695 111.97656 A 139.40329 113.42277 45 0 0 285.55859 65.099609 z M 291.33594 90.515625 A 111.52264 90.738217 45 0 1 292.16602 90.519531 A 111.52264 90.738217 45 0 1 292.99805 90.53125 A 111.52264 90.738217 45 0 1 293.83203 90.548828 A 111.52264 90.738217 45 0 1 294.66797 90.574219 A 111.52264 90.738217 45 0 1 295.50391 90.607422 A 111.52264 90.738217 45 0 1 296.3418 90.646484 A 111.52264 90.738217 45 0 1 297.17969 90.693359 A 111.52264 90.738217 45 0 1 298.01953 90.746094 A 111.52264 90.738217 45 0 1 298.85938 90.808594 A 111.52264 90.738217 45 0 1 299.70117 90.875 A 111.52264 90.738217 45 0 1 300.54297 90.951172 A 111.52264 90.738217 45 0 1 301.38477 91.033203 A 111.52264 90.738217 45 0 1 302.22852 91.121094 A 111.52264 90.738217 45 0 1 303.07422 91.216797 A 111.52264 90.738217 45 0 1 303.91797 91.320312 A 111.52264 90.738217 45 0 1 304.76367 91.429688 A 111.52264 90.738217 45 0 1 305.60938 91.546875 A 111.52264 90.738217 45 0 1 306.45703 91.671875 A 111.52264 90.738217 45 0 1 307.30273 91.802734 A 111.52264 90.738217 45 0 1 308.15039 91.939453 A 111.52264 90.738217 45 0 1 308.99805 92.085938 A 111.52264 90.738217 45 0 1 309.8457 92.238281 A 111.52264 90.738217 45 0 1 310.69336 92.396484 A 111.52264 90.738217 45 0 1 311.54102 92.5625 A 111.52264 90.738217 45 0 1 312.38867 92.734375 A 111.52264 90.738217 45 0 1 313.23633 92.914062 A 111.52264 90.738217 45 0 1 314.08398 93.101562 A 111.52264 90.738217 45 0 1 314.93164 93.294922 A 111.52264 90.738217 45 0 1 315.7793 93.494141 A 111.52264 90.738217 45 0 1 316.62695 93.701172 A 111.52264 90.738217 45 0 1 317.47266 93.916016 A 111.52264 90.738217 45 0 1 318.32031 94.136719 A 111.52264 90.738217 45 0 1 319.16602 94.365234 A 111.52264 90.738217 45 0 1 320.01172 94.599609 A 111.52264 90.738217 45 0 1 320.85547 94.839844 A 111.52264 90.738217 45 0 1 321.69922 95.087891 A 111.52264 90.738217 45 0 1 322.54297 95.34375 A 111.52264 90.738217 45 0 1 323.38672 95.605469 A 111.52264 90.738217 45 0 1 324.22852 95.873047 A 111.52264 90.738217 45 0 1 325.07031 96.148438 A 111.52264 90.738217 45 0 1 325.91016 96.429688 A 111.52264 90.738217 45 0 1 326.75 96.71875 A 111.52264 90.738217 45 0 1 327.58789 97.013672 A 111.52264 90.738217 45 0 1 328.42383 97.314453 A 111.52264 90.738217 45 0 1 329.25977 97.623047 A 111.52264 90.738217 45 0 1 330.0957 97.9375 A 111.52264 90.738217 45 0 1 330.92969 98.259766 A 111.52264 90.738217 45 0 1 331.76172 98.587891 A 111.52264 90.738217 45 0 1 332.5918 98.921875 A 111.52264 90.738217 45 0 1 333.42188 99.261719 A 111.52264 90.738217 45 0 1 334.25 99.609375 A 111.52264 90.738217 45 0 1 335.07617 99.962891 A 111.52264 90.738217 45 0 1 335.90039 100.32422 A 111.52264 90.738217 45 0 1 336.72461 100.68945 A 111.52264 90.738217 45 0 1 337.54492 101.0625 A 111.52264 90.738217 45 0 1 338.36523 101.44141 A 111.52264 90.738217 45 0 1 339.18164 101.82812 A 111.52264 90.738217 45 0 1 339.99805 102.21875 A 111.52264 90.738217 45 0 1 340.8125 102.61719 A 111.52264 90.738217 45 0 1 341.625 103.02148 A 111.52264 90.738217 45 0 1 342.43359 103.43164 A 111.52264 90.738217 45 0 1 343.24219 103.84961 A 111.52264 90.738217 45 0 1 344.04688 104.27148 A 111.52264 90.738217 45 0 1 344.84961 104.70117 A 111.52264 90.738217 45 0 1 345.65234 105.13672 A 111.52264 90.738217 45 0 1 346.44922 105.57617 A 111.52264 90.738217 45 0 1 347.24609 106.02344 A 111.52264 90.738217 45 0 1 348.04102 106.47656 A 111.52264 90.738217 45 0 1 348.83203 106.93555 A 111.52264 90.738217 45 0 1 349.62109 107.40234 A 111.52264 90.738217 45 0 1 350.40625 107.87305 A 111.52264 90.738217 45 0 1 351.18945 108.34961 A 111.52264 90.738217 45 0 1 351.9707 108.83203 A 111.52264 90.738217 45 0 1 352.74805 109.32031 A 111.52264 90.738217 45 0 1 353.52344 109.81445 A 111.52264 90.738217 45 0 1 354.29492 110.31445 A 111.52264 90.738217 45 0 1 355.06445 110.82031 A 111.52264 90.738217 45 0 1 355.83008 111.33008 A 111.52264 90.738217 45 0 1 356.59375 111.84766 A 111.52264 90.738217 45 0 1 357.35352 112.37109 A 111.52264 90.738217 45 0 1 358.11133 112.89844 A 111.52264 90.738217 45 0 1 358.86523 113.43164 A 111.52264 90.738217 45 0 1 359.61523 113.9707 A 111.52264 90.738217 45 0 1 360.36328 114.51562 A 111.52264 90.738217 45 0 1 361.10547 115.06445 A 111.52264 90.738217 45 0 1 361.8457 115.61914 A 111.52264 90.738217 45 0 1 362.58398 116.17969 A 111.52264 90.738217 45 0 1 363.31641 116.74609 A 111.52264 90.738217 45 0 1 364.04688 117.31836 A 111.52264 90.738217 45 0 1 364.77344 117.89453 A 111.52264 90.738217 45 0 1 365.49414 118.47461 A 111.52264 90.738217 45 0 1 366.21289 119.0625 A 111.52264 90.738217 45 0 1 366.92773 119.65234 A 111.52264 90.738217 45 0 1 367.64062 120.25 A 111.52264 90.738217 45 0 1 368.34766 120.85156 A 111.52264 90.738217 45 0 1 369.05078 121.45898 A 111.52264 90.738217 45 0 1 369.75 122.07031 A 111.52264 90.738217 45 0 1 370.44531 122.68555 A 111.52264 90.738217 45 0 1 371.13672 123.30664 A 111.52264 90.738217 45 0 1 371.82422 123.93359 A 111.52264 90.738217 45 0 1 372.50586 124.56445 A 111.52264 90.738217 45 0 1 373.18555 125.19922 A 111.52264 90.738217 45 0 1 373.85938 125.83984 A 111.52264 90.738217 45 0 1 374.5293 126.48438 A 111.52264 90.738217 45 0 1 375.19531 127.13477 A 111.52264 90.738217 45 0 1 375.85742 127.78711 A 111.52264 90.738217 45 0 1 376.08594 128.01562 A 111.52264 90.738217 45 0 1 376.74023 128.67578 A 111.52264 90.738217 45 0 1 377.39258 129.33984 A 111.52264 90.738217 45 0 1 378.03906 130.00977 A 111.52264 90.738217 45 0 1 378.67969 130.68164 A 111.52264 90.738217 45 0 1 379.31641 131.35938 A 111.52264 90.738217 45 0 1 379.94922 132.04102 A 111.52264 90.738217 45 0 1 380.57812 132.72656 A 111.52264 90.738217 45 0 1 381.20117 133.41602 A 111.52264 90.738217 45 0 1 381.81836 134.10938 A 111.52264 90.738217 45 0 1 382.43164 134.80859 A 111.52264 90.738217 45 0 1 383.03906 135.50977 A 111.52264 90.738217 45 0 1 383.64258 136.2168 A 111.52264 90.738217 45 0 1 384.24219 136.92578 A 111.52264 90.738217 45 0 1 384.83594 137.63867 A 111.52264 90.738217 45 0 1 385.42383 138.35742 A 111.52264 90.738217 45 0 1 386.00586 139.07812 A 111.52264 90.738217 45 0 1 386.58398 139.80273 A 111.52264 90.738217 45 0 1 387.1582 140.53125 A 111.52264 90.738217 45 0 1 387.72461 141.26367 A 111.52264 90.738217 45 0 1 388.28711 142 A 111.52264 90.738217 45 0 1 388.84375 142.73828 A 111.52264 90.738217 45 0 1 389.39648 143.48047 A 111.52264 90.738217 45 0 1 389.94336 144.22656 A 111.52264 90.738217 45 0 1 390.48438 144.97656 A 111.52264 90.738217 45 0 1 391.01953 145.72852 A 111.52264 90.738217 45 0 1 391.54883 146.48438 A 111.52264 90.738217 45 0 1 392.07422 147.24414 A 111.52264 90.738217 45 0 1 392.5918 148.00586 A 111.52264 90.738217 45 0 1 393.10547 148.77148 A 111.52264 90.738217 45 0 1 393.61328 149.53906 A 111.52264 90.738217 45 0 1 394.11523 150.31055 A 111.52264 90.738217 45 0 1 394.61133 151.08398 A 111.52264 90.738217 45 0 1 395.10156 151.86133 A 111.52264 90.738217 45 0 1 395.58594 152.64062 A 111.52264 90.738217 45 0 1 396.06445 153.42383 A 111.52264 90.738217 45 0 1 396.53711 154.20898 A 111.52264 90.738217 45 0 1 397.00391 154.99609 A 111.52264 90.738217 45 0 1 397.46484 155.78711 A 111.52264 90.738217 45 0 1 397.91992 156.58008 A 111.52264 90.738217 45 0 1 398.36914 157.375 A 111.52264 90.738217 45 0 1 398.8125 158.17188 A 111.52264 90.738217 45 0 1 399.25 158.97266 A 111.52264 90.738217 45 0 1 399.68164 159.77539 A 111.52264 90.738217 45 0 1 400.10547 160.58008 A 111.52264 90.738217 45 0 1 400.52539 161.38672 A 111.52264 90.738217 45 0 1 400.9375 162.19531 A 111.52264 90.738217 45 0 1 401.34375 163.00781 A 111.52264 90.738217 45 0 1 401.74414 163.82031 A 111.52264 90.738217 45 0 1 402.13867 164.63672 A 111.52264 90.738217 45 0 1 402.52734 165.45312 A 111.52264 90.738217 45 0 1 402.9082 166.27148 A 111.52264 90.738217 45 0 1 403.2832 167.0918 A 111.52264 90.738217 45 0 1 403.65234 167.91602 A 111.52264 90.738217 45 0 1 404.01367 168.74023 A 111.52264 90.738217 45 0 1 404.36914 169.56445 A 111.52264 90.738217 45 0 1 404.71875 170.39258 A 111.52264 90.738217 45 0 1 405.0625 171.2207 A 111.52264 90.738217 45 0 1 405.39844 172.05273 A 111.52264 90.738217 45 0 1 405.72852 172.88281 A 111.52264 90.738217 45 0 1 406.05273 173.7168 A 111.52264 90.738217 45 0 1 406.36914 174.55078 A 111.52264 90.738217 45 0 1 406.67969 175.38672 A 111.52264 90.738217 45 0 1 406.98438 176.22266 A 111.52264 90.738217 45 0 1 407.28125 177.06055 A 111.52264 90.738217 45 0 1 407.57227 177.90039 A 111.52264 90.738217 45 0 1 407.85547 178.74023 A 111.52264 90.738217 45 0 1 408.13281 179.58203 A 111.52264 90.738217 45 0 1 408.4043 180.42383 A 111.52264 90.738217 45 0 1 408.66797 181.26562 A 111.52264 90.738217 45 0 1 408.92578 182.10938 A 111.52264 90.738217 45 0 1 409.17578 182.95312 A 111.52264 90.738217 45 0 1 409.41992 183.79688 A 111.52264 90.738217 45 0 1 409.65625 184.64258 A 111.52264 90.738217 45 0 1 409.88672 185.48828 A 111.52264 90.738217 45 0 1 410.10938 186.33398 A 111.52264 90.738217 45 0 1 410.32617 187.18164 A 111.52264 90.738217 45 0 1 410.53516 188.0293 A 111.52264 90.738217 45 0 1 410.73828 188.875 A 111.52264 90.738217 45 0 1 410.93359 189.72266 A 111.52264 90.738217 45 0 1 411.12305 190.57031 A 111.52264 90.738217 45 0 1 411.30469 191.41797 A 111.52264 90.738217 45 0 1 411.48047 192.26758 A 111.52264 90.738217 45 0 1 411.64844 193.11523 A 111.52264 90.738217 45 0 1 411.81055 193.96289 A 111.52264 90.738217 45 0 1 411.96484 194.81055 A 111.52264 90.738217 45 0 1 412.11133 195.6582 A 111.52264 90.738217 45 0 1 412.25195 196.50391 A 111.52264 90.738217 45 0 1 412.38477 197.35156 A 111.52264 90.738217 45 0 1 412.51172 198.19727 A 111.52264 90.738217 45 0 1 412.63086 199.04492 A 111.52264 90.738217 45 0 1 412.74414 199.89062 A 111.52264 90.738217 45 0 1 412.84961 200.73438 A 111.52264 90.738217 45 0 1 412.94727 201.58008 A 111.52264 90.738217 45 0 1 413.03906 202.42383 A 111.52264 90.738217 45 0 1 413.12305 203.26758 A 111.52264 90.738217 45 0 1 413.20117 204.10938 A 111.52264 90.738217 45 0 1 413.27148 204.95117 A 111.52264 90.738217 45 0 1 413.33398 205.79102 A 111.52264 90.738217 45 0 1 413.39062 206.63086 A 111.52264 90.738217 45 0 1 413.43945 207.4707 A 111.52264 90.738217 45 0 1 413.48242 208.30664 A 111.52264 90.738217 45 0 1 413.51758 209.14453 A 111.52264 90.738217 45 0 1 413.54492 209.97852 A 111.52264 90.738217 45 0 1 413.56641 210.81445 A 111.52264 90.738217 45 0 1 413.58008 211.64648 A 111.52264 90.738217 45 0 1 413.58594 212.47852 A 111.52264 90.738217 45 0 1 413.58594 213.30859 A 111.52264 90.738217 45 0 1 413.57812 214.13672 A 111.52264 90.738217 45 0 1 413.56445 214.96289 A 111.52264 90.738217 45 0 1 413.54297 215.78906 A 111.52264 90.738217 45 0 1 413.51367 216.61328 A 111.52264 90.738217 45 0 1 413.47852 217.43555 A 111.52264 90.738217 45 0 1 413.43555 218.25586 A 111.52264 90.738217 45 0 1 413.38477 219.07422 A 111.52264 90.738217 45 0 1 413.32812 219.89062 A 111.52264 90.738217 45 0 1 413.26562 220.70508 A 111.52264 90.738217 45 0 1 413.19336 221.51758 A 111.52264 90.738217 45 0 1 413.11523 222.32812 A 111.52264 90.738217 45 0 1 413.03125 223.13867 A 111.52264 90.738217 45 0 1 412.93945 223.94336 A 111.52264 90.738217 45 0 1 412.83984 224.74805 A 111.52264 90.738217 45 0 1 412.73438 225.55078 A 111.52264 90.738217 45 0 1 412.62109 226.34961 A 111.52264 90.738217 45 0 1 412.5 227.14844 A 111.52264 90.738217 45 0 1 412.37305 227.94336 A 111.52264 90.738217 45 0 1 412.23828 228.73438 A 111.52264 90.738217 45 0 1 412.09766 229.52539 A 111.52264 90.738217 45 0 1 411.94922 230.3125 A 111.52264 90.738217 45 0 1 411.79492 231.0957 A 111.52264 90.738217 45 0 1 411.63281 231.87891 A 111.52264 90.738217 45 0 1 411.46289 232.6582 A 111.52264 90.738217 45 0 1 411.28711 233.43359 A 111.52264 90.738217 45 0 1 411.10547 234.20703 A 111.52264 90.738217 45 0 1 410.91602 234.97852 A 111.52264 90.738217 45 0 1 410.71875 235.74609 A 111.52264 90.738217 45 0 1 410.51562 236.50977 A 111.52264 90.738217 45 0 1 410.30469 237.27148 A 111.52264 90.738217 45 0 1 410.08789 238.0293 A 111.52264 90.738217 45 0 1 409.86523 238.78516 A 111.52264 90.738217 45 0 1 409.63281 239.53711 A 111.52264 90.738217 45 0 1 409.39648 240.28516 A 111.52264 90.738217 45 0 1 409.15234 241.03125 A 111.52264 90.738217 45 0 1 408.90039 241.77344 A 111.52264 90.738217 45 0 1 408.64258 242.51172 A 111.52264 90.738217 45 0 1 408.37891 243.24609 A 111.52264 90.738217 45 0 1 408.10742 243.97656 A 111.52264 90.738217 45 0 1 407.83008 244.70508 A 111.52264 90.738217 45 0 1 407.54492 245.42969 A 111.52264 90.738217 45 0 1 407.25391 246.14844 A 111.52264 90.738217 45 0 1 406.95508 246.86523 A 111.52264 90.738217 45 0 1 406.65039 247.57812 A 111.52264 90.738217 45 0 1 406.33984 248.28711 A 111.52264 90.738217 45 0 1 406.02148 248.99219 A 111.52264 90.738217 45 0 1 405.69727 249.69336 A 111.52264 90.738217 45 0 1 405.36719 250.39062 A 111.52264 90.738217 45 0 1 405.0293 251.08398 A 111.52264 90.738217 45 0 1 404.68555 251.77344 A 111.52264 90.738217 45 0 1 404.33594 252.45703 A 111.52264 90.738217 45 0 1 403.98047 253.13867 A 111.52264 90.738217 45 0 1 403.61719 253.81445 A 111.52264 90.738217 45 0 1 403.24805 254.48633 A 111.52264 90.738217 45 0 1 402.87109 255.1543 A 111.52264 90.738217 45 0 1 402.49023 255.81836 A 111.52264 90.738217 45 0 1 402.10156 256.47656 A 111.52264 90.738217 45 0 1 401.70703 257.13086 A 111.52264 90.738217 45 0 1 401.30469 257.78125 A 111.52264 90.738217 45 0 1 400.89844 258.42773 A 111.52264 90.738217 45 0 1 400.48438 259.06836 A 111.52264 90.738217 45 0 1 400.06641 259.70312 A 111.52264 90.738217 45 0 1 399.64062 260.33594 A 111.52264 90.738217 45 0 1 399.20898 260.96289 A 111.52264 90.738217 45 0 1 398.77148 261.58398 A 111.52264 90.738217 45 0 1 398.32812 262.20117 A 111.52264 90.738217 45 0 1 397.87695 262.8125 A 111.52264 90.738217 45 0 1 397.42188 263.41992 A 111.52264 90.738217 45 0 1 396.95898 264.02344 A 111.52264 90.738217 45 0 1 396.49219 264.62109 A 111.52264 90.738217 45 0 1 396.01953 265.21289 A 111.52264 90.738217 45 0 1 395.53906 265.80078 A 111.52264 90.738217 45 0 1 395.05469 266.38281 A 111.52264 90.738217 45 0 1 394.5625 266.95898 A 111.52264 90.738217 45 0 1 394.06641 267.53125 A 111.52264 90.738217 45 0 1 393.56445 268.09766 A 111.52264 90.738217 45 0 1 393.05664 268.6582 A 111.52264 90.738217 45 0 1 392.54297 269.21484 A 111.52264 90.738217 45 0 1 392.02344 269.76562 A 111.52264 90.738217 45 0 1 391.49805 270.31055 A 111.52264 90.738217 45 0 1 390.9668 270.84961 A 111.52264 90.738217 45 0 1 390.7832 271.03516 A 111.52264 90.738217 45 0 1 390.24414 271.56836 A 111.52264 90.738217 45 0 1 389.70117 272.0957 A 111.52264 90.738217 45 0 1 389.15234 272.61719 A 111.52264 90.738217 45 0 1 388.59766 273.13281 A 111.52264 90.738217 45 0 1 388.03906 273.64258 A 111.52264 90.738217 45 0 1 387.47461 274.14648 A 111.52264 90.738217 45 0 1 386.9043 274.64453 A 111.52264 90.738217 45 0 1 386.33008 275.13867 A 111.52264 90.738217 45 0 1 385.74805 275.625 A 111.52264 90.738217 45 0 1 385.16406 276.10742 A 111.52264 90.738217 45 0 1 384.57227 276.58203 A 111.52264 90.738217 45 0 1 383.97656 277.05273 A 111.52264 90.738217 45 0 1 383.37695 277.51562 A 111.52264 90.738217 45 0 1 382.77148 277.97266 A 111.52264 90.738217 45 0 1 382.16016 278.42578 A 111.52264 90.738217 45 0 1 381.54492 278.87109 A 111.52264 90.738217 45 0 1 380.92578 279.31055 A 111.52264 90.738217 45 0 1 380.30078 279.74414 A 111.52264 90.738217 45 0 1 379.66992 280.17188 A 111.52264 90.738217 45 0 1 379.03516 280.59375 A 111.52264 90.738217 45 0 1 378.39648 281.00977 A 111.52264 90.738217 45 0 1 377.75195 281.41797 A 111.52264 90.738217 45 0 1 377.10352 281.82227 A 111.52264 90.738217 45 0 1 376.45117 282.21875 A 111.52264 90.738217 45 0 1 375.79297 282.60938 A 111.52264 90.738217 45 0 1 375.13281 282.99414 A 111.52264 90.738217 45 0 1 374.46484 283.37109 A 111.52264 90.738217 45 0 1 373.79492 283.74219 A 111.52264 90.738217 45 0 1 373.11914 284.10742 A 111.52264 90.738217 45 0 1 372.44141 284.4668 A 111.52264 90.738217 45 0 1 371.75781 284.81836 A 111.52264 90.738217 45 0 1 371.07031 285.16602 A 111.52264 90.738217 45 0 1 370.37891 285.50391 A 111.52264 90.738217 45 0 1 369.68359 285.83789 A 111.52264 90.738217 45 0 1 368.98242 286.16406 A 111.52264 90.738217 45 0 1 368.2793 286.48438 A 111.52264 90.738217 45 0 1 367.57227 286.79688 A 111.52264 90.738217 45 0 1 366.85938 287.10352 A 111.52264 90.738217 45 0 1 366.14453 287.4043 A 111.52264 90.738217 45 0 1 365.42578 287.69727 A 111.52264 90.738217 45 0 1 364.70312 287.98438 A 111.52264 90.738217 45 0 1 363.97656 288.26562 A 111.52264 90.738217 45 0 1 363.24609 288.53906 A 111.52264 90.738217 45 0 1 362.51172 288.80469 A 111.52264 90.738217 45 0 1 361.77539 289.06641 A 111.52264 90.738217 45 0 1 361.03516 289.31836 A 111.52264 90.738217 45 0 1 360.29102 289.56641 A 111.52264 90.738217 45 0 1 359.54297 289.80664 A 111.52264 90.738217 45 0 1 358.79297 290.03906 A 111.52264 90.738217 45 0 1 358.03906 290.26562 A 111.52264 90.738217 45 0 1 357.28125 290.48438 A 111.52264 90.738217 45 0 1 356.52148 290.69727 A 111.52264 90.738217 45 0 1 355.75781 290.90234 A 111.52264 90.738217 45 0 1 354.99023 291.10156 A 111.52264 90.738217 45 0 1 354.2207 291.29297 A 111.52264 90.738217 45 0 1 353.44922 291.47852 A 111.52264 90.738217 45 0 1 352.67383 291.6582 A 111.52264 90.738217 45 0 1 351.89648 291.82812 A 111.52264 90.738217 45 0 1 351.11523 291.99219 A 111.52264 90.738217 45 0 1 350.33008 292.15039 A 111.52264 90.738217 45 0 1 349.54492 292.30078 A 111.52264 90.738217 45 0 1 348.75586 292.44531 A 111.52264 90.738217 45 0 1 347.96484 292.58008 A 111.52264 90.738217 45 0 1 347.16992 292.71094 A 111.52264 90.738217 45 0 1 346.37305 292.83398 A 111.52264 90.738217 45 0 1 345.57422 292.94922 A 111.52264 90.738217 45 0 1 344.77344 293.05664 A 111.52264 90.738217 45 0 1 343.9707 293.1582 A 111.52264 90.738217 45 0 1 343.16406 293.25391 A 111.52264 90.738217 45 0 1 342.35547 293.33984 A 111.52264 90.738217 45 0 1 341.54688 293.42188 A 111.52264 90.738217 45 0 1 340.73438 293.49414 A 111.52264 90.738217 45 0 1 339.91992 293.56055 A 111.52264 90.738217 45 0 1 339.10352 293.62109 A 111.52264 90.738217 45 0 1 338.28516 293.67188 A 111.52264 90.738217 45 0 1 337.4668 293.71875 A 111.52264 90.738217 45 0 1 336.64453 293.75586 A 111.52264 90.738217 45 0 1 335.82227 293.78711 A 111.52264 90.738217 45 0 1 334.99609 293.81055 A 111.52264 90.738217 45 0 1 334.16992 293.82812 A 111.52264 90.738217 45 0 1 333.3418 293.83789 A 111.52264 90.738217 45 0 1 332.51172 293.83984 A 111.52264 90.738217 45 0 1 331.68164 293.83594 A 111.52264 90.738217 45 0 1 330.84961 293.82422 A 111.52264 90.738217 45 0 1 330.01562 293.80664 A 111.52264 90.738217 45 0 1 329.17969 293.78125 A 111.52264 90.738217 45 0 1 328.34375 293.74805 A 111.52264 90.738217 45 0 1 327.50781 293.70898 A 111.52264 90.738217 45 0 1 326.66797 293.66211 A 111.52264 90.738217 45 0 1 325.83008 293.60938 A 111.52264 90.738217 45 0 1 324.98828 293.54688 A 111.52264 90.738217 45 0 1 324.14844 293.48047 A 111.52264 90.738217 45 0 1 323.30469 293.4043 A 111.52264 90.738217 45 0 1 322.46289 293.32227 A 111.52264 90.738217 45 0 1 321.61914 293.23438 A 111.52264 90.738217 45 0 1 320.77539 293.13867 A 111.52264 90.738217 45 0 1 319.92969 293.03516 A 111.52264 90.738217 45 0 1 319.08398 292.92578 A 111.52264 90.738217 45 0 1 318.23828 292.80859 A 111.52264 90.738217 45 0 1 317.39258 292.68359 A 111.52264 90.738217 45 0 1 316.54492 292.55273 A 111.52264 90.738217 45 0 1 315.69727 292.41406 A 111.52264 90.738217 45 0 1 314.84961 292.26953 A 111.52264 90.738217 45 0 1 314.00195 292.11719 A 111.52264 90.738217 45 0 1 313.1543 291.95898 A 111.52264 90.738217 45 0 1 312.30664 291.79297 A 111.52264 90.738217 45 0 1 311.45898 291.62109 A 111.52264 90.738217 45 0 1 310.61133 291.44141 A 111.52264 90.738217 45 0 1 309.76367 291.25391 A 111.52264 90.738217 45 0 1 308.91602 291.06055 A 111.52264 90.738217 45 0 1 308.06836 290.86133 A 111.52264 90.738217 45 0 1 307.22266 290.65234 A 111.52264 90.738217 45 0 1 306.375 290.43945 A 111.52264 90.738217 45 0 1 305.5293 290.21875 A 111.52264 90.738217 45 0 1 304.68164 289.99023 A 111.52264 90.738217 45 0 1 303.83789 289.75586 A 111.52264 90.738217 45 0 1 302.99219 289.51367 A 111.52264 90.738217 45 0 1 302.14844 289.26562 A 111.52264 90.738217 45 0 1 301.30469 289.01172 A 111.52264 90.738217 45 0 1 300.46094 288.75 A 111.52264 90.738217 45 0 1 299.61914 288.48242 A 111.52264 90.738217 45 0 1 298.7793 288.20703 A 111.52264 90.738217 45 0 1 297.9375 287.92578 A 111.52264 90.738217 45 0 1 297.09961 287.63672 A 111.52264 90.738217 45 0 1 296.25977 287.3418 A 111.52264 90.738217 45 0 1 295.42383 287.04102 A 111.52264 90.738217 45 0 1 294.58789 286.73242 A 111.52264 90.738217 45 0 1 293.75195 286.41797 A 111.52264 90.738217 45 0 1 292.91797 286.0957 A 111.52264 90.738217 45 0 1 292.08594 285.76758 A 111.52264 90.738217 45 0 1 291.25586 285.43359 A 111.52264 90.738217 45 0 1 290.42578 285.09375 A 111.52264 90.738217 45 0 1 289.59766 284.74609 A 111.52264 90.738217 45 0 1 288.77148 284.39258 A 111.52264 90.738217 45 0 1 287.94727 284.03125 A 111.52264 90.738217 45 0 1 287.125 283.66602 A 111.52264 90.738217 45 0 1 286.30273 283.29297 A 111.52264 90.738217 45 0 1 285.48242 282.91406 A 111.52264 90.738217 45 0 1 284.66602 282.52734 A 111.52264 90.738217 45 0 1 283.84961 282.13672 A 111.52264 90.738217 45 0 1 283.03516 281.73828 A 111.52264 90.738217 45 0 1 282.22461 281.33398 A 111.52264 90.738217 45 0 1 281.41406 280.92188 A 111.52264 90.738217 45 0 1 280.60547 280.50586 A 111.52264 90.738217 45 0 1 279.80078 280.08398 A 111.52264 90.738217 45 0 1 278.99805 279.6543 A 111.52264 90.738217 45 0 1 278.19727 279.21875 A 111.52264 90.738217 45 0 1 277.39844 278.77734 A 111.52264 90.738217 45 0 1 276.60156 278.33203 A 111.52264 90.738217 45 0 1 275.80859 277.87891 A 111.52264 90.738217 45 0 1 275.01562 277.41797 A 111.52264 90.738217 45 0 1 274.22852 276.95312 A 111.52264 90.738217 45 0 1 273.44141 276.48242 A 111.52264 90.738217 45 0 1 272.6582 276.00586 A 111.52264 90.738217 45 0 1 271.87695 275.52344 A 111.52264 90.738217 45 0 1 271.09961 275.03516 A 111.52264 90.738217 45 0 1 270.32422 274.54102 A 111.52264 90.738217 45 0 1 269.55273 274.04102 A 111.52264 90.738217 45 0 1 268.7832 273.53516 A 111.52264 90.738217 45 0 1 268.01758 273.02539 A 111.52264 90.738217 45 0 1 267.25391 272.50781 A 111.52264 90.738217 45 0 1 266.49414 271.98438 A 111.52264 90.738217 45 0 1 265.73633 271.45703 A 111.52264 90.738217 45 0 1 264.98242 270.92383 A 111.52264 90.738217 45 0 1 264.23242 270.38477 A 111.52264 90.738217 45 0 1 263.48633 269.83984 A 111.52264 90.738217 45 0 1 262.74219 269.29102 A 111.52264 90.738217 45 0 1 262.00195 268.73438 A 111.52264 90.738217 45 0 1 261.26367 268.17383 A 111.52264 90.738217 45 0 1 260.53125 267.60938 A 111.52264 90.738217 45 0 1 259.80078 267.03711 A 111.52264 90.738217 45 0 1 259.07617 266.46094 A 111.52264 90.738217 45 0 1 258.35352 265.88086 A 111.52264 90.738217 45 0 1 257.63477 265.29297 A 111.52264 90.738217 45 0 1 256.91992 264.70117 A 111.52264 90.738217 45 0 1 256.20898 264.10547 A 111.52264 90.738217 45 0 1 255.5 263.50391 A 111.52264 90.738217 45 0 1 254.79688 262.89648 A 111.52264 90.738217 45 0 1 254.09766 262.28516 A 111.52264 90.738217 45 0 1 253.40234 261.66992 A 111.52264 90.738217 45 0 1 252.71094 261.04688 A 111.52264 90.738217 45 0 1 252.02539 260.42188 A 111.52264 90.738217 45 0 1 251.3418 259.79102 A 111.52264 90.738217 45 0 1 250.66211 259.15625 A 111.52264 90.738217 45 0 1 249.98828 258.51562 A 111.52264 90.738217 45 0 1 249.31836 257.87109 A 111.52264 90.738217 45 0 1 248.65234 257.2207 A 111.52264 90.738217 45 0 1 247.99023 256.56641 A 111.52264 90.738217 45 0 1 247.76172 256.33984 A 111.52264 90.738217 45 0 1 247.10742 255.67969 A 111.52264 90.738217 45 0 1 246.45508 255.01562 A 111.52264 90.738217 45 0 1 245.81055 254.3457 A 111.52264 90.738217 45 0 1 245.16797 253.67383 A 111.52264 90.738217 45 0 1 244.53125 252.99609 A 111.52264 90.738217 45 0 1 243.89844 252.31445 A 111.52264 90.738217 45 0 1 243.27148 251.62891 A 111.52264 90.738217 45 0 1 242.64844 250.93945 A 111.52264 90.738217 45 0 1 242.0293 250.24414 A 111.52264 90.738217 45 0 1 241.41602 249.54688 A 111.52264 90.738217 45 0 1 240.80859 248.8457 A 111.52264 90.738217 45 0 1 240.20508 248.13867 A 111.52264 90.738217 45 0 1 239.60547 247.42969 A 111.52264 90.738217 45 0 1 239.01367 246.7168 A 111.52264 90.738217 45 0 1 238.42383 245.99805 A 111.52264 90.738217 45 0 1 237.8418 245.27734 A 111.52264 90.738217 45 0 1 237.26367 244.55273 A 111.52264 90.738217 45 0 1 236.68945 243.82422 A 111.52264 90.738217 45 0 1 236.12305 243.0918 A 111.52264 90.738217 45 0 1 235.56055 242.35547 A 111.52264 90.738217 45 0 1 235.00391 241.61719 A 111.52264 90.738217 45 0 1 234.45117 240.875 A 111.52264 90.738217 45 0 1 233.90625 240.12891 A 111.52264 90.738217 45 0 1 233.36523 239.37891 A 111.52264 90.738217 45 0 1 232.82812 238.62695 A 111.52264 90.738217 45 0 1 232.29883 237.87109 A 111.52264 90.738217 45 0 1 231.77539 237.11133 A 111.52264 90.738217 45 0 1 231.25586 236.34961 A 111.52264 90.738217 45 0 1 230.74219 235.58398 A 111.52264 90.738217 45 0 1 230.23438 234.81641 A 111.52264 90.738217 45 0 1 229.73242 234.04492 A 111.52264 90.738217 45 0 1 229.23633 233.27148 A 111.52264 90.738217 45 0 1 228.74609 232.49414 A 111.52264 90.738217 45 0 1 228.26172 231.71484 A 111.52264 90.738217 45 0 1 227.7832 230.93164 A 111.52264 90.738217 45 0 1 227.31055 230.14648 A 111.52264 90.738217 45 0 1 226.84375 229.35938 A 111.52264 90.738217 45 0 1 226.38281 228.56836 A 111.52264 90.738217 45 0 1 225.92773 227.77539 A 111.52264 90.738217 45 0 1 225.47852 226.98047 A 111.52264 90.738217 45 0 1 225.03516 226.18164 A 111.52264 90.738217 45 0 1 224.59766 225.38281 A 111.52264 90.738217 45 0 1 224.16602 224.58008 A 111.52264 90.738217 45 0 1 223.74219 223.77539 A 111.52264 90.738217 45 0 1 223.32227 222.96875 A 111.52264 90.738217 45 0 1 222.91016 222.1582 A 111.52264 90.738217 45 0 1 222.50391 221.34766 A 111.52264 90.738217 45 0 1 222.10352 220.53516 A 111.52264 90.738217 45 0 1 221.70898 219.71875 A 111.52264 90.738217 45 0 1 221.32227 218.90234 A 111.52264 90.738217 45 0 1 220.93945 218.08398 A 111.52264 90.738217 45 0 1 220.56445 217.26172 A 111.52264 90.738217 45 0 1 220.19531 216.43945 A 111.52264 90.738217 45 0 1 219.83398 215.61523 A 111.52264 90.738217 45 0 1 219.47852 214.79102 A 111.52264 90.738217 45 0 1 219.12891 213.96289 A 111.52264 90.738217 45 0 1 218.78516 213.13477 A 111.52264 90.738217 45 0 1 218.44922 212.30273 A 111.52264 90.738217 45 0 1 218.11914 211.47266 A 111.52264 90.738217 45 0 1 217.79492 210.63867 A 111.52264 90.738217 45 0 1 217.47852 209.80469 A 111.52264 90.738217 45 0 1 217.16797 208.96875 A 111.52264 90.738217 45 0 1 216.86328 208.13086 A 111.52264 90.738217 45 0 1 216.56641 207.29297 A 111.52264 90.738217 45 0 1 216.27539 206.45508 A 111.52264 90.738217 45 0 1 215.99219 205.61523 A 111.52264 90.738217 45 0 1 215.71484 204.77344 A 111.52264 90.738217 45 0 1 215.44336 203.93164 A 111.52264 90.738217 45 0 1 215.17969 203.08984 A 111.52264 90.738217 45 0 1 214.92188 202.24609 A 111.52264 90.738217 45 0 1 214.67188 201.40234 A 111.52264 90.738217 45 0 1 214.42773 200.55859 A 111.52264 90.738217 45 0 1 214.19141 199.71289 A 111.52264 90.738217 45 0 1 213.96094 198.86719 A 111.52264 90.738217 45 0 1 213.73828 198.01953 A 111.52264 90.738217 45 0 1 213.52148 197.17383 A 111.52264 90.738217 45 0 1 213.3125 196.32617 A 111.52264 90.738217 45 0 1 213.10938 195.48047 A 111.52264 90.738217 45 0 1 212.91406 194.63281 A 111.52264 90.738217 45 0 1 212.72461 193.78516 A 111.52264 90.738217 45 0 1 212.54297 192.9375 A 111.52264 90.738217 45 0 1 212.36719 192.08789 A 111.52264 90.738217 45 0 1 212.19922 191.24023 A 111.52264 90.738217 45 0 1 212.03711 190.39258 A 111.52264 90.738217 45 0 1 211.88281 189.54492 A 111.52264 90.738217 45 0 1 211.73633 188.69727 A 111.52264 90.738217 45 0 1 211.5957 187.85156 A 111.52264 90.738217 45 0 1 211.46289 187.00391 A 111.52264 90.738217 45 0 1 211.33594 186.15625 A 111.52264 90.738217 45 0 1 211.2168 185.31055 A 111.52264 90.738217 45 0 1 211.10352 184.46484 A 111.52264 90.738217 45 0 1 210.99805 183.62109 A 111.52264 90.738217 45 0 1 210.90039 182.77539 A 111.52264 90.738217 45 0 1 210.80859 181.93164 A 111.52264 90.738217 45 0 1 210.72461 181.08789 A 111.52264 90.738217 45 0 1 210.64648 180.24609 A 111.52264 90.738217 45 0 1 210.57617 179.4043 A 111.52264 90.738217 45 0 1 210.51367 178.56445 A 111.52264 90.738217 45 0 1 210.45703 177.72461 A 111.52264 90.738217 45 0 1 210.4082 176.88477 A 111.52264 90.738217 45 0 1 210.36523 176.04688 A 111.52264 90.738217 45 0 1 210.33203 175.21094 A 111.52264 90.738217 45 0 1 210.30273 174.375 A 111.52264 90.738217 45 0 1 210.2832 173.54102 A 111.52264 90.738217 45 0 1 210.26758 172.70898 A 111.52264 90.738217 45 0 1 210.26172 171.87695 A 111.52264 90.738217 45 0 1 210.26172 171.04688 A 111.52264 90.738217 45 0 1 210.26953 170.21875 A 111.52264 90.738217 45 0 1 210.2832 169.39258 A 111.52264 90.738217 45 0 1 210.30469 168.56641 A 111.52264 90.738217 45 0 1 210.33398 167.74219 A 111.52264 90.738217 45 0 1 210.36914 166.91992 A 111.52264 90.738217 45 0 1 210.41211 166.09961 A 111.52264 90.738217 45 0 1 210.46289 165.28125 A 111.52264 90.738217 45 0 1 210.51953 164.46484 A 111.52264 90.738217 45 0 1 210.58398 163.65039 A 111.52264 90.738217 45 0 1 210.6543 162.83789 A 111.52264 90.738217 45 0 1 210.73242 162.02539 A 111.52264 90.738217 45 0 1 210.81641 161.2168 A 111.52264 90.738217 45 0 1 210.91016 160.41016 A 111.52264 90.738217 45 0 1 211.00781 159.60742 A 111.52264 90.738217 45 0 1 211.11523 158.80469 A 111.52264 90.738217 45 0 1 211.22852 158.00586 A 111.52264 90.738217 45 0 1 211.34766 157.20703 A 111.52264 90.738217 45 0 1 211.47461 156.41211 A 111.52264 90.738217 45 0 1 211.60938 155.62109 A 111.52264 90.738217 45 0 1 211.75 154.83008 A 111.52264 90.738217 45 0 1 211.89844 154.04297 A 111.52264 90.738217 45 0 1 212.05273 153.25781 A 111.52264 90.738217 45 0 1 212.21484 152.47656 A 111.52264 90.738217 45 0 1 212.38477 151.69727 A 111.52264 90.738217 45 0 1 212.56055 150.92188 A 111.52264 90.738217 45 0 1 212.74219 150.14844 A 111.52264 90.738217 45 0 1 212.93164 149.37695 A 111.52264 90.738217 45 0 1 213.12891 148.60938 A 111.52264 90.738217 45 0 1 213.33203 147.8457 A 111.52264 90.738217 45 0 1 213.54297 147.08398 A 111.52264 90.738217 45 0 1 213.75977 146.32617 A 111.52264 90.738217 45 0 1 213.98438 145.57031 A 111.52264 90.738217 45 0 1 214.21484 144.81836 A 111.52264 90.738217 45 0 1 214.45117 144.07031 A 111.52264 90.738217 45 0 1 214.69531 143.32422 A 111.52264 90.738217 45 0 1 214.94727 142.58203 A 111.52264 90.738217 45 0 1 215.20508 141.84375 A 111.52264 90.738217 45 0 1 215.46875 141.10938 A 111.52264 90.738217 45 0 1 215.74023 140.37891 A 111.52264 90.738217 45 0 1 216.01953 139.65039 A 111.52264 90.738217 45 0 1 216.30273 138.92578 A 111.52264 90.738217 45 0 1 216.59375 138.20508 A 111.52264 90.738217 45 0 1 216.89258 137.49023 A 111.52264 90.738217 45 0 1 217.19727 136.77734 A 111.52264 90.738217 45 0 1 217.50781 136.06836 A 111.52264 90.738217 45 0 1 217.82617 135.36328 A 111.52264 90.738217 45 0 1 218.15039 134.66211 A 111.52264 90.738217 45 0 1 218.48047 133.96484 A 111.52264 90.738217 45 0 1 218.81836 133.27148 A 111.52264 90.738217 45 0 1 219.16211 132.58203 A 111.52264 90.738217 45 0 1 219.51172 131.89648 A 111.52264 90.738217 45 0 1 219.86914 131.2168 A 111.52264 90.738217 45 0 1 220.23047 130.54102 A 111.52264 90.738217 45 0 1 220.60156 129.86914 A 111.52264 90.738217 45 0 1 220.97656 129.20117 A 111.52264 90.738217 45 0 1 221.35938 128.53711 A 111.52264 90.738217 45 0 1 221.74609 127.87891 A 111.52264 90.738217 45 0 1 222.14062 127.22461 A 111.52264 90.738217 45 0 1 222.54297 126.57422 A 111.52264 90.738217 45 0 1 222.94922 125.92773 A 111.52264 90.738217 45 0 1 223.36328 125.28711 A 111.52264 90.738217 45 0 1 223.78125 124.65039 A 111.52264 90.738217 45 0 1 224.20703 124.01953 A 111.52264 90.738217 45 0 1 224.63867 123.39258 A 111.52264 90.738217 45 0 1 225.07617 122.77148 A 111.52264 90.738217 45 0 1 225.52148 122.1543 A 111.52264 90.738217 45 0 1 225.9707 121.54102 A 111.52264 90.738217 45 0 1 226.42578 120.93359 A 111.52264 90.738217 45 0 1 226.88867 120.33203 A 111.52264 90.738217 45 0 1 227.35547 119.73438 A 111.52264 90.738217 45 0 1 227.83008 119.14258 A 111.52264 90.738217 45 0 1 228.30859 118.55469 A 111.52264 90.738217 45 0 1 228.79297 117.97266 A 111.52264 90.738217 45 0 1 229.28516 117.39648 A 111.52264 90.738217 45 0 1 229.78125 116.82422 A 111.52264 90.738217 45 0 1 230.2832 116.25781 A 111.52264 90.738217 45 0 1 230.79102 115.69727 A 111.52264 90.738217 45 0 1 231.30469 115.14062 A 111.52264 90.738217 45 0 1 231.82422 114.58984 A 111.52264 90.738217 45 0 1 232.34961 114.04492 A 111.52264 90.738217 45 0 1 232.88086 113.50586 A 111.52264 90.738217 45 0 1 233.06641 113.31836 A 111.52264 90.738217 45 0 1 233.60352 112.78711 A 111.52264 90.738217 45 0 1 234.14648 112.25977 A 111.52264 90.738217 45 0 1 234.69531 111.73828 A 111.52264 90.738217 45 0 1 235.25 111.22266 A 111.52264 90.738217 45 0 1 235.80859 110.71289 A 111.52264 90.738217 45 0 1 236.37305 110.20898 A 111.52264 90.738217 45 0 1 236.94336 109.71094 A 111.52264 90.738217 45 0 1 237.51953 109.2168 A 111.52264 90.738217 45 0 1 238.09961 108.73047 A 111.52264 90.738217 45 0 1 238.68359 108.24805 A 111.52264 90.738217 45 0 1 239.27539 107.77344 A 111.52264 90.738217 45 0 1 239.87109 107.30273 A 111.52264 90.738217 45 0 1 240.4707 106.83984 A 111.52264 90.738217 45 0 1 241.07617 106.38086 A 111.52264 90.738217 45 0 1 241.6875 105.92969 A 111.52264 90.738217 45 0 1 242.30273 105.48438 A 111.52264 90.738217 45 0 1 242.92383 105.04492 A 111.52264 90.738217 45 0 1 243.54883 104.61133 A 111.52264 90.738217 45 0 1 244.17773 104.18359 A 111.52264 90.738217 45 0 1 244.8125 103.76172 A 111.52264 90.738217 45 0 1 245.45117 103.3457 A 111.52264 90.738217 45 0 1 246.0957 102.9375 A 111.52264 90.738217 45 0 1 246.74414 102.5332 A 111.52264 90.738217 45 0 1 247.39648 102.13672 A 111.52264 90.738217 45 0 1 248.05469 101.74609 A 111.52264 90.738217 45 0 1 248.7168 101.36133 A 111.52264 90.738217 45 0 1 249.38281 100.98438 A 111.52264 90.738217 45 0 1 250.05273 100.61328 A 111.52264 90.738217 45 0 1 250.72852 100.24805 A 111.52264 90.738217 45 0 1 251.40625 99.888672 A 111.52264 90.738217 45 0 1 252.08984 99.535156 A 111.52264 90.738217 45 0 1 252.77734 99.189453 A 111.52264 90.738217 45 0 1 253.46875 98.851562 A 111.52264 90.738217 45 0 1 254.16602 98.517578 A 111.52264 90.738217 45 0 1 254.86523 98.191406 A 111.52264 90.738217 45 0 1 255.56836 97.871094 A 111.52264 90.738217 45 0 1 256.27539 97.558594 A 111.52264 90.738217 45 0 1 256.98828 97.251953 A 111.52264 90.738217 45 0 1 257.70312 96.951172 A 111.52264 90.738217 45 0 1 258.42188 96.658203 A 111.52264 90.738217 45 0 1 259.14453 96.371094 A 111.52264 90.738217 45 0 1 259.87109 96.089844 A 111.52264 90.738217 45 0 1 260.60156 95.816406 A 111.52264 90.738217 45 0 1 261.33594 95.548828 A 111.52264 90.738217 45 0 1 262.07227 95.289062 A 111.52264 90.738217 45 0 1 262.8125 95.035156 A 111.52264 90.738217 45 0 1 263.55664 94.789062 A 111.52264 90.738217 45 0 1 264.30469 94.548828 A 111.52264 90.738217 45 0 1 265.05469 94.316406 A 111.52264 90.738217 45 0 1 265.80859 94.089844 A 111.52264 90.738217 45 0 1 266.56641 93.871094 A 111.52264 90.738217 45 0 1 267.32617 93.658203 A 111.52264 90.738217 45 0 1 268.08984 93.453125 A 111.52264 90.738217 45 0 1 268.85742 93.253906 A 111.52264 90.738217 45 0 1 269.62695 93.060547 A 111.52264 90.738217 45 0 1 270.39844 92.876953 A 111.52264 90.738217 45 0 1 271.17383 92.697266 A 111.52264 90.738217 45 0 1 271.95312 92.527344 A 111.52264 90.738217 45 0 1 272.73242 92.363281 A 111.52264 90.738217 45 0 1 273.51758 92.205078 A 111.52264 90.738217 45 0 1 274.30273 92.054688 A 111.52264 90.738217 45 0 1 275.0918 91.910156 A 111.52264 90.738217 45 0 1 275.88477 91.773438 A 111.52264 90.738217 45 0 1 276.67773 91.644531 A 111.52264 90.738217 45 0 1 277.47461 91.521484 A 111.52264 90.738217 45 0 1 278.27344 91.40625 A 111.52264 90.738217 45 0 1 279.07422 91.298828 A 111.52264 90.738217 45 0 1 279.87891 91.197266 A 111.52264 90.738217 45 0 1 280.68359 91.101562 A 111.52264 90.738217 45 0 1 281.49219 91.013672 A 111.52264 90.738217 45 0 1 282.30078 90.933594 A 111.52264 90.738217 45 0 1 283.11328 90.861328 A 111.52264 90.738217 45 0 1 283.92773 90.794922 A 111.52264 90.738217 45 0 1 284.74414 90.734375 A 111.52264 90.738217 45 0 1 285.5625 90.683594 A 111.52264 90.738217 45 0 1 286.38086 90.636719 A 111.52264 90.738217 45 0 1 287.20312 90.599609 A 111.52264 90.738217 45 0 1 288.02734 90.568359 A 111.52264 90.738217 45 0 1 288.85156 90.544922 A 111.52264 90.738217 45 0 1 289.67773 90.527344 A 111.52264 90.738217 45 0 1 290.50586 90.517578 A 111.52264 90.738217 45 0 1 291.33594 90.515625 z "
         transform="matrix(0.20974962,-0.18708867,0.20974962,0.18708867,-61.204208,58.154033)" />
      <path
         style="fill:#e6e6e6;stroke:none;stroke-width:0.280149px;stroke-linecap:butt;stroke-linejoin:miter;stroke-opacity:1"
         d="m 26.592081,21.411829 c 4.036366,-1.868935 8.072384,-3.737708 12.579603,-4.386726 4.507219,-0.649018 9.485365,-0.07851 14.463202,0.491963"
         id="path49"
         inkscape:path-effect="#path-effect51"
         inkscape:original-d="m 26.592081,21.411829 c 4.036441,-1.868774 8.072458,-3.737549 12.108059,-5.606323 4.978768,0.570531 9.956915,1.141039 14.934746,1.71156" />
    </g>
    <rect
       style="fill:#333333;stroke-width:0.223939"
       id="rect29"
       width="8.1282892"
       height="61.696148"
       x="88.712822"
       y="4.1928692"
       transform="rotate(45)"
       ry="3.0915287" />
  </g>
</svg>
