<?xml version="1.0" encoding="UTF-8" standalone="no"?>
<svg
   xmlns:dc="http://purl.org/dc/elements/1.1/"
   xmlns:cc="http://creativecommons.org/ns#"
   xmlns:rdf="http://www.w3.org/1999/02/22-rdf-syntax-ns#"
   xmlns:svg="http://www.w3.org/2000/svg"
   xmlns="http://www.w3.org/2000/svg"
   width="19"
   height="1600"
   viewBox="0 0 5.0270832 423.33334"
   version="1.1"
   id="svg8">
  <defs
     id="defs2" />
  <metadata
     id="metadata5">
    <rdf:RDF>
      <cc:Work
         rdf:about="">
        <dc:format>image/svg+xml</dc:format>
        <dc:type
           rdf:resource="http://purl.org/dc/dcmitype/StillImage" />
        <dc:title></dc:title>
      </cc:Work>
    </rdf:RDF>
  </metadata>
  <g
     id="layer6">
    <g
       transform="matrix(1,0,0,2.0042723,0,-0.11219441)"
       id="layer2"
       style="display:inline;mix-blend-mode:normal">
      <g
         id="g929"
         transform="matrix(0.3713163,0,2.9794632e-4,1.5586369,-25.091205,-74.399707)"
         style="fill:none;fill-opacity:1;stroke:none;stroke-width:0.15;stroke-miterlimit:4;stroke-dasharray:none;stroke-opacity:1">
        <path
           style="fill:none;fill-opacity:1;stroke:none;stroke-width:0.15;stroke-linecap:butt;stroke-linejoin:miter;stroke-miterlimit:4;stroke-dasharray:none;stroke-opacity:1"
           d="m 77.182741,47.805505 4.28e-4,135.512945"
           id="path837" />
        <path
           id="path839"
           d="m 80.88691,47.805505 4.25e-4,135.512945"
           style="fill:none;fill-opacity:1;stroke:none;stroke-width:0.15;stroke-linecap:butt;stroke-linejoin:miter;stroke-miterlimit:4;stroke-dasharray:none;stroke-opacity:1" />
        <path
           id="path843"
           d="M 77.182741,47.805505 H 80.88691"
           style="fill:none;fill-opacity:1;stroke:none;stroke-width:0.15;stroke-linecap:butt;stroke-linejoin:miter;stroke-miterlimit:4;stroke-dasharray:none;stroke-opacity:1" />
        <path
           id="path847"
           d="m 77.183169,183.31845 h 3.704163"
           style="fill:none;fill-opacity:1;stroke:none;stroke-width:0.15;stroke-linecap:butt;stroke-linejoin:miter;stroke-miterlimit:4;stroke-dasharray:none;stroke-opacity:1" />
      </g>
      <path
         style="fill:#803300;stroke:#803300;stroke-width:0.055877;stroke-miterlimit:4;stroke-dasharray:none;stroke-dashoffset:0;stroke-opacity:1"
         d="M 3.7381293,210.44816 C 3.7161186,209.4625 3.6874412,0.61945495 3.7093317,0.4441325 3.7216808,0.34510848 3.9847659,0.32749683 4.2939329,0.4049574 l 0.562117,0.1408683 0.023245,104.6163943 c 0.012786,57.53904 0.015931,104.8785 0.00698,105.19887 -0.020683,0.73934 -1.1316769,0.82364 -1.1481555,0.0872 z"
         id="path1042" />
    </g>
  </g>
  <g
     id="layer5">
    <g
       id="layer3"
       style="display:inline;opacity:1;mix-blend-mode:normal">
      <path
         style="fill:#ffe680;stroke:#2b2200;stroke-width:0.00764437;stroke-miterlimit:4;stroke-dasharray:none;stroke-dashoffset:0"
         d="m 0.93276919,5.6391072 0.26335531,-0.813191 0.066668,-0.03884 c 0.036665,-0.02134 0.7880515,-0.1885077 1.669754,-0.3714647 1.8554529,-0.384998 1.6908347,-0.446386 1.3796866,0.5144847 -0.1382883,0.427074 -0.1984662,0.596913 -0.2456003,0.692824 -0.055565,0.113125 -0.2315691,0.162919 -1.6041635,0.45384 -0.8479738,0.179735 -1.59830432,0.337748 -1.66740612,0.351153 l -0.12565862,0.02441 z"
         id="path1034" />
      <path
         id="path1172"
         d="m 0.84374418,11.748592 0.26335772,-0.813191 0.066665,-0.03884 c 0.036671,-0.02134 0.7880514,-0.188508 1.6697553,-0.371465 1.8554553,-0.384998 1.690834,-0.446386 1.3796852,0.514485 -0.1382882,0.427074 -0.1984661,0.596913 -0.2456003,0.692824 -0.055565,0.113125 -0.2315689,0.162919 -1.6041635,0.45384 -0.8479732,0.179735 -1.59830433,0.337748 -1.66740613,0.351153 l -0.12565561,0.02441 z"
         style="fill:#ffe680;stroke:#2b2200;stroke-width:0.00764437;stroke-miterlimit:4;stroke-dasharray:none;stroke-dashoffset:0" />
      <path
         style="fill:#ffe680;stroke:#2b2200;stroke-width:0.00764437;stroke-miterlimit:4;stroke-dasharray:none;stroke-dashoffset:0"
         d="M 0.75471857,17.858078 1.018074,17.044887 1.084739,17.006047 c 0.036671,-0.02134 0.788049,-0.188508 1.6697553,-0.371465 1.8554553,-0.384998 1.6908382,-0.446386 1.3796852,0.514485 -0.1382882,0.427074 -0.1984662,0.596913 -0.2456003,0.692824 -0.055565,0.113125 -0.2315647,0.162919 -1.6041635,0.45384 -0.8479697,0.179735 -1.59830433,0.337748 -1.66740844,0.351153 l -0.12565271,0.02441 z"
         id="path1174" />
      <path
         id="path1176"
         d="m 0.84715268,23.967569 0.26335302,-0.813191 0.066664,-0.03884 c 0.036677,-0.02134 0.788052,-0.188508 1.669758,-0.371465 1.8554526,-0.384998 1.6908312,-0.446386 1.379683,0.514485 -0.1382881,0.427074 -0.1984661,0.596913 -0.2456009,0.692824 -0.055565,0.113125 -0.2315689,0.162919 -1.6041628,0.45384 -0.8479739,0.179735 -1.59830443,0.337748 -1.66740683,0.351153 l -0.12565441,0.02441 z"
         style="fill:#ffe680;stroke:#2b2200;stroke-width:0.00764437;stroke-miterlimit:4;stroke-dasharray:none;stroke-dashoffset:0" />
      <path
         style="fill:#ffe680;stroke:#2b2200;stroke-width:0.00764437;stroke-miterlimit:4;stroke-dasharray:none;stroke-dashoffset:0"
         d="M 0.82129538,30.077051 1.0846508,29.26386 1.1513158,29.22502 c 0.036677,-0.02134 0.7880532,-0.188508 1.6697552,-0.371465 1.8554555,-0.384998 1.6908382,-0.446386 1.3796894,0.514485 -0.1382881,0.427074 -0.1984661,0.596913 -0.2456003,0.692824 -0.055565,0.113125 -0.2315689,0.162919 -1.6041634,0.45384 -0.8479739,0.179735 -1.59830443,0.337748 -1.66740853,0.351153 l -0.12565682,0.02441 z"
         id="path1178" />
      <path
         id="path1180"
         d="M 0.95465899,36.186541 1.2180143,35.37335 1.2846793,35.33451 c 0.036671,-0.02134 0.7880532,-0.188508 1.6697551,-0.371465 1.8554548,-0.384998 1.6908378,-0.446386 1.3796896,0.514485 -0.1382883,0.427074 -0.1984664,0.596913 -0.2456047,0.692824 -0.055565,0.113125 -0.2315647,0.162919 -1.6041584,0.45384 -0.8479739,0.179735 -1.59830862,0.337748 -1.66740862,0.351153 l -0.12565681,0.02441 z"
         style="fill:#ffe680;stroke:#2b2200;stroke-width:0.00764437;stroke-miterlimit:4;stroke-dasharray:none;stroke-dashoffset:0" />
      <path
         style="fill:#ffe680;stroke:#2b2200;stroke-width:0.00764437;stroke-miterlimit:4;stroke-dasharray:none;stroke-dashoffset:0"
         d="m 0.95813929,42.296024 0.26335291,-0.813191 0.066667,-0.03884 c 0.036671,-0.02134 0.788049,-0.188508 1.669755,-0.371465 1.8554555,-0.384998 1.6908343,-0.446386 1.3796855,0.514485 -0.1382884,0.427074 -0.1984664,0.596913 -0.2456029,0.692824 -0.055565,0.113125 -0.2315666,0.162919 -1.6041611,0.45384 -0.8479736,0.179735 -1.59830422,0.337748 -1.66740832,0.351153 l -0.12565271,0.02441 z"
         id="path1182" />
      <path
         id="path1184"
         d="M 0.86911358,48.405514 1.132469,47.592323 1.199134,47.553483 c 0.036671,-0.02134 0.7880491,-0.188508 1.6697551,-0.371465 1.8554549,-0.384998 1.6908336,-0.446386 1.3796855,0.514485 -0.1382884,0.427074 -0.1984663,0.596913 -0.2456009,0.692824 -0.055565,0.113125 -0.2315691,0.162919 -1.6041629,0.45384 -0.8479738,0.179735 -1.59830432,0.337748 -1.66740853,0.351153 l -0.12565681,0.02441 z"
         style="fill:#ffe680;stroke:#2b2200;stroke-width:0.00764437;stroke-miterlimit:4;stroke-dasharray:none;stroke-dashoffset:0" />
      <path
         style="fill:#ffe680;stroke:#2b2200;stroke-width:0.00764437;stroke-miterlimit:4;stroke-dasharray:none;stroke-dashoffset:0"
         d="m 0.91708189,54.514958 0.26335181,-0.81319 0.066652,-0.0388 c 0.036629,-0.0213 0.7880491,-0.18851 1.6697551,-0.37147 1.8554548,-0.38499 1.6908377,-0.44638 1.3796854,0.51449 -0.1382872,0.42707 -0.1984664,0.59691 -0.2456028,0.69282 -0.055565,0.11313 -0.2315672,0.16293 -1.6041616,0.45385 -0.8479732,0.17973 -1.59830852,0.33775 -1.66740853,0.35115 l -0.12565141,0.0244 z"
         id="path1186" />
      <path
         id="path1188"
         d="m 0.87253408,60.624445 0.26335542,-0.81319 0.066643,-0.0388 c 0.036629,-0.0213 0.7880532,-0.18851 1.6697592,-0.37147 1.855453,-0.385 1.690836,-0.44639 1.3796812,0.51449 -0.1382871,0.42707 -0.1984627,0.59691 -0.2455991,0.69282 -0.055565,0.11313 -0.2315714,0.16293 -1.6041658,0.45385 -0.847969,0.17973 -1.59830442,0.33775 -1.66740853,0.35115 l -0.12564731,0.0244 z"
         style="fill:#ffe680;stroke:#2b2200;stroke-width:0.00764437;stroke-miterlimit:4;stroke-dasharray:none;stroke-dashoffset:0" />
      <path
         style="fill:#ffe680;stroke:#2b2200;stroke-width:0.00764437;stroke-miterlimit:4;stroke-dasharray:none;stroke-dashoffset:0"
         d="m 1.0094437,66.733932 0.2633553,-0.81319 0.066643,-0.0388 c 0.03663,-0.0213 0.7880532,-0.18851 1.6697593,-0.37147 1.855453,-0.385 1.6908358,-0.44639 1.3796852,0.51449 -0.1382905,0.42707 -0.1984661,0.59691 -0.2456027,0.69282 -0.055565,0.11313 -0.2315712,0.16293 -1.6041658,0.45385 -0.8479688,0.17973 -1.59830421,0.33775 -1.66740832,0.35115 l -0.12564741,0.0244 z"
         id="path1190" />
      <path
         id="path1192"
         d="m 1.0230603,72.880789 0.2633494,-0.81319 0.066646,-0.0388 c 0.03663,-0.0213 0.7880514,-0.18851 1.6697551,-0.37147 1.8554596,-0.385 1.6908382,-0.44639 1.3796876,0.51449 -0.1382869,0.42707 -0.1984685,0.59691 -0.2456027,0.69282 -0.055565,0.11313 -0.2315694,0.16293 -1.604164,0.45385 -0.8479689,0.179727 -1.59830181,0.337747 -1.66740532,0.351147 l -0.12565041,0.0244 z"
         style="fill:#ffe680;stroke:#2b2200;stroke-width:0.00764437;stroke-miterlimit:4;stroke-dasharray:none;stroke-dashoffset:0" />
      <path
         id="path866"
         d="m 0.79947748,78.974999 0.26335532,-0.813191 0.066668,-0.03884 c 0.036666,-0.02134 0.7880512,-0.188508 1.6697537,-0.371465 1.855453,-0.384998 1.6908347,-0.446386 1.3796866,0.514485 -0.1382884,0.427074 -0.1984662,0.596913 -0.2456003,0.692824 -0.055565,0.113125 -0.2315691,0.162919 -1.6041635,0.45384 -0.8479738,0.179735 -1.59830433,0.337748 -1.66740614,0.351153 l -0.12565861,0.02441 z"
         style="fill:#ffe680;stroke:#2b2200;stroke-width:0.00764437;stroke-miterlimit:4;stroke-dasharray:none;stroke-dashoffset:0" />
      <path
         style="fill:#ffe680;stroke:#2b2200;stroke-width:0.00764437;stroke-miterlimit:4;stroke-dasharray:none;stroke-dashoffset:0"
         d="m 0.71045247,85.084485 0.26335772,-0.813191 0.066665,-0.03884 c 0.036671,-0.02134 0.7880514,-0.188508 1.6697553,-0.371465 1.8554553,-0.384998 1.690834,-0.446386 1.3796852,0.514485 -0.1382882,0.427074 -0.1984662,0.596913 -0.2456004,0.692824 -0.055565,0.113125 -0.2315688,0.162919 -1.6041634,0.45384 -0.8479733,0.179735 -1.59830437,0.337748 -1.66740618,0.351153 l -0.12565559,0.02441 z"
         id="path868" />
      <path
         id="path870"
         d="m 0.62142686,91.193971 0.26335532,-0.813191 0.066665,-0.03884 c 0.036672,-0.02134 0.78804902,-0.188508 1.66975522,-0.371465 1.8554555,-0.384998 1.6908383,-0.446386 1.3796853,0.514485 -0.1382882,0.427074 -0.1984662,0.596913 -0.2456003,0.692824 -0.055565,0.113125 -0.2315648,0.162919 -1.6041634,0.45384 -0.8479698,0.179735 -1.59830447,0.337748 -1.66740857,0.351153 l -0.12565272,0.02441 z"
         style="fill:#ffe680;stroke:#2b2200;stroke-width:0.00764437;stroke-miterlimit:4;stroke-dasharray:none;stroke-dashoffset:0" />
      <path
         style="fill:#ffe680;stroke:#2b2200;stroke-width:0.00764437;stroke-miterlimit:4;stroke-dasharray:none;stroke-dashoffset:0"
         d="m 0.71386097,97.303462 0.26335302,-0.813191 0.066664,-0.03884 c 0.036677,-0.02134 0.7880521,-0.188508 1.6697581,-0.371465 1.8554526,-0.384998 1.6908312,-0.446386 1.379683,0.514485 -0.1382881,0.427074 -0.198466,0.596913 -0.2456008,0.692824 -0.055565,0.113125 -0.2315688,0.162919 -1.6041628,0.45384 -0.8479739,0.179735 -1.59830447,0.337748 -1.66740688,0.351153 l -0.12565436,0.02441 z"
         id="path872" />
      <path
         id="path874"
         d="m 0.68800367,103.41294 0.26335542,-0.81319 0.066665,-0.0388 c 0.036677,-0.0213 0.7880532,-0.18851 1.6697553,-0.37147 1.8554553,-0.385 1.6908381,-0.44638 1.3796893,0.51449 -0.138288,0.42707 -0.1984661,0.59691 -0.2456003,0.69282 -0.055565,0.11313 -0.2315688,0.16292 -1.6041634,0.45384 -0.8479738,0.17974 -1.59830447,0.33775 -1.66740848,0.35115 l -0.12565687,0.0244 z"
         style="fill:#ffe680;stroke:#2b2200;stroke-width:0.00764437;stroke-miterlimit:4;stroke-dasharray:none;stroke-dashoffset:0" />
      <path
         style="fill:#ffe680;stroke:#2b2200;stroke-width:0.00764437;stroke-miterlimit:4;stroke-dasharray:none;stroke-dashoffset:0"
         d="m 0.82136728,109.52243 0.26335532,-0.81319 0.066665,-0.0388 c 0.036671,-0.0213 0.7880533,-0.18851 1.6697552,-0.37147 1.8554547,-0.38499 1.6908377,-0.44638 1.3796895,0.51449 -0.1382883,0.42707 -0.1984663,0.59691 -0.2456046,0.69282 -0.055565,0.11313 -0.2315647,0.16292 -1.6041586,0.45385 -0.8479738,0.17973 -1.59830853,0.33774 -1.66740843,0.35115 l -0.12565692,0.0244 z"
         id="path876" />
      <path
         id="path878"
         d="m 0.82484748,115.63192 0.26335302,-0.81319 0.066667,-0.0388 c 0.036671,-0.0213 0.788049,-0.18851 1.6697551,-0.37147 1.8554553,-0.385 1.6908342,-0.44639 1.3796854,0.51449 -0.1382883,0.42707 -0.1984663,0.59691 -0.2456029,0.69282 -0.055565,0.11313 -0.2315665,0.16292 -1.6041611,0.45384 -0.8479736,0.17974 -1.59830423,0.33775 -1.66740833,0.35116 l -0.12565272,0.0244 z"
         style="fill:#ffe680;stroke:#2b2200;stroke-width:0.00764437;stroke-miterlimit:4;stroke-dasharray:none;stroke-dashoffset:0" />
      <path
         style="fill:#ffe680;stroke:#2b2200;stroke-width:0.00764437;stroke-miterlimit:4;stroke-dasharray:none;stroke-dashoffset:0"
         d="m 0.73582187,121.74141 0.26335532,-0.81319 0.066665,-0.0388 c 0.036672,-0.0213 0.7880492,-0.18851 1.6697551,-0.37146 1.8554548,-0.385 1.6908337,-0.44639 1.3796855,0.51448 -0.1382883,0.42708 -0.1984664,0.59691 -0.2456009,0.69283 -0.055565,0.11312 -0.2315691,0.16291 -1.6041629,0.45384 -0.8479738,0.17973 -1.59830437,0.33774 -1.66740857,0.35115 l -0.12565691,0.0244 z"
         id="path880" />
      <path
         id="path882"
         d="m 0.78379017,127.85086 0.26335183,-0.81319 0.066652,-0.0388 c 0.03663,-0.0213 0.7880491,-0.18851 1.6697552,-0.37147 1.8554547,-0.38499 1.6908377,-0.44638 1.3796854,0.51449 -0.1382872,0.42707 -0.1984663,0.59691 -0.2456029,0.69282 -0.055565,0.11313 -0.2315671,0.16293 -1.6041615,0.45385 -0.8479732,0.17973 -1.59830853,0.33775 -1.66740854,0.35115 l -0.12565151,0.0244 z"
         style="fill:#ffe680;stroke:#2b2200;stroke-width:0.00764437;stroke-miterlimit:4;stroke-dasharray:none;stroke-dashoffset:0" />
      <path
         style="fill:#ffe680;stroke:#2b2200;stroke-width:0.00764437;stroke-miterlimit:4;stroke-dasharray:none;stroke-dashoffset:0"
         d="m 0.73924237,133.96035 0.26335543,-0.81319 0.066643,-0.0388 c 0.03663,-0.0213 0.7880533,-0.18851 1.6697594,-0.37147 1.8554529,-0.385 1.6908359,-0.44639 1.3796812,0.51449 -0.1382872,0.42707 -0.1984628,0.59691 -0.2455992,0.69282 -0.055565,0.11313 -0.2315715,0.16293 -1.6041659,0.45385 -0.847969,0.17973 -1.59830434,0.33775 -1.66740844,0.35115 l -0.12564731,0.0244 z"
         id="path884" />
      <path
         id="path886"
         d="m 0.87615198,140.06984 0.26335542,-0.81319 0.066643,-0.0388 c 0.03663,-0.0213 0.7880533,-0.18851 1.6697593,-0.37147 1.855453,-0.385 1.6908358,-0.44639 1.3796852,0.51449 -0.1382905,0.42707 -0.1984661,0.59691 -0.2456027,0.69282 -0.055565,0.11313 -0.2315713,0.16293 -1.6041659,0.45385 -0.8479688,0.17973 -1.59830412,0.33775 -1.66740823,0.35115 l -0.12564741,0.0244 z"
         style="fill:#ffe680;stroke:#2b2200;stroke-width:0.00764437;stroke-miterlimit:4;stroke-dasharray:none;stroke-dashoffset:0" />
      <path
         style="fill:#ffe680;stroke:#2b2200;stroke-width:0.00764437;stroke-miterlimit:4;stroke-dasharray:none;stroke-dashoffset:0"
         d="m 0.88976848,146.2167 0.26334942,-0.81319 0.066646,-0.0388 c 0.03663,-0.0213 0.7880515,-0.18851 1.6697552,-0.37147 1.8554598,-0.385 1.690838,-0.44639 1.3796876,0.51449 -0.138287,0.42707 -0.1984685,0.59691 -0.2456027,0.69282 -0.055565,0.11313 -0.2315695,0.16293 -1.6041641,0.45385 -0.8479688,0.17973 -1.59830172,0.33775 -1.66740533,0.35115 l -0.12565031,0.0244 z"
         id="path888" />
      <path
         style="fill:#ffe680;stroke:#2b2200;stroke-width:0.00764437;stroke-miterlimit:4;stroke-dasharray:none;stroke-dashoffset:0"
         d="m 0.66578896,152.5292 0.26335543,-0.8132 0.066668,-0.0388 c 0.036665,-0.0213 0.78805151,-0.18851 1.66975391,-0.37146 1.8554528,-0.385 1.6908348,-0.44639 1.3796866,0.51448 -0.1382883,0.42708 -0.1984661,0.59692 -0.2456003,0.69283 -0.055565,0.11312 -0.231569,0.16292 -1.6041634,0.45384 -0.8479739,0.17973 -1.59830444,0.33775 -1.66740625,0.35115 l -0.12565858,0.0244 z"
         id="path890" />
      <path
         id="path892"
         d="m 0.57676395,158.63868 0.26335773,-0.81319 0.066665,-0.0388 c 0.036672,-0.0213 0.78805142,-0.18851 1.66975532,-0.37146 1.8554556,-0.385 1.6908338,-0.44639 1.3796852,0.51448 -0.1382882,0.42708 -0.1984661,0.59692 -0.2456003,0.69283 -0.055565,0.11312 -0.2315689,0.16292 -1.6041635,0.45384 -0.8479731,0.17973 -1.59830437,0.33775 -1.66740617,0.35115 l -0.12565559,0.0244 z"
         style="fill:#ffe680;stroke:#2b2200;stroke-width:0.00764437;stroke-miterlimit:4;stroke-dasharray:none;stroke-dashoffset:0" />
      <path
         style="fill:#ffe680;stroke:#2b2200;stroke-width:0.00764437;stroke-miterlimit:4;stroke-dasharray:none;stroke-dashoffset:0"
         d="m 0.48773835,164.74817 0.26335532,-0.81319 0.066665,-0.0388 c 0.036671,-0.0213 0.78804913,-0.18851 1.66975533,-0.37146 1.8554555,-0.385 1.6908379,-0.44639 1.3796852,0.51448 -0.1382881,0.42708 -0.1984661,0.59692 -0.2456003,0.69283 -0.055566,0.11312 -0.2315647,0.16292 -1.6041634,0.45384 -0.8479697,0.17973 -1.59830444,0.33774 -1.66740849,0.35115 l -0.12565273,0.0244 z"
         id="path894" />
      <path
         id="path896"
         d="m 0.58017246,170.85767 0.26335302,-0.81319 0.066664,-0.0388 c 0.036677,-0.0213 0.78805212,-0.18851 1.66975812,-0.37147 1.8554527,-0.385 1.6908313,-0.44638 1.3796832,0.51449 -0.1382883,0.42707 -0.1984662,0.59691 -0.2456011,0.69282 -0.055565,0.11313 -0.2315688,0.16292 -1.6041628,0.45384 -0.8479738,0.17974 -1.59830447,0.33775 -1.66740677,0.35115 l -0.1256544,0.0244 z"
         style="fill:#ffe680;stroke:#2b2200;stroke-width:0.00764437;stroke-miterlimit:4;stroke-dasharray:none;stroke-dashoffset:0" />
      <path
         style="fill:#ffe680;stroke:#2b2200;stroke-width:0.00764437;stroke-miterlimit:4;stroke-dasharray:none;stroke-dashoffset:0"
         d="m 0.55431515,176.96715 0.26335543,-0.81319 0.066665,-0.0388 c 0.036677,-0.0213 0.78805342,-0.18851 1.66975542,-0.37147 1.8554557,-0.385 1.6908384,-0.44638 1.3796891,0.51449 -0.1382879,0.42707 -0.1984661,0.59691 -0.2456,0.69282 -0.055565,0.11313 -0.2315689,0.16292 -1.6041635,0.45384 -0.8479739,0.17974 -1.59830445,0.33775 -1.66740852,0.35115 l -0.12565681,0.0244 z"
         id="path898" />
      <path
         id="path900"
         d="m 0.68767877,183.07664 0.26335532,-0.81319 0.066665,-0.0388 c 0.036672,-0.0213 0.7880533,-0.18851 1.6697552,-0.37147 1.8554548,-0.38499 1.6908379,-0.44638 1.3796898,0.51449 -0.1382885,0.42707 -0.1984667,0.59691 -0.2456048,0.69282 -0.055565,0.11313 -0.231565,0.16292 -1.6041587,0.45385 -0.8479738,0.17973 -1.59830857,0.33774 -1.66740858,0.35115 l -0.1256568,0.0244 z"
         style="fill:#ffe680;stroke:#2b2200;stroke-width:0.00764437;stroke-miterlimit:4;stroke-dasharray:none;stroke-dashoffset:0" />
      <path
         style="fill:#ffe680;stroke:#2b2200;stroke-width:0.00764437;stroke-miterlimit:4;stroke-dasharray:none;stroke-dashoffset:0"
         d="m 0.69115897,189.18613 0.26335302,-0.81319 0.066667,-0.0388 c 0.036671,-0.0213 0.7880492,-0.18851 1.6697552,-0.37147 1.8554551,-0.385 1.690834,-0.44639 1.3796856,0.51449 -0.1382885,0.42707 -0.1984667,0.59691 -0.245603,0.69282 -0.055564,0.11313 -0.2315668,0.16292 -1.6041612,0.45384 -0.8479736,0.17974 -1.59830427,0.33775 -1.66740838,0.35116 l -0.12565269,0.0244 z"
         id="path902" />
      <path
         id="path904"
         d="m 0.60213336,195.29562 0.26335542,-0.81319 0.066665,-0.0388 c 0.036671,-0.0213 0.78804912,-0.18851 1.66975512,-0.37146 1.8554548,-0.385 1.6908338,-0.44639 1.3796857,0.51448 -0.1382888,0.42708 -0.1984668,0.59691 -0.2456009,0.69283 -0.055565,0.11312 -0.2315695,0.16291 -1.6041631,0.45384 -0.8479738,0.17973 -1.59830437,0.33774 -1.66740858,0.35115 l -0.12565684,0.0244 z"
         style="fill:#ffe680;stroke:#2b2200;stroke-width:0.00764437;stroke-miterlimit:4;stroke-dasharray:none;stroke-dashoffset:0" />
      <path
         style="fill:#ffe680;stroke:#2b2200;stroke-width:0.00764437;stroke-miterlimit:4;stroke-dasharray:none;stroke-dashoffset:0"
         d="m 0.65010156,201.40507 0.26335193,-0.81319 0.066652,-0.0388 c 0.03663,-0.0213 0.78804911,-0.18851 1.66975521,-0.37147 1.8554545,-0.38499 1.6908375,-0.44638 1.3796853,0.51449 -0.1382873,0.42707 -0.198466,0.59691 -0.2456029,0.69282 -0.055565,0.11313 -0.2315672,0.16293 -1.6041614,0.45385 -0.8479732,0.17973 -1.59830864,0.33775 -1.66740845,0.35115 l -0.12565158,0.0244 z"
         id="path906" />
      <path
         id="path908"
         d="m 0.60555386,207.51456 0.26335542,-0.81319 0.066643,-0.0388 c 0.03663,-0.0213 0.78805322,-0.18851 1.66975932,-0.37147 1.855453,-0.385 1.690836,-0.44639 1.3796811,0.51449 -0.1382872,0.42707 -0.1984625,0.59691 -0.2455988,0.69282 -0.055565,0.11313 -0.2315718,0.16293 -1.604166,0.45385 -0.8479691,0.17973 -1.59830447,0.33775 -1.66740857,0.35115 l -0.12564738,0.0244 z"
         style="fill:#ffe680;stroke:#2b2200;stroke-width:0.00764437;stroke-miterlimit:4;stroke-dasharray:none;stroke-dashoffset:0" />
    </g>
    <g
       transform="translate(0,208.19115)"
       style="display:inline;opacity:1;mix-blend-mode:normal"
       id="g955">
      <path
         id="path887"
         d="m 0.93276919,5.6391072 0.26335531,-0.813191 0.066668,-0.03884 c 0.036665,-0.02134 0.7880515,-0.1885077 1.669754,-0.3714647 1.8554529,-0.384998 1.6908347,-0.446386 1.3796866,0.5144847 -0.1382883,0.427074 -0.1984662,0.596913 -0.2456003,0.692824 -0.055565,0.113125 -0.2315691,0.162919 -1.6041635,0.45384 -0.8479738,0.179735 -1.59830432,0.337748 -1.66740612,0.351153 l -0.12565862,0.02441 z"
         style="fill:#ffe680;stroke:#2b2200;stroke-width:0.00764437;stroke-miterlimit:4;stroke-dasharray:none;stroke-dashoffset:0" />
      <path
         style="fill:#ffe680;stroke:#2b2200;stroke-width:0.00764437;stroke-miterlimit:4;stroke-dasharray:none;stroke-dashoffset:0"
         d="m 0.84374418,11.748592 0.26335772,-0.813191 0.066665,-0.03884 c 0.036671,-0.02134 0.7880514,-0.188508 1.6697553,-0.371465 1.8554553,-0.384998 1.690834,-0.446386 1.3796852,0.514485 -0.1382882,0.427074 -0.1984661,0.596913 -0.2456003,0.692824 -0.055565,0.113125 -0.2315689,0.162919 -1.6041635,0.45384 -0.8479732,0.179735 -1.59830433,0.337748 -1.66740613,0.351153 l -0.12565561,0.02441 z"
         id="path889" />
      <path
         id="path891"
         d="M 0.75471857,17.858078 1.018074,17.044887 1.084739,17.006047 c 0.036671,-0.02134 0.788049,-0.188508 1.6697553,-0.371465 1.8554553,-0.384998 1.6908382,-0.446386 1.3796852,0.514485 -0.1382882,0.427074 -0.1984662,0.596913 -0.2456003,0.692824 -0.055565,0.113125 -0.2315647,0.162919 -1.6041635,0.45384 -0.8479697,0.179735 -1.59830433,0.337748 -1.66740844,0.351153 l -0.12565271,0.02441 z"
         style="fill:#ffe680;stroke:#2b2200;stroke-width:0.00764437;stroke-miterlimit:4;stroke-dasharray:none;stroke-dashoffset:0" />
      <path
         style="fill:#ffe680;stroke:#2b2200;stroke-width:0.00764437;stroke-miterlimit:4;stroke-dasharray:none;stroke-dashoffset:0"
         d="m 0.84715268,23.967569 0.26335302,-0.813191 0.066664,-0.03884 c 0.036677,-0.02134 0.788052,-0.188508 1.669758,-0.371465 1.8554526,-0.384998 1.6908312,-0.446386 1.379683,0.514485 -0.1382881,0.427074 -0.1984661,0.596913 -0.2456009,0.692824 -0.055565,0.113125 -0.2315689,0.162919 -1.6041628,0.45384 -0.8479739,0.179735 -1.59830443,0.337748 -1.66740683,0.351153 l -0.12565441,0.02441 z"
         id="path893" />
      <path
         id="path895"
         d="M 0.82129538,30.077051 1.0846508,29.26386 1.1513158,29.22502 c 0.036677,-0.02134 0.7880532,-0.188508 1.6697552,-0.371465 1.8554555,-0.384998 1.6908382,-0.446386 1.3796894,0.514485 -0.1382881,0.427074 -0.1984661,0.596913 -0.2456003,0.692824 -0.055565,0.113125 -0.2315689,0.162919 -1.6041634,0.45384 -0.8479739,0.179735 -1.59830443,0.337748 -1.66740853,0.351153 l -0.12565682,0.02441 z"
         style="fill:#ffe680;stroke:#2b2200;stroke-width:0.00764437;stroke-miterlimit:4;stroke-dasharray:none;stroke-dashoffset:0" />
      <path
         style="fill:#ffe680;stroke:#2b2200;stroke-width:0.00764437;stroke-miterlimit:4;stroke-dasharray:none;stroke-dashoffset:0"
         d="M 0.95465899,36.186541 1.2180143,35.37335 1.2846793,35.33451 c 0.036671,-0.02134 0.7880532,-0.188508 1.6697551,-0.371465 1.8554548,-0.384998 1.6908378,-0.446386 1.3796896,0.514485 -0.1382883,0.427074 -0.1984664,0.596913 -0.2456047,0.692824 -0.055565,0.113125 -0.2315647,0.162919 -1.6041584,0.45384 -0.8479739,0.179735 -1.59830862,0.337748 -1.66740862,0.351153 l -0.12565681,0.02441 z"
         id="path897" />
      <path
         id="path899"
         d="m 0.95813929,42.296024 0.26335291,-0.813191 0.066667,-0.03884 c 0.036671,-0.02134 0.788049,-0.188508 1.669755,-0.371465 1.8554555,-0.384998 1.6908343,-0.446386 1.3796855,0.514485 -0.1382884,0.427074 -0.1984664,0.596913 -0.2456029,0.692824 -0.055565,0.113125 -0.2315666,0.162919 -1.6041611,0.45384 -0.8479736,0.179735 -1.59830422,0.337748 -1.66740832,0.351153 l -0.12565271,0.02441 z"
         style="fill:#ffe680;stroke:#2b2200;stroke-width:0.00764437;stroke-miterlimit:4;stroke-dasharray:none;stroke-dashoffset:0" />
      <path
         style="fill:#ffe680;stroke:#2b2200;stroke-width:0.00764437;stroke-miterlimit:4;stroke-dasharray:none;stroke-dashoffset:0"
         d="M 0.86911358,48.405514 1.132469,47.592323 1.199134,47.553483 c 0.036671,-0.02134 0.7880491,-0.188508 1.6697551,-0.371465 1.8554549,-0.384998 1.6908336,-0.446386 1.3796855,0.514485 -0.1382884,0.427074 -0.1984663,0.596913 -0.2456009,0.692824 -0.055565,0.113125 -0.2315691,0.162919 -1.6041629,0.45384 -0.8479738,0.179735 -1.59830432,0.337748 -1.66740853,0.351153 l -0.12565681,0.02441 z"
         id="path901" />
      <path
         id="path903"
         d="m 0.91708189,54.514958 0.26335181,-0.81319 0.066652,-0.0388 c 0.036629,-0.0213 0.7880491,-0.18851 1.6697551,-0.37147 1.8554548,-0.38499 1.6908377,-0.44638 1.3796854,0.51449 -0.1382872,0.42707 -0.1984664,0.59691 -0.2456028,0.69282 -0.055565,0.11313 -0.2315672,0.16293 -1.6041616,0.45385 -0.8479732,0.17973 -1.59830852,0.33775 -1.66740853,0.35115 l -0.12565141,0.0244 z"
         style="fill:#ffe680;stroke:#2b2200;stroke-width:0.00764437;stroke-miterlimit:4;stroke-dasharray:none;stroke-dashoffset:0" />
      <path
         style="fill:#ffe680;stroke:#2b2200;stroke-width:0.00764437;stroke-miterlimit:4;stroke-dasharray:none;stroke-dashoffset:0"
         d="m 0.87253408,60.624445 0.26335542,-0.81319 0.066643,-0.0388 c 0.036629,-0.0213 0.7880532,-0.18851 1.6697592,-0.37147 1.855453,-0.385 1.690836,-0.44639 1.3796812,0.51449 -0.1382871,0.42707 -0.1984627,0.59691 -0.2455991,0.69282 -0.055565,0.11313 -0.2315714,0.16293 -1.6041658,0.45385 -0.847969,0.17973 -1.59830442,0.33775 -1.66740853,0.35115 l -0.12564731,0.0244 z"
         id="path905" />
      <path
         id="path907"
         d="m 1.0094437,66.733932 0.2633553,-0.81319 0.066643,-0.0388 c 0.03663,-0.0213 0.7880532,-0.18851 1.6697593,-0.37147 1.855453,-0.385 1.6908358,-0.44639 1.3796852,0.51449 -0.1382905,0.42707 -0.1984661,0.59691 -0.2456027,0.69282 -0.055565,0.11313 -0.2315712,0.16293 -1.6041658,0.45385 -0.8479688,0.17973 -1.59830421,0.33775 -1.66740832,0.35115 l -0.12564741,0.0244 z"
         style="fill:#ffe680;stroke:#2b2200;stroke-width:0.00764437;stroke-miterlimit:4;stroke-dasharray:none;stroke-dashoffset:0" />
      <path
         style="fill:#ffe680;stroke:#2b2200;stroke-width:0.00764437;stroke-miterlimit:4;stroke-dasharray:none;stroke-dashoffset:0"
         d="m 1.0230603,72.880789 0.2633494,-0.81319 0.066646,-0.0388 c 0.03663,-0.0213 0.7880514,-0.18851 1.6697551,-0.37147 1.8554596,-0.385 1.6908382,-0.44639 1.3796876,0.51449 -0.1382869,0.42707 -0.1984685,0.59691 -0.2456027,0.69282 -0.055565,0.11313 -0.2315694,0.16293 -1.604164,0.45385 -0.8479689,0.179727 -1.59830181,0.337747 -1.66740532,0.351147 l -0.12565041,0.0244 z"
         id="path909" />
      <path
         style="fill:#ffe680;stroke:#2b2200;stroke-width:0.00764437;stroke-miterlimit:4;stroke-dasharray:none;stroke-dashoffset:0"
         d="m 0.79947748,78.974999 0.26335532,-0.813191 0.066668,-0.03884 c 0.036666,-0.02134 0.7880512,-0.188508 1.6697537,-0.371465 1.855453,-0.384998 1.6908347,-0.446386 1.3796866,0.514485 -0.1382884,0.427074 -0.1984662,0.596913 -0.2456003,0.692824 -0.055565,0.113125 -0.2315691,0.162919 -1.6041635,0.45384 -0.8479738,0.179735 -1.59830433,0.337748 -1.66740614,0.351153 l -0.12565861,0.02441 z"
         id="path911" />
      <path
         id="path913"
         d="m 0.71045247,85.084485 0.26335772,-0.813191 0.066665,-0.03884 c 0.036671,-0.02134 0.7880514,-0.188508 1.6697553,-0.371465 1.8554553,-0.384998 1.690834,-0.446386 1.3796852,0.514485 -0.1382882,0.427074 -0.1984662,0.596913 -0.2456004,0.692824 -0.055565,0.113125 -0.2315688,0.162919 -1.6041634,0.45384 -0.8479733,0.179735 -1.59830498,0.337748 -1.66740679,0.351153 L 0.44709,85.897701 Z"
         style="fill:#ffe680;stroke:#2b2200;stroke-width:0.00764437;stroke-miterlimit:4;stroke-dasharray:none;stroke-dashoffset:0" />
      <path
         style="fill:#ffe680;stroke:#2b2200;stroke-width:0.00764437;stroke-miterlimit:4;stroke-dasharray:none;stroke-dashoffset:0"
         d="m 0.62142686,91.193971 0.26335532,-0.813191 0.066665,-0.03884 c 0.036672,-0.02134 0.78804902,-0.188508 1.66975522,-0.371465 1.8554555,-0.384998 1.6908383,-0.446386 1.3796853,0.514485 -0.1382882,0.427074 -0.1984662,0.596913 -0.2456003,0.692824 -0.055565,0.113125 -0.2315648,0.162919 -1.6041634,0.45384 -0.8479698,0.179735 -1.59830447,0.337748 -1.66740857,0.351153 l -0.12565272,0.02441 z"
         id="path915" />
      <path
         id="path917"
         d="m 0.71386097,97.303462 0.26335302,-0.813191 0.066664,-0.03884 c 0.036677,-0.02134 0.7880521,-0.188508 1.6697581,-0.371465 1.8554526,-0.384998 1.6908312,-0.446386 1.379683,0.514485 -0.1382881,0.427074 -0.198466,0.596913 -0.2456008,0.692824 -0.055565,0.113125 -0.2315688,0.162919 -1.6041628,0.45384 -0.8479739,0.179735 -1.59830508,0.337748 -1.66740749,0.351153 l -0.1256543,0.02441 z"
         style="fill:#ffe680;stroke:#2b2200;stroke-width:0.00764437;stroke-miterlimit:4;stroke-dasharray:none;stroke-dashoffset:0" />
      <path
         style="fill:#ffe680;stroke:#2b2200;stroke-width:0.00764437;stroke-miterlimit:4;stroke-dasharray:none;stroke-dashoffset:0"
         d="m 0.68800367,103.41294 0.26335542,-0.81319 0.066665,-0.0388 c 0.036677,-0.0213 0.7880532,-0.18851 1.6697553,-0.37147 1.8554553,-0.385 1.6908381,-0.44638 1.3796893,0.51449 -0.138288,0.42707 -0.1984661,0.59691 -0.2456003,0.69282 -0.055565,0.11313 -0.2315688,0.16292 -1.6041634,0.45384 -0.8479738,0.17974 -1.59830508,0.33775 -1.66740909,0.35115 l -0.12565687,0.0244 z"
         id="path919" />
      <path
         id="path921"
         d="m 0.82136728,109.52243 0.26335532,-0.81319 0.066665,-0.0388 c 0.036671,-0.0213 0.7880533,-0.18851 1.6697552,-0.37147 1.8554547,-0.38499 1.6908377,-0.44638 1.3796895,0.51449 -0.1382883,0.42707 -0.1984663,0.59691 -0.2456046,0.69282 -0.055565,0.11313 -0.2315647,0.16292 -1.6041586,0.45385 -0.8479738,0.17973 -1.59830853,0.33774 -1.66740843,0.35115 l -0.12565692,0.0244 z"
         style="fill:#ffe680;stroke:#2b2200;stroke-width:0.00764437;stroke-miterlimit:4;stroke-dasharray:none;stroke-dashoffset:0" />
      <path
         style="fill:#ffe680;stroke:#2b2200;stroke-width:0.00764437;stroke-miterlimit:4;stroke-dasharray:none;stroke-dashoffset:0"
         d="m 0.82484748,115.63192 0.26335302,-0.81319 0.066667,-0.0388 c 0.036671,-0.0213 0.788049,-0.18851 1.6697551,-0.37147 1.8554553,-0.385 1.6908342,-0.44639 1.3796854,0.51449 -0.1382883,0.42707 -0.1984663,0.59691 -0.2456029,0.69282 -0.055565,0.11313 -0.2315665,0.16292 -1.6041611,0.45384 -0.8479736,0.17974 -1.59830423,0.33775 -1.66740833,0.35116 l -0.12565272,0.0244 z"
         id="path923" />
      <path
         id="path925"
         d="m 0.73582187,121.74141 0.26335532,-0.81319 0.066665,-0.0388 c 0.036672,-0.0213 0.7880492,-0.18851 1.6697551,-0.37146 1.8554548,-0.385 1.6908337,-0.44639 1.3796855,0.51448 -0.1382883,0.42708 -0.1984664,0.59691 -0.2456009,0.69283 -0.055565,0.11312 -0.2315691,0.16291 -1.6041629,0.45384 -0.8479738,0.17973 -1.59830498,0.33774 -1.66740918,0.35115 l -0.12565691,0.0244 z"
         style="fill:#ffe680;stroke:#2b2200;stroke-width:0.00764437;stroke-miterlimit:4;stroke-dasharray:none;stroke-dashoffset:0" />
      <path
         style="fill:#ffe680;stroke:#2b2200;stroke-width:0.00764437;stroke-miterlimit:4;stroke-dasharray:none;stroke-dashoffset:0"
         d="m 0.78379017,127.85086 0.26335183,-0.81319 0.066652,-0.0388 c 0.03663,-0.0213 0.7880491,-0.18851 1.6697552,-0.37147 1.8554547,-0.38499 1.6908377,-0.44638 1.3796854,0.51449 -0.1382872,0.42707 -0.1984663,0.59691 -0.2456029,0.69282 -0.055565,0.11313 -0.2315671,0.16293 -1.6041615,0.45385 -0.8479732,0.17973 -1.59830853,0.33775 -1.66740854,0.35115 l -0.12565151,0.0244 z"
         id="path927" />
      <path
         id="path929"
         d="m 0.73924237,133.96035 0.26335543,-0.81319 0.066643,-0.0388 c 0.03663,-0.0213 0.7880533,-0.18851 1.6697594,-0.37147 1.8554529,-0.385 1.6908359,-0.44639 1.3796812,0.51449 -0.1382872,0.42707 -0.1984628,0.59691 -0.2455992,0.69282 -0.055565,0.11313 -0.2315715,0.16293 -1.6041659,0.45385 -0.847969,0.17973 -1.59830434,0.33775 -1.66740844,0.35115 l -0.12564731,0.0244 z"
         style="fill:#ffe680;stroke:#2b2200;stroke-width:0.00764437;stroke-miterlimit:4;stroke-dasharray:none;stroke-dashoffset:0" />
      <path
         style="fill:#ffe680;stroke:#2b2200;stroke-width:0.00764437;stroke-miterlimit:4;stroke-dasharray:none;stroke-dashoffset:0"
         d="m 0.87615198,140.06984 0.26335542,-0.81319 0.066643,-0.0388 c 0.03663,-0.0213 0.7880533,-0.18851 1.6697593,-0.37147 1.855453,-0.385 1.6908358,-0.44639 1.3796852,0.51449 -0.1382905,0.42707 -0.1984661,0.59691 -0.2456027,0.69282 -0.055565,0.11313 -0.2315713,0.16293 -1.6041659,0.45385 -0.8479688,0.17973 -1.59830412,0.33775 -1.66740823,0.35115 l -0.12564741,0.0244 z"
         id="path931" />
      <path
         id="path933"
         d="m 0.88976848,146.2167 0.26334942,-0.81319 0.066646,-0.0388 c 0.03663,-0.0213 0.7880515,-0.18851 1.6697552,-0.37147 1.8554598,-0.385 1.690838,-0.44639 1.3796876,0.51449 -0.138287,0.42707 -0.1984685,0.59691 -0.2456027,0.69282 -0.055565,0.11313 -0.2315695,0.16293 -1.6041641,0.45385 -0.8479688,0.17973 -1.59830172,0.33775 -1.66740533,0.35115 l -0.12565031,0.0244 z"
         style="fill:#ffe680;stroke:#2b2200;stroke-width:0.00764437;stroke-miterlimit:4;stroke-dasharray:none;stroke-dashoffset:0" />
      <path
         id="path935"
         d="m 0.66578896,152.5292 0.26335543,-0.8132 0.066668,-0.0388 c 0.036665,-0.0213 0.78805151,-0.18851 1.66975391,-0.37146 1.8554528,-0.385 1.6908348,-0.44639 1.3796866,0.51448 -0.1382883,0.42708 -0.1984661,0.59692 -0.2456003,0.69283 -0.055565,0.11312 -0.231569,0.16292 -1.6041634,0.45384 -0.8479739,0.17973 -1.59830444,0.33775 -1.66740625,0.35115 l -0.12565858,0.0244 z"
         style="fill:#ffe680;stroke:#2b2200;stroke-width:0.00764437;stroke-miterlimit:4;stroke-dasharray:none;stroke-dashoffset:0" />
      <path
         style="fill:#ffe680;stroke:#2b2200;stroke-width:0.00764437;stroke-miterlimit:4;stroke-dasharray:none;stroke-dashoffset:0"
         d="m 0.57676395,158.63868 0.26335773,-0.81319 0.066665,-0.0388 c 0.036672,-0.0213 0.78805142,-0.18851 1.66975532,-0.37146 1.8554556,-0.385 1.6908338,-0.44639 1.3796852,0.51448 -0.1382882,0.42708 -0.1984661,0.59692 -0.2456003,0.69283 -0.055565,0.11312 -0.2315689,0.16292 -1.6041635,0.45384 -0.8479731,0.17973 -1.59830437,0.33775 -1.66740617,0.35115 l -0.12565559,0.0244 z"
         id="path937" />
      <path
         id="path939"
         d="m 0.48773835,164.74817 0.26335532,-0.81319 0.066665,-0.0388 c 0.036671,-0.0213 0.78804913,-0.18851 1.66975533,-0.37146 1.8554555,-0.385 1.6908379,-0.44639 1.3796852,0.51448 -0.1382881,0.42708 -0.1984661,0.59692 -0.2456003,0.69283 -0.055566,0.11312 -0.2315647,0.16292 -1.6041634,0.45384 -0.8479697,0.17973 -1.59830444,0.33774 -1.66740849,0.35115 l -0.12565273,0.0244 z"
         style="fill:#ffe680;stroke:#2b2200;stroke-width:0.00764437;stroke-miterlimit:4;stroke-dasharray:none;stroke-dashoffset:0" />
      <path
         style="fill:#ffe680;stroke:#2b2200;stroke-width:0.00764437;stroke-miterlimit:4;stroke-dasharray:none;stroke-dashoffset:0"
         d="m 0.58017246,170.85767 0.26335302,-0.81319 0.066664,-0.0388 c 0.036677,-0.0213 0.78805212,-0.18851 1.66975812,-0.37147 1.8554527,-0.385 1.6908313,-0.44638 1.3796832,0.51449 -0.1382883,0.42707 -0.1984662,0.59691 -0.2456011,0.69282 -0.055565,0.11313 -0.2315688,0.16292 -1.6041628,0.45384 -0.8479738,0.17974 -1.59830447,0.33775 -1.66740677,0.35115 l -0.1256544,0.0244 z"
         id="path941" />
      <path
         id="path943"
         d="m 0.55431515,176.96715 0.26335543,-0.81319 0.066665,-0.0388 c 0.036677,-0.0213 0.78805342,-0.18851 1.66975542,-0.37147 1.8554557,-0.385 1.6908384,-0.44638 1.3796891,0.51449 -0.1382879,0.42707 -0.1984661,0.59691 -0.2456,0.69282 -0.055565,0.11313 -0.2315689,0.16292 -1.6041635,0.45384 -0.8479739,0.17974 -1.59830445,0.33775 -1.66740852,0.35115 l -0.12565681,0.0244 z"
         style="fill:#ffe680;stroke:#2b2200;stroke-width:0.00764437;stroke-miterlimit:4;stroke-dasharray:none;stroke-dashoffset:0" />
      <path
         style="fill:#ffe680;stroke:#2b2200;stroke-width:0.00764437;stroke-miterlimit:4;stroke-dasharray:none;stroke-dashoffset:0"
         d="m 0.68767877,183.07664 0.26335532,-0.81319 0.066665,-0.0388 c 0.036672,-0.0213 0.7880533,-0.18851 1.6697552,-0.37147 1.8554548,-0.38499 1.6908379,-0.44638 1.3796898,0.51449 -0.1382885,0.42707 -0.1984667,0.59691 -0.2456048,0.69282 -0.055565,0.11313 -0.231565,0.16292 -1.6041587,0.45385 -0.8479738,0.17973 -1.59830918,0.33774 -1.66740919,0.35115 l -0.1256568,0.0244 z"
         id="path945" />
      <path
         id="path947"
         d="m 0.69115897,189.18613 0.26335302,-0.81319 0.066667,-0.0388 c 0.036671,-0.0213 0.7880492,-0.18851 1.6697552,-0.37147 1.8554551,-0.385 1.690834,-0.44639 1.3796856,0.51449 -0.1382885,0.42707 -0.1984667,0.59691 -0.245603,0.69282 -0.055564,0.11313 -0.2315668,0.16292 -1.6041612,0.45384 -0.8479736,0.17974 -1.59830488,0.33775 -1.66740899,0.35116 l -0.12565269,0.0244 z"
         style="fill:#ffe680;stroke:#2b2200;stroke-width:0.00764437;stroke-miterlimit:4;stroke-dasharray:none;stroke-dashoffset:0" />
      <path
         style="fill:#ffe680;stroke:#2b2200;stroke-width:0.00764437;stroke-miterlimit:4;stroke-dasharray:none;stroke-dashoffset:0"
         d="m 0.60213336,195.29562 0.26335542,-0.81319 0.066665,-0.0388 c 0.036671,-0.0213 0.78804912,-0.18851 1.66975512,-0.37146 1.8554548,-0.385 1.6908338,-0.44639 1.3796857,0.51448 -0.1382888,0.42708 -0.1984668,0.59691 -0.2456009,0.69283 -0.055565,0.11312 -0.2315695,0.16291 -1.6041631,0.45384 -0.8479738,0.17973 -1.59830437,0.33774 -1.66740858,0.35115 l -0.12565684,0.0244 z"
         id="path949" />
      <path
         id="path951"
         d="m 0.65010156,201.40507 0.26335193,-0.81319 0.066652,-0.0388 c 0.03663,-0.0213 0.78804911,-0.18851 1.66975521,-0.37147 1.8554545,-0.38499 1.6908375,-0.44638 1.3796853,0.51449 -0.1382873,0.42707 -0.198466,0.59691 -0.2456029,0.69282 -0.055565,0.11313 -0.2315672,0.16293 -1.6041614,0.45385 -0.8479732,0.17973 -1.59830864,0.33775 -1.66740845,0.35115 l -0.12565158,0.0244 z"
         style="fill:#ffe680;stroke:#2b2200;stroke-width:0.00764437;stroke-miterlimit:4;stroke-dasharray:none;stroke-dashoffset:0" />
      <path
         style="fill:#ffe680;stroke:#2b2200;stroke-width:0.00764437;stroke-miterlimit:4;stroke-dasharray:none;stroke-dashoffset:0"
         d="m 0.60555386,207.51456 0.26335542,-0.81319 0.066643,-0.0388 c 0.03663,-0.0213 0.78805322,-0.18851 1.66975932,-0.37147 1.855453,-0.385 1.690836,-0.44639 1.3796811,0.51449 -0.1382872,0.42707 -0.1984625,0.59691 -0.2455988,0.69282 -0.055565,0.11313 -0.2315718,0.16293 -1.604166,0.45385 -0.8479691,0.17973 -1.59830447,0.33775 -1.66740857,0.35115 l -0.12564738,0.0244 z"
         id="path953" />
    </g>
  </g>
  <g
     id="layer4">
    <g
       transform="matrix(1,0,0,2.0042723,0,-0.11219441)"
       id="layer1"
       style="display:inline;mix-blend-mode:normal">
      <g
         id="g935"
         transform="matrix(0.3713163,0,2.9794632e-4,1.5586369,-20.178996,-74.399707)"
         style="fill:none;fill-opacity:1;stroke:none;stroke-width:1;stroke-miterlimit:4;stroke-dasharray:none;stroke-opacity:1">
        <path
           id="path833"
           d="M 54.428572,47.805505 54.429,183.31845"
           style="fill:none;fill-opacity:1;stroke:none;stroke-width:1;stroke-linecap:butt;stroke-linejoin:miter;stroke-miterlimit:4;stroke-dasharray:none;stroke-opacity:1" />
        <path
           style="fill:none;fill-opacity:1;stroke:none;stroke-width:1;stroke-linecap:butt;stroke-linejoin:miter;stroke-miterlimit:4;stroke-dasharray:none;stroke-opacity:1"
           d="m 58.132741,47.805506 4.27e-4,135.512944"
           id="path835" />
        <path
           id="path841"
           d="m 54.428572,47.805505 3.704169,1e-6"
           style="fill:none;fill-opacity:1;stroke:none;stroke-width:1;stroke-linecap:butt;stroke-linejoin:miter;stroke-miterlimit:4;stroke-dasharray:none;stroke-opacity:1" />
        <path
           id="path845"
           d="m 54.429001,183.31845 h 3.704165"
           style="fill:none;fill-opacity:1;stroke:none;stroke-width:1;stroke-linecap:butt;stroke-linejoin:miter;stroke-miterlimit:4;stroke-dasharray:none;stroke-opacity:1" />
      </g>
      <path
         style="fill:#803300;stroke:#803300;stroke-width:0.055877;stroke-miterlimit:4;stroke-dasharray:none;stroke-dashoffset:0;stroke-opacity:1"
         d="M 0.19691962,106.28585 C 0.18515567,48.724086 0.18274055,1.4370092 0.19154897,1.2034605 0.2003283,0.96990115 0.4511181,0.7788196 0.74878937,0.7788196 H 1.2900099 L 1.3131578,105.46857 c 0.012738,57.57936 0.01775,104.86643 0.011136,105.08238 -0.0066,0.21588 -0.2581648,0.39262 -0.55900493,0.39262 H 0.21830719 Z"
         id="path1044" />
    </g>
  </g>
</svg>
