<svg width="540" height="463" version="1.1" viewBox="0 0 142.88 122.5" xmlns="http://www.w3.org/2000/svg" xmlns:xlink="http://www.w3.org/1999/xlink">
  <rect x="-1.2879e-14" y="2.5431e-7" width="142.88" height="122.5" ry="3.0429" fill="#ededed" stroke-linecap="round" stroke-linejoin="round" stroke-width="1.1126"/>
  <g>
    <path d="m25.329 118.77c12.395-5.7127 31.972-24.153 48.492-32.805 16.52-8.6513 66.086-26.419 68.704-32.783 2.6183-6.3639-29.403-5.9542-55.975-2.7485-26.573 3.2057-48.328 9.0535-64.363 21.952-16.035 12.898-22.723 29.683-21.15 39.789 1.5733 10.106 11.897 12.308 24.292 6.5948z" fill="none" stroke="#deaa87" stroke-width=".21791px"/>
    <path d="m60.764 78.701c-2.7939 1.6645-5.6975 3.4952-6.6391 5.4278s0.07852 3.9669 3.1542 4.1712c3.0757 0.20435 8.2067-1.4208 11.932-3.5203 3.7256-2.0995 6.0457-4.6735 5.7641-6.5425-0.28167-1.869-3.1654-3.033-5.9495-2.866-2.7841 0.16706-5.4681 1.6653-8.262 3.3297z" fill="none"/>
    <path transform="scale(.26458)" d="m37.191 458.67c-9.9204-2.3025-18.039-6.8672-23.071-12.971-3.1976-3.8792-6.937-11.275-8.4605-16.734-1.9931-7.141-1.8003-27.036 0.35978-37.143 2.5691-12.021 7.5387-25.861 13.977-38.929 23.427-47.544 65.189-86.888 121.02-114.01 5.641-2.7406 10.52-4.8873 10.842-4.7706s-3.0548 4.7122-7.5046 10.212c-5.6884 7.0309-9.862 11.392-14.057 14.689-6.7094 5.2738-9.1803 8.416-9.1803 11.675 0 1.8003-1.9851 4.6733-10.415 15.073-5.728 7.0668-10.715 13.605-11.081 14.528-0.42551 1.0719-1.0511 1.5323-1.7288 1.2722-0.60753-0.23313-2.1225 0.52362-3.5402 1.7684-1.363 1.1968-2.8092 1.9714-3.2138 1.7213-0.42771-0.26434-0.73557 0.274-0.73557 1.2863 0 1.3144-0.91863 2.338-3.75 4.1782-8.7968 5.7174-11.073 6.773-15.869 7.3581-3.8308 0.46738-4.1016 0.60564-2.6784 1.3673 1.4898 0.79731 1.2986 0.98675-3.2383 3.2082-6.9179 3.3873-18.072 10.95-21.111 14.315-4.1095 4.5487-4.4156 7.7777-0.9804 10.341 4.3209 3.2245 29.658 2.056 46.154-2.1286 17.02-4.3174 30.699-11.433 50.526-26.283 12.14-9.0926 18.285-15.286 17.959-18.1-0.42274-3.644-5.6821-4.6046-16.583-3.0289-2.7105 0.3918-5.012 0.6265-5.1142 0.52156-0.1023-0.10493 2.7959-4.2268 6.4404-9.1598l6.6264-8.969 5.9878-0.91456c17.106-2.6128 40.818-13.778 69.407-32.683 12.642-8.3593 20.51-15.404 20.51-18.364 0-1.2281-0.65348-2.2813-1.9361-3.1203-5.0317-3.2914-32.155 0.43254-55.049 7.558-2.4438 0.76059-4.4432 1.266-4.4432 1.1231 0-0.14285 2.5799-3.7689 5.7331-8.0578l5.7331-7.7981 13.017-3.6498c61.21-17.162 142.94-28.195 228.4-30.83 53.851-1.6605 91.805 2.5108 100.32 11.025 3.0019 3.0019 2.5018 6.2271-1.6019 10.331-12.946 12.946-44.96 28.431-152.31 73.674-116.12 48.939-118.45 50.231-200 111.07-50.345 37.556-64.872 47.498-82.5 56.459-10.125 5.1468-18.401 8.2682-29.643 11.179-10.009 2.5918-25.905 3.4137-33.214 1.7173zm13.386-50.05c23.241-4.053 55.904-24.866 62.781-40.005 1.8222-4.011 1.6527-5.8689-0.75518-8.2767-2.015-2.015-2.3251-2.0879-8.8819-2.0879-14.055 0-34.765 6.3483-50.707 15.544-16.246 9.3707-29.752 22.583-29.752 29.105 0 2.4642 2.9911 5.1331 6.6821 5.9621 4.6011 1.0334 13.95 0.92422 20.632-0.24104zm179.14-75.374c21.562-4.3941 43.694-16.473 51.442-28.076 2.4405-3.6547 2.8215-4.7613 2.8215-8.1949 0-3.7555-0.16859-4.1312-3.125-6.9639-3.7824-3.6241-8.253-5.2971-15.607-5.8406-10.043-0.74206-20.073 2.8314-37.343 13.305-18.941 11.487-25.353 17.927-25.353 25.465 0 9.9548 10.094 13.784 27.165 10.305zm107.75-89.354c22.17-3.4594 48.322-12.079 69.375-22.866 23.396-11.987 28.277-20.187 14.268-23.972-3.7627-1.0165-7.4213-1.2365-19.625-1.1803-16.584 0.0765-30.1 1.541-45 4.8761-37.954 8.4954-66.586 28.291-57.146 39.51 4.7689 5.6675 17.382 6.8688 38.128 3.6316z" fill="#deaa87"/>
    <path d="m53.835 86.686c1.4969-2.4874 2.3274-3.8674 5.2988-6.1072 2.9713-2.2398 4.422-2.5794 7.0369-3.1915 1.3217-0.17132 2.642-0.34245 3.8801-0.33149 1.2382 0.01096 2.3881 0.20385 3.0848 0.88492 0.69675 0.68107 0.93898 1.8495 1.1813 3.0182 0.301-0.46636 0.67673-1.0485 0.78639-1.7425 0.10967-0.69401 0.0981-2.421-1.0568-3.2194-1.1549-0.79833-3.4674-1.0187-5.441-0.79593-1.9736 0.22276-3.6139 0.88813-5.3926 1.794-1.7787 0.90582-2.765 1.4956-4.7006 2.7987-1.9356 1.3031-2.5596 1.8541-2.9704 2.2257-0.41082 0.37158-1.2135 1.1156-1.6 1.9s-0.38427 1.2455-0.32821 1.8041c0.05607 0.55866 0.13025 0.73992 0.22134 0.96249z" fill="#efccb4"/>
    <g>
      <path d="m142.43 53.413c-0.27503 0.46827-0.70421 1.199-0.84791 1.4362s-0.72647 1.1771-2.3946 2.4774-4.498 3.1971-9.0101 5.5831c-4.5122 2.386-10.646 5.2207-17.682 8.2288-7.036 3.0081-14.973 6.1894-20.801 8.599-5.8272 2.4096-9.5439 4.0475-12.505 5.4649-2.9608 1.4174-5.1657 2.6143-7.4021 3.9058-2.2364 1.2914-4.5042 2.6773-6.8981 4.3152-2.3939 1.6379-1.8845 1.2559-9.2369 6.2847-7.3525 5.0288-6.5119 4.4876-9.9138 6.9445-3.4019 2.4569-6.0476 4.6932-8.6502 6.5935-2.6026 1.9004-5.1618 3.4646-7.9777 4.885-2.8158 1.4204-5.888 2.6969-8.9057 3.2576s-5.981 0.40545-8.9441 0.25021c4.0604-0.38986 8.4191-0.80835 11.967-2.0092 3.5478-1.2008 7.4092-3.5643 11.503-6.4603s8.6846-6.486 13.626-10.187c4.9413-3.7008 10.233-7.5119 14.682-10.443s8.1503-5.0375 11.395-6.7384c3.2443-1.7009 6.0791-3.0238 9.5439-4.5357 3.4648-1.5119 7.5595-3.2128 11.686-4.9609 4.1263-1.7482 8.2838-3.5435 12.19-5.2286 3.9058-1.6852 7.5594-3.26 11.383-4.9294 3.8232-1.6694 7.8154-3.4333 10.816-4.8389 3.0002-1.4056 5.4718-2.6947 6.6151-3.3309s1.8653-1.0902 3.1906-2.1762c1.3253-1.086 1.7505-1.5294 2.5729-2.3871z" fill="#fca" stroke="#fca" stroke-width=".26458px"/>
      <g stroke-width=".18278px">
        <path d="m17.033 97.565c-4.5117 2.0249-8.0506 4.9248-9.6528 6.8992-1.6022 1.9744-1.2676 3.0232 0.53365 3.5061 1.8012 0.48287 5.0687 0.39998 8.7515-0.89451s7.7808-3.8004 10.491-6.3083c2.7105-2.5079 4.0334-5.0176 1.9528-5.6975-2.0806-0.6799-7.5648 0.47009-12.076 2.495z" fill="#c83737" stroke="#c83737"/>
        <path d="m27.182 81.286c-5.6584 1.8268-10.551 4.288-13.345 6.1952-2.7939 1.9072-3.489 3.2603-2.7567 3.993 0.73232 0.73265 2.8918 0.84481 5.7959 0.64128 2.904-0.20353 6.5524-0.72268 10.023-2.0721s6.7622-3.5288 9.8642-5.8287c3.102-2.2999 6.0138-4.7201 4.2576-5.334-1.7562-0.61389-8.1803 0.57849-13.839 2.4053z" fill="#ffd42a" stroke="#ffd42a"/>
        <path d="m49.957 61.585c-6.19 1.8588-11.62 4.5377-14.705 6.6192-3.085 2.0815-3.825 3.5656-2.3265 4.5942 1.4986 1.0286 5.2354 1.6015 9.5837 0.55905s9.3081-3.7001 14-6.5875c4.6916-2.8874 9.1147-6.0044 7.8512-7.0435-1.2634-1.0391-8.2133-3.24e-4 -14.403 1.8585z" fill="#5fd35f" stroke="#5fd35f"/>
        <path d="m93.265 53.531c-6.3855 1.5855-11.513 4.3959-13.463 6.7084s-0.72037 4.1269 2.7874 4.5247 9.2939-0.62073 14.796-2.3277c5.5016-1.7069 10.718-4.1021 13.596-6.0856s3.4165-3.5552-0.1357-4.1607c-3.5522-0.60547-11.195-0.24466-17.581 1.3409z" fill="#00aad4" stroke="#00aad4"/>
      </g>
      <path d="m31.82 83.867c21.106-28.554 42.212-57.107 52.577-71.731s9.9885-15.318-1.4553-1.7714c-11.444 13.547-33.954 41.333-56.466 69.121" fill="none" stroke="#000" stroke-width=".2623px"/>
      <path d="m31.82 83.867c-0.33096-1.3755-0.66183-2.7506-1.5525-3.4808-0.89064-0.73015-2.341-0.8156-3.7913-0.90106" fill="none" stroke="#000" stroke-width=".2623px"/>
    </g>
    <ellipse transform="matrix(.90658 -.42203 .4232 .90604 0 0)" cx="6.1477" cy="38.117" rx=".0076157" ry=".0076075" stroke="#000" stroke-width=".2623"/>
    <g stroke-width=".60474">
      <path d="m25.713 79.847c-0.1231 0.3238-0.36739 0.578-0.60408 0.82282-0.19067 0.18953-0.40494 0.35271-0.62393 0.50785l0.08147-0.02487c0.2152-0.15529 0.42592-0.31806 0.61375-0.50619 0.23997-0.24865 0.48593-0.50685 0.61713-0.83218l-0.0843 0.03281z"/>
      <path d="m26.249 79.712c-0.0037 0.03115-0.0035 0.06319-0.01218 0.0935-0.12662 0.48446-0.42591 0.91223-0.71095 1.3146-0.15767 0.20684-0.33032 0.40284-0.53719 0.5621-0.05972 0.04541-0.19449 0.14893-0.27695 0.16022-0.06057 0.0203-0.11575 0.02173-0.17681 0.0085l-0.07772 0.04489c0.06339 0.01545 0.12014 0.0135 0.18358-0.0071 0.11272-0.0481 0.18506-0.07268 0.28462-0.13572 0.26574-0.16758 0.47257-0.4075 0.66105-0.65487 0.28796-0.40878 0.5868-0.83953 0.72971-1.3253 0.0087-0.03114 0.01056-0.06374 0.01542-0.09549l-0.08352 0.03342z"/>
      <path d="m25.851 79.948c-0.08147 0.53075-0.41587 0.99757-0.72295 1.4224-0.22375 0.29111-0.46908 0.56463-0.74861 0.80306l0.08039-0.02561c0.27069-0.23879 0.50823-0.51057 0.72664-0.79762 0.31348-0.43526 0.64449-0.89944 0.74881-1.4364l-0.08433 0.03384z"/>
      <path id="path977" d="m25.512 80.054c-0.05466 0.18054-0.17545 0.33301-0.29476 0.47575-0.10054 0.11991-0.21973 0.2172-0.35322 0.29734l0.0817-0.0239c0.13227-0.08153 0.25045-0.17987 0.35076-0.29937 0.12083-0.14555 0.24378-0.30034 0.30042-0.48349l-0.08484 0.03397z" stroke-width=".60474"/>
    </g>
    <path id="path979" d="m23.962 80.82c-0.0076 0.33919-8.66e-4 0.68165-0.02711 1.0177-0.02199 0.27979-0.04268 0.37269-0.08636 0.643-0.05181 0.2808-0.12715 0.53021-0.27473 0.74795l0.11448-0.03944c0.13961-0.21738 0.21507-0.47384 0.26175-0.7497 0.04303-0.27298 0.06237-0.36217 0.08555-0.64433 0.02782-0.33907 0.02387-0.68448 0.0432-1.0252l-0.11676 0.05037z" stroke-width=".94317"/>
    <path d="m26.467 79.897c-0.0882 0.50981-0.42464 0.93662-0.72565 1.3401-0.29804 0.37632-0.6446 0.70956-1.0516 0.96622-0.14348 0.09058-0.20604 0.11695-0.3502 0.1873l0.07623-0.02244c0.1404-0.06976 0.2012-0.09587 0.34084-0.18572 0.40191-0.2576 0.74328-0.59092 1.0388-0.96428 0.30815-0.41155 0.64851-0.84086 0.75653-1.356l-0.08523 0.03418z" stroke-width=".60474"/>
    <g stroke-width=".94317">
      <path id="path983" d="m25.855 80.217c-0.3805 0.87589-1.0526 1.5062-1.651 2.1547-0.70911 0.74302-1.4489 1.4435-2.1975 2.1309l0.0799-0.02496c0.74018-0.6913 1.473-1.3933 2.183-2.1269 0.61565-0.65872 1.3005-1.2984 1.7052-2.1817 0 0-0.11952 0.04792-0.11952 0.04792z" stroke-width=".94317"/>
      <path id="path985" d="m26.402 80.236c-0.16857 0.66989-0.48284 1.267-0.83286 1.8068-0.10615 0.16358-0.2227 0.3167-0.33397 0.4752-0.52122 0.65665-1.1509 1.1754-1.8562 1.5352l0.10953-0.03104c0.69484-0.36234 1.3136-0.88231 1.8287-1.5317 0.11143-0.15862 0.22771-0.3124 0.33415-0.47599 0.35788-0.5501 0.68012-1.1541 0.86868-1.8288l-0.11782 0.051z" stroke-width=".94317"/>
      <path d="m27.379 80.208c-0.48464 0.53629-0.93544 1.1138-1.4188 1.6517-0.18225 0.20272-0.36976 0.39884-0.55467 0.59818-0.82724 0.86084-1.6682 1.7073-2.6053 2.4051-0.48321 0.35995-0.6057 0.4211-1.0907 0.71835l0.07985-0.0231c0.47796-0.29635 0.59551-0.3557 1.0728-0.71377 0.93545-0.70156 1.7745-1.551 2.6062-2.4066 0.18798-0.20053 0.37861-0.39768 0.56393-0.60162 0.49666-0.54688 0.95956-1.1361 1.4686-1.6673l-0.12193 0.03969z"/>
      <path d="m27.969 80.261c-0.54552 0.68363-1.1097 1.3487-1.7123 1.962-0.1986 0.20231-0.4049 0.39405-0.60741 0.59099-1.0568 0.98944-2.1931 1.8647-3.3902 2.6163-0.20329 0.11391-0.40033 0.24706-0.61755 0.32838l-0.09478 0.07249c0.27246-0.13029 0.54527-0.26038 0.8012-0.42813 1.1851-0.75406 2.3101-1.6288 3.3613-2.6089 0.2042-0.19761 0.41205-0.39028 0.61257-0.59305 0.61695-0.62379 1.1948-1.2995 1.7655-1.9814l-0.11866 0.04056z"/>
      <path id="path993" d="m28.229 80.64c-0.47935 0.81794-1.0139 1.5859-1.6079 2.2853-0.16759 0.19738-0.3434 0.38456-0.5151 0.57681-0.62309 0.64935-1.3006 1.2402-2.0713 1.6403-0.06713 0.0087-0.1303 0.03383-0.19662 0.04747l-0.10429 0.07589c0.14519-0.02961 0.27954-0.0799 0.41067-0.15641 0.75494-0.40086 1.4164-0.9898 2.0276-1.6304 0.4391-0.49292 0.60582-0.66296 1.0174-1.1941 0.41339-0.53335 0.78651-1.11 1.156-1.6878l-0.11714 0.04197z" stroke-width=".94317"/>
      <path id="path995" d="m28.553 80.419c-0.17333 0.63656-0.48704 1.2097-0.79294 1.7513-0.545 0.96509-0.55858 0.93534-1.1955 1.8439-0.58654 0.75373-1.2202 1.4558-1.9129 2.0724-0.34842 0.31006-0.49724 0.40726-0.84811 0.66419l0.09051-0.02729c0.34024-0.25385 0.48577-0.35173 0.82394-0.65705 0.68248-0.61777 1.306-1.3194 1.8884-2.0655 0.67566-0.95901 0.62393-0.83921 1.2111-1.8502 0.32126-0.55311 0.66112-1.1327 0.85378-1.7819l-0.11782 0.051z" stroke-width=".94317"/>
      <path id="path997" d="m29.072 81.12c-0.01397 0.04237-0.02466 0.08669-0.04112 0.12741-0.04162 0.10345-0.2397 0.52525-0.26659 0.58122-0.2155 0.44872-0.35218 0.72673-0.61208 1.1675-0.15001 0.25406-0.31147 0.49783-0.46718 0.74678-0.79277 1.1905-1.7668 2.1985-2.8485 3.0121-0.14648 0.11025-0.29995 0.20798-0.44994 0.31194-0.12311 0.07457-0.24682 0.14735-0.37022 0.22111l0.09245-0.02781c0.12028-0.0733 0.2407-0.14612 0.36109-0.21902 0.14658-0.10392 0.29734-0.20056 0.4409-0.30978 1.0739-0.81761 2.041-1.8272 2.834-3.01 0.15859-0.25004 0.32216-0.4955 0.47568-0.75028 0.27804-0.46127 0.40825-0.7144 0.64046-1.1786 0.01026-0.02241 0.25022-0.51138 0.2836-0.58956 0.0184-0.04319 0.03088-0.09012 0.04638-0.13502 0 0-0.11907 0.05152-0.11907 0.05152z" stroke-width=".94317"/>
      <path d="m29.609 81.234c0.01018 0.89938-0.3774 1.6646-0.71778 2.3953-0.46176 0.92627-1.0079 1.8018-1.7212 2.4668-0.33957 0.31659-0.5537 0.44236-0.92185 0.69056-0.12581 0.07231-0.25243 0.143-0.3784 0.21497l0.09224-0.02672c0.12355-0.07099 0.24715-0.1421 0.37064-0.21342 0.36304-0.24806 0.57516-0.37391 0.91044-0.68878 0.71077-0.66813 1.2538-1.5463 1.7192-2.4691 0.35458-0.73981 0.74752-1.5093 0.76407-2.42l-0.11729 0.05068z"/>
      <path id="path1001" d="m30.332 81.896c-0.07023 0.64725-0.39512 1.1927-0.66453 1.7233-0.4816 0.87981-1.0947 1.6431-1.8041 2.2634-0.12518 0.10998-0.25821 0.20781-0.38731 0.31169-0.34501 0.26044-0.71846 0.4597-1.1079 0.62214l-0.09052 0.06923c0.45056-0.18923 0.88463-0.42122 1.2857-0.71878 0.12781-0.10361 0.2593-0.20172 0.38342-0.31121 0.70936-0.62479 1.321-1.3917 1.8091-2.2689 0.27778-0.53886 0.60747-1.0877 0.69395-1.7422l-0.11782 0.05101z" stroke-width=".94317"/>
      <path id="path1003" d="m30.845 82.835c-0.03706 0.31596-0.25323 0.62375-0.39816 0.86226-0.25952 0.42709-0.39366 0.6143-0.67887 1.0377-0.61855 0.87441-1.359 1.5962-2.1775 2.1982-0.40167 0.29537-0.55219 0.37397-0.95696 0.61669l0.08637-0.02515c0.39845-0.24195 0.54327-0.3186 0.93958-0.61234 0.8243-0.61124 1.5532-1.3271 2.1836-2.203 0.3011-0.4402 0.42005-0.60375 0.69583-1.0443 0.15548-0.24884 0.37916-0.55235 0.42523-0.88119l-0.11907 0.05152z" stroke-width=".94317"/>
      <path id="path1005" d="m31.082 84.066c-0.24032 0.65989-0.6431 1.2041-1.0329 1.7338-0.33567 0.3999-0.68323 0.79264-1.0797 1.1103-0.35666 0.28467-0.74822 0.50169-1.1404 0.71563-0.19418 0.10352-0.39594 0.18795-0.59919 0.26801l-0.09443 0.07243c0.26855-0.10834 0.53419-0.22422 0.78868-0.36795 0.38915-0.21501 0.77892-0.43115 1.1328-0.71572 0.39594-0.31878 0.74258-0.71296 1.0789-1.1122 0.39897-0.53765 0.81046-1.0909 1.0655-1.7558l-0.11907 0.05154z" stroke-width=".94317"/>
      <path d="m31.614 84.759c-0.46185 0.70617-1.0377 1.2789-1.6352 1.8157-0.46241 0.38537-0.92404 0.78592-1.4447 1.0667 0 0 0.11535-0.03393 0.11535-0.03393 0.50913-0.28236 0.96018-0.6802 1.4144-1.0601 0.60557-0.54474 1.1869-1.1264 1.6672-1.8294l-0.11666 0.04187z"/>
      <path d="m26.916 79.945c-0.28873 0.71254-0.66453 1.3671-1.0873 1.9669-0.11813 0.1675-0.24552 0.32534-0.3682 0.48817-0.54158 0.67236-1.1385 1.2747-1.7683 1.8289l0.09898-0.03181c0.62064-0.55674 1.2093-1.1595 1.7486-1.8245 0.12336-0.16323 0.25134-0.3215 0.37017-0.48954 0.43071-0.6088 0.80914-1.2735 1.1236-1.9826l-0.1177 0.04389z"/>
      <path d="m26.181 80.086c-0.22888 0.85767-0.53556 1.671-0.8829 2.4569-0.18661 0.39535-0.36875 0.79774-0.63834 1.1174l0.11534-0.03967c0.25861-0.32182 0.43184-0.72171 0.61311-1.1122 0.34647-0.79589 0.65195-1.6175 0.90852-2.4691l-0.11574 0.04691z"/>
    </g>
    <path id="path1019" d="m27.252 79.464c-0.10041 0.28542-0.23546 0.56574-0.4047 0.81746-0.04914 0.07324-0.10389 0.14247-0.15584 0.21366-0.23506 0.29068-0.51555 0.53618-0.82124 0.74927l0.07661-0.02357c0.30227-0.21373 0.57838-0.46053 0.81211-0.74891 0.05239-0.07165 0.10759-0.14123 0.15721-0.21472 0.17256-0.2555 0.30817-0.53974 0.42011-0.82594l-0.0843 0.03281z" stroke-width=".60474"/>
    <path d="m26.849 79.836c-0.07132 0.33977-0.22482 0.64808-0.39243 0.94914-0.17094 0.29519-0.41248 0.53345-0.67297 0.74915l0.07681-0.02465c0.25738-0.21642 0.49546-0.45552 0.66466-0.74932 0.1701-0.30532 0.32568-0.61753 0.40898-0.95911l-0.08523 0.03418z" stroke-width=".60474"/>
    <g stroke-width=".94317">
      <path d="m28.018 80.245c-0.02961 0.56721-0.24436 1.0831-0.45956 1.558-0.2884 0.63647-0.43453 0.86605-0.77089 1.4657-0.36225 0.64028-0.7538 1.2534-1.19 1.8209l0.09947-0.03378c0.42103-0.56821 0.80008-1.1781 1.155-1.8101 0.33903-0.6043 0.48216-0.83292 0.78033-1.4702 0.22727-0.48578 0.4526-1.0029 0.50414-1.5817l-0.11854 0.0512z"/>
      <path id="path1025" d="m27.398 80.52c-0.01047 0.07102-0.01242 0.14489-0.02937 0.21337-0.08021 0.33074-0.21574 0.68901-0.33879 0.98853-0.15925 0.38768-0.37945 0.86228-0.57125 1.2259-0.09489 0.17971-0.19924 0.35146-0.29878 0.5273-0.31834 0.52026-0.66072 1.0425-1.1182 1.3986l0.11622-0.03622c0.44336-0.35915 0.77369-0.87706 1.0826-1.3913 0.31942-0.57138 0.60995-1.1372 0.87073-1.7551 0.11808-0.27989 0.27957-0.68815 0.3653-1.0022 0.01897-0.06957 0.02437-0.1449 0.03661-0.21731 0 0-0.1149 0.04934-0.1149 0.04934z" stroke-width=".94317"/>
      <path id="path1027" d="m27.085 79.849c-0.0054 0.04112-0.0079 0.08361-0.01756 0.12305-0.07872 0.34943-0.21943 0.67445-0.34575 0.9964-0.17716 0.45158-0.16285 0.4099-0.34906 0.85155-0.2386 0.5466-0.50433 1.0873-0.88358 1.5047-0.02752 0.02561-0.05527 0.05128-0.08328 0.07615l0.11691-0.03835c0.02658-0.02518 0.05297-0.05137 0.07935-0.07722 0.36866-0.42128 0.62652-0.95986 0.86171-1.5015 0.17529-0.41746 0.34819-0.83645 0.51187-1.2617 0.08236-0.21415 0.14859-0.37731 0.20505-0.59888 0.01105-0.04123 0.0151-0.08519 0.0221-0.12781l-0.11907 0.05152z" stroke-width=".94317"/>
      <path id="path1029" d="m28.976 81.289c-0.45562 0.95415-1.0272 1.8107-1.6046 2.6553l0.07832-0.02803c0.58132-0.85937 1.1584-1.7264 1.6449-2.6727l-0.11917 0.04427z" stroke-width=".94317"/>
      <path d="m29.533 81.512c-0.09434 0.23904-0.23937 0.44093-0.38039 0.63858-0.3069 0.43015-0.64229 0.78876-0.99874 1.1585-0.40473 0.38614-0.21007 0.20644-0.58262 0.54095l0.09851-0.03168c0.36398-0.33254 0.17352-0.15344 0.57076-0.53773 0.36462-0.3801 0.68743-0.72612 1.0067-1.1631 0.14835-0.20287 0.30724-0.40834 0.40484-0.6574l-0.11907 0.05152z"/>
      <path d="m30.244 82.029c-0.39567 0.6902-0.90692 1.269-1.4173 1.8341-0.45051 0.47241-0.94254 0.89645-1.4981 1.1927 0 0 0.11418-0.03362 0.11418-0.03362 0.5446-0.29859 1.0263-0.72168 1.4694-1.1887 0.51799-0.57531 1.0359-1.1628 1.4514-1.8514l-0.12 0.04627z"/>
      <path d="m30.703 82.83c-0.0153 0.03882-0.02695 0.0795-0.04458 0.11628-0.08351 0.1756-0.18192 0.31086-0.29657 0.46408-0.29951 0.39993-0.63111 0.7533-0.97154 1.1026-0.46359 0.45689-0.96718 0.86136-1.5206 1.1634-0.0011-7.3e-4 -0.0022-0.0025-0.0059-0.0077-0.02666 0.0061-0.05362 0.01229-0.08007 0.01937l-0.10234 0.0766c0.16151-0.03808 0.05767-0.0082 0.3012-0.12364 0.5433-0.30338 1.0373-0.70644 1.4935-1.1583 0.3432-0.35227 0.67652-0.70977 0.98267-1.1082 0.1304-0.16972 0.22148-0.28558 0.31363-0.4738 0.01883-0.03871 0.03239-0.08095 0.04856-0.1216l-0.11847 0.04941z"/>
      <path id="path1037" d="m31.349 83.258c-0.4101 0.7668-1.0394 1.3198-1.6528 1.8407-0.2454 0.20969-0.50827 0.38865-0.77434 0.56132l0.10797-0.03196c0.25919-0.17178 0.51527-0.34968 0.7545-0.55669 0.39962-0.34321 0.7807-0.69396 1.1358-1.1002 0.20325-0.2323 0.40306-0.46567 0.54801-0.75759l-0.11916 0.04429z" stroke-width=".94317"/>
    </g>
    <path id="path976" d="m31.514 82.461c-0.0569 0.18109-0.1466 0.35133-0.2429 0.51417-0.05623 0.09513-0.1145 0.18912-0.1762 0.2808-0.07144 0.10597-0.14871 0.20784-0.22304 0.31178-0.30632 0.40328-0.6598 0.77013-1.0467 1.097-0.16743 0.14139-0.22489 0.1789-0.39321 0.3011-0.04624 0.03032-0.09168 0.06165-0.13815 0.09171l0.19008-0.05802c0.04037-0.02967 0.08078-0.05894 0.12179-0.08755 0.15048-0.11727 0.2091-0.15866 0.35962-0.29214 0.37415-0.3318 0.71704-0.69928 1.0251-1.0928 0.07918-0.10588 0.1606-0.21008 0.23759-0.31752 0.12932-0.18049 0.23159-0.33872 0.34505-0.52669 0.04123-0.06846 0.11245-0.19095 0.15224-0.27288 0.0062-0.01274 0.01037-0.02738 0.01625-0.04085l-0.22761 0.09175z" stroke-width=".60474"/>
    <path id="path980" d="m31.115 82.083c-0.0058 0.02052-0.0096 0.04154-0.0166 0.06166-0.11995 0.35488-0.31535 0.69729-0.52192 1.0074-0.08669 0.1302-0.18188 0.25454-0.27284 0.38181-0.37735 0.48904-0.82566 0.9164-1.3101 1.2982-0.18646 0.14699-0.26361 0.19726-0.44783 0.32551-0.10315 0.0722-0.21246 0.13385-0.32485 0.19013 0 0 0.21564-0.06281 0.21564-0.06281 0.09657-0.05373 0.19006-0.11227 0.27828-0.17906 0.16453-0.12349 0.23233-0.17209 0.40036-0.3119 0.46695-0.38906 0.90441-0.81463 1.2819-1.2918 0.09464-0.12876 0.19204-0.2555 0.28389-0.38624 0.23437-0.33359 0.45375-0.6816 0.62908-1.0502 0.01106-0.02398 0.02069-0.04891 0.03093-0.0735 0 0-0.22588 0.09109-0.22588 0.09109z" stroke-width=".60474"/>
    <g stroke-width=".94317">
      <path d="m31.266 84.269c-0.41974 0.54129-0.88447 1.0308-1.3613 1.5002-0.14643 0.14423-0.29626 0.28364-0.44438 0.42546-0.4958 0.45086-1.0053 0.89165-1.5782 1.2092-0.04965 0.02743-0.10071 0.05135-0.15115 0.07694 0.19098-0.10564 0.23223-0.11719 0.10922-0.07136l-0.26661 0.20314c0.20195-0.07843 0.04974-0.01638 0.44539-0.21513 0.5847-0.32402 1.0969-0.78507 1.5977-1.2528 0.66762-0.64495 1.3277-1.3009 1.9683-1.9828l-0.3187 0.10761z"/>
      <path id="path984" d="m31.038 83.832c-0.06811 0.24154-0.17957 0.46096-0.3008 0.66426-0.30877 0.51768-0.52601 0.79592-0.93198 1.2391-0.20497 0.22386-0.42565 0.42678-0.63848 0.64017-0.55206 0.5273-1.1618 0.96295-1.8184 1.3015-0.09982 0.05183-0.20465 0.09156-0.30926 0.13123-0.3231 0.12396-0.31215 0.11314-0.61178 0.18775-0.0618 0.0073-0.12293 0.01699-0.18462 0.026l-0.2372 0.17294c0.06946-0.01345 0.13879-0.02646 0.20831-0.03983 0.09626-0.0278 0.194-0.05126 0.28925-0.0825 0.36116-0.12245 0.64134-0.25216 0.99287-0.43817 0.39105-0.20644 0.7682-0.45274 1.1201-0.73443 0.21428-0.17143 0.41503-0.36448 0.62254-0.54671 0.49509-0.49312 0.80579-0.77705 1.2565-1.3279 0.15534-0.18985 0.29714-0.39501 0.4397-0.59886 0.15798-0.22587 0.31333-0.45336 0.4234-0.72009l-0.32016 0.12656z" stroke-width=".94317"/>
      <path id="path986" d="m30.373 83.067c-0.04726 0.23794-0.14612 0.45554-0.24862 0.65923-0.07805 0.15501-0.1577 0.30925-0.24706 0.45461-0.367 0.59708-0.53802 0.78567-0.97123 1.3492-0.51689 0.6509-1.0835 1.2441-1.701 1.7601-0.15242 0.12794-0.30934 0.24876-0.47041 0.36196-0.34021 0.24037-0.27461 0.20758-0.50936 0.28898-0.17739 0.04848-0.22836 0.07698-0.40215 0.07865-0.04028 1.1e-4 -0.08091-8e-3 -0.12145-0.01273l-0.25916 0.18007c0.04638 0.0035 0.09268 0.0088 0.13854 0.0069 0.19344-0.01011 0.25095-0.04272 0.44757-0.10198 0.17006-0.08343 0.34412-0.15758 0.51006-0.25036 0.25639-0.14498 0.57536-0.40132 0.79457-0.5931 0.59413-0.52027 1.1411-1.1102 1.6483-1.7448 0.31449-0.39219 0.78522-0.96312 1.0804-1.3899 0.10317-0.14931 0.1939-0.31094 0.28618-0.4706 0.1082-0.18699 0.2157-0.38857 0.30132-0.59523 0.01524-0.0365 0.02527-0.07639 0.03784-0.11466l-0.31437 0.13281z" stroke-width=".94317"/>
      <path d="m29.324 82.254c-0.43091 0.5163-0.82384 1.0749-1.2246 1.6244-0.16829 0.23078-0.33752 0.46051-0.50625 0.69083-0.47978 0.64252-0.97655 1.2682-1.5089 1.8494-0.25488 0.27828-0.45286 0.47966-0.73349 0.7101-0.08875 0.07286-0.18336 0.1357-0.27507 0.20363-0.2483 0.15194-0.28517 0.17483-0.11053 0.06823l-0.24159 0.18723c0.46928-0.23698 0.27668-0.11831 0.59062-0.32843 0.08143-0.06536 0.16595-0.12592 0.24416-0.19626 0.2635-0.23278 0.42327-0.41049 0.66389-0.68968 0.50712-0.58812 0.98459-1.2115 1.4615-1.8343 0.6247-0.83014 1.2441-1.6749 1.9654-2.3899l-0.32466 0.10563z"/>
      <path id="path990" d="m28.621 80.948c1.86e-4 0.02174 0.0031 0.04381 0.0011 0.06562-0.03082 0.27926-0.13978 0.58173-0.24112 0.82046-0.2135 0.50324-0.3505 0.72984-0.61148 1.2183-0.38767 0.68785-0.81201 1.3425-1.2673 1.9653-0.23278 0.31843-0.55546 0.73667-0.81598 1.0318-0.11685 0.13227-0.2418 0.25418-0.3627 0.38133-0.25778 0.24616-0.53141 0.47008-0.83194 0.64318-0.05825 0.03363-0.11417 0.07771-0.17914 0.09171 0.16125-0.0981 0.18606-0.09602 0.04978-0.05957l-0.26241 0.19546c0.22838-0.06417 0.10746-0.02362 0.49083-0.21754 0.3421-0.17181 0.63732-0.43714 0.91784-0.7147 0.11309-0.1249 0.2301-0.24512 0.33926-0.37496 0.23649-0.28144 0.56163-0.72131 0.77302-1.0183 0.44944-0.63145 0.88241-1.2816 1.2733-1.9692 0.1274-0.22278 0.25683-0.44385 0.38229-0.66834 0.24244-0.4338 0.32377-0.56448 0.49955-0.99503 0.06723-0.16487 0.13537-0.34637 0.1618-0.53345l-0.31636 0.13778z" stroke-width=".94317"/>
      <path id="path992" d="m28.255 80.583c-0.16522 0.33543-0.33797 0.66495-0.5101 0.9949-0.10291 0.19709-0.20328 0.39616-0.30876 0.59107-0.1213 0.22403-0.24754 0.44388-0.37133 0.66581-0.36474 0.62146-0.73996 1.2351-1.1514 1.812-0.11016 0.15437-0.2203 0.30918-0.3399 0.45302-0.25802 0.31045-0.38902 0.41186-0.67308 0.66907-0.21702 0.18881-0.45617 0.33652-0.69976 0.47529 0 0 0.27606-0.08308 0.27606-0.08308 0.22042-0.13587 0.43612-0.28073 0.63212-0.46027 0.25204-0.23947 0.41308-0.37762 0.64039-0.6627 0.11251-0.14119 0.21426-0.29466 0.31733-0.44609 0.39435-0.58006 0.75289-1.1943 1.1183-1.8015 0.58808-1.0057 0.19399-0.33522 0.75686-1.2848 0.15027-0.25361 0.29202-0.49752 0.44529-0.74662 0.04684-0.07614 0.13079-0.2065 0.18652-0.29338l-0.31881 0.11611z" stroke-width=".94317"/>
    </g>
    <g stroke-width=".60474">
      <path d="m27.876 79.553c0.0014 0.15523-0.05357 0.31478-0.10325 0.45892-0.10539 0.30582-0.14476 0.37631-0.28491 0.69903-0.09028 0.17314-0.17469 0.34951-0.27089 0.51949-0.20616 0.36423-0.45047 0.73869-0.69416 1.0791-0.19367 0.27057-0.43702 0.58178-0.65946 0.83371-0.08923 0.10109-0.18517 0.19594-0.27776 0.29392-0.17977 0.17298-0.36825 0.33868-0.58013 0.47179-0.03694 0.0227-0.13677 0.02736-0.11342 0.06377 0.02349 0.03669 0.07818-0.03855 0.11726-0.05782l-0.18445 0.1241c0.08946-0.04208 0.18046-0.08078 0.26832-0.12602 0.03463-0.01644 0.06662-0.03864 0.09778-0.06113 0.18837-0.13038 0.35386-0.2898 0.51267-0.45389 0.08407-0.0953 0.17113-0.18808 0.252-0.2861 0.19482-0.23607 0.44338-0.57316 0.61388-0.81881 0.22497-0.32415 0.49765-0.74723 0.70174-1.0823 0.10776-0.17689 0.20986-0.35722 0.31479-0.53582 0.1998-0.39089 0.19667-0.36601 0.34982-0.72442 0.0674-0.15788 0.1379-0.31945 0.1676-0.48964 0 0-0.22762 0.09175-0.22762 0.09175z"/>
      <path d="m27.364 79.761c-0.01193 0.03416-0.02258 0.0689-0.03647 0.10236-0.04542 0.10896-0.11735 0.24916-0.17137 0.3493-0.09356 0.17339-0.19283 0.3436-0.29806 0.51019-0.06047 0.09565-0.12422 0.18926-0.18631 0.28392-0.29704 0.43288-0.62076 0.84875-0.98081 1.2314-0.04713 0.04994-0.09602 0.09829-0.14397 0.14746-0.11115 0.11064-0.23145 0.21125-0.36105 0.29943 0 0 0.21625-0.06605 0.21625-0.06605 0.11511-0.08771 0.22239-0.18484 0.32096-0.29086 0.04355-0.04785 0.08781-0.09517 0.13072-0.1437 0.342-0.38755 0.65208-0.80188 0.95044-1.2234 0.27869-0.41372 0.55484-0.83228 0.77628-1.28l-0.21656 0.08028z"/>
      <path d="m26.268 79.868c-0.0326 0.14694-0.09306 0.28791-0.15792 0.42302-0.0501 0.10446-0.10191 0.20833-0.15868 0.3094-0.07239 0.12888-0.14638 0.25724-0.22839 0.3803-0.09877 0.14795-0.20886 0.28812-0.31328 0.43218-0.40281 0.50208-0.85239 0.96479-1.3308 1.3951-0.16661 0.1498-0.22347 0.19463-0.38481 0.32824-0.0404 0.0306-0.08013 0.06215-0.12053 0.09274 0 0 0.19392-0.0611 0.19392-0.0611 0.03426-0.02875 0.06806-0.05851 0.10191-0.08787 0.57607-0.52576 1.1161-1.0902 1.612-1.6923 0.11332-0.1474 0.23174-0.29102 0.33998-0.44218 0.09079-0.12673 0.17374-0.25885 0.25651-0.3909 0.14069-0.22446 0.27776-0.46158 0.38612-0.70416 0.01111-0.0241 0.01926-0.04935 0.02892-0.07398 0 0-0.22528 0.09092-0.22528 0.09092z"/>
      <path id="path1000" d="m26.862 79.556c0.0022 0.18274-0.03887 0.37542-0.09252 0.54662-0.06904 0.21841-0.14646 0.43454-0.23545 0.64563-0.23713 0.56257-0.48713 1.0109-0.77068 1.5513-0.13263 0.23265-0.25663 0.47043-0.39792 0.69794-0.38996 0.62784-0.86014 1.2119-1.4281 1.6883-0.07211 0.0601-0.14922 0.11396-0.22386 0.17088-0.05541 0.03348-0.11061 0.06763-0.16592 0.1014l0.18306-0.05512c0.04658-0.03153 0.09292-0.06372 0.13964-0.09519 0.06408-0.05447 0.1311-0.10542 0.19298-0.1623 0.71835-0.66065 1.2426-1.4968 1.7048-2.3475 0.60787-1.1586 0.21407-0.38739 0.7844-1.5564 0.11157-0.22861 0.2318-0.45307 0.33739-0.68448 0.08705-0.19085 0.16271-0.38493 0.19689-0.59165l-0.22469 0.09066z" stroke-width=".60474"/>
      <path d="m26.645 79.751c0.0031 0.11918-0.03073 0.23696-0.06685 0.34921-0.03607 0.11127-0.07464 0.22194-0.11937 0.33006-0.16719 0.40439-0.24312 0.52288-0.45371 0.91944-0.33027 0.58071-0.70843 1.134-1.1321 1.6507-0.17952 0.21896-0.2407 0.28048-0.42364 0.47953-0.12059 0.13163-0.25175 0.25241-0.38556 0.37025 0 0 0.20007-0.06408 0.20007-0.06408 0.11663-0.11498 0.2311-0.23205 0.33768-0.3565 0.15819-0.18579 0.2302-0.26625 0.38512-0.46768 0.40004-0.52003 0.7548-1.0734 1.0889-1.6373 0.18431-0.33126 0.34049-0.60209 0.50812-0.94034 0.05629-0.1136 0.10768-0.22972 0.15883-0.34576 0.03318-0.07523 0.06597-0.15046 0.09405-0.22759 0.01654-0.04544 0.02526-0.10182 0.03383-0.15076l-0.2253 0.09083z"/>
    </g>
    <g stroke-width=".94317">
      <path id="path1008" d="m27.694 79.985c-0.01014 0.27444-0.08427 0.53669-0.15765 0.78734-0.0889 0.30362-0.14934 0.46494-0.25345 0.7644-0.20397 0.54884-0.41448 1.0956-0.67968 1.6018-0.17719 0.33829-0.26028 0.45825-0.46104 0.7818-0.27168 0.42091-0.56663 0.81898-0.87687 1.1989-0.26798 0.32815-0.54878 0.64223-0.82358 0.96224-0.37921 0.45553-0.75109 0.91961-1.1355 1.3689-0.02987 0.03496-0.0606 0.0683-0.09029 0.10353 0 0 0.29465-0.09953 0.29465-0.09953 0.02555-0.0336 0.05153-0.06619 0.07734-0.09934 0.35431-0.45335 0.70738-0.90823 1.0739-1.3475 0.26711-0.3172 0.53876-0.6294 0.79882-0.9549 0.21946-0.2746 0.38745-0.49564 0.5939-0.78564 0.09806-0.1375 0.19271-0.27862 0.28905-0.41802 0.23023-0.36285 0.27048-0.40962 0.46997-0.78784 0.26796-0.50827 0.47807-1.0585 0.68708-1.6082 0.13257-0.3646 0.26484-0.72847 0.38032-1.103 0.04963-0.16105 0.08156-0.26466 0.11588-0.42317 5e-3 -0.02614 0.0085-0.05296 0.01348-0.07962l-0.31635 0.13777z" stroke-width=".94317"/>
      <path d="m28.867 81.07c-0.01854 0.0489-0.03503 0.0992-0.05552 0.14667-0.13462 0.31151-0.28546 0.61715-0.44235 0.9107-0.25704 0.48092-0.55217 0.98648-0.83562 1.4422-0.15897 0.25559-0.32484 0.50463-0.48728 0.75693-0.64305 0.9566-1.3253 1.8792-2.0943 2.6939-0.09345 0.09904-0.19064 0.19327-0.28599 0.28984-0.3115 0.30847-0.65987 0.55876-1.0299 0.76457-0.31226 0.16218 0.3052-0.14891 0.08244-0.04328l-0.2698 0.20807c0.16486-0.07887 0.32855-0.16111 0.48728-0.25402 0.34345-0.20137 0.66426-0.4481 0.94897-0.74765 0.08729-0.09441 0.17643-0.18646 0.26209-0.28294 0.37458-0.42222 0.7252-0.8736 1.0647-1.336 0.1526-0.20773 0.30426-0.41665 0.45191-0.62963 0.15779-0.22768 0.30957-0.46142 0.4644-0.69205 0.16506-0.25335 0.33264-0.50428 0.49516-0.76007 0.53807-0.84694 1.0519-1.717 1.5636-2.588l-0.31995 0.12031z"/>
      <path id="path1012" d="m29.944 81.794c-0.01986 0.04925-0.03697 0.09317-0.06039 0.1416-0.14486 0.29559-0.32002 0.56944-0.48494 0.84777-0.5611 0.92982-1.2115 1.773-1.8849 2.5844-0.151 0.18196-0.30524 0.36002-0.45794 0.53988-0.47663 0.55549-0.97494 1.0849-1.5124 1.5584-0.2716 0.23956-0.33065 0.27878-0.60403 0.49053-0.21092 0.156-0.42893 0.29943-0.65469 0.42658-0.05226 0.02998-0.10646 0.05606-0.15912 0.08543-0.04281 0.02386 0.0925-0.03541 0.12991-0.06859 0.02958-0.02842-0.07198 0.03166-0.10732 0.04942-0.10454 0.04601-0.05516 0.02542-0.1469 0.06391l-0.26573 0.2045c0.10021-0.04455 0.04661-0.01965 0.16018-0.07259 0.4472-0.20515 0.87991-0.44592 1.2752-0.75844 0.25822-0.20851 0.31476-0.24862 0.57233-0.48304 0.51569-0.4687 0.99608-0.98631 1.4473-1.5396 0.47608-0.57709 0.9484-1.1582 1.4116-1.7501 0.29393-0.37573 0.51932-0.66456 0.79099-1.0509 0.08343-0.11853 0.16234-0.24165 0.24342-0.36264 0.21464-0.33738 0.43634-0.66905 0.63142-1.0242l-0.32316 0.1194z" stroke-width=".94317"/>
      <path id="path1016" d="m30.341 82.538c-7.29e-4 0.01986 4e-5 0.0411-2e-3 0.0613-0.01138 0.10935-0.031 0.20041-0.05745 0.30626-0.07194 0.28739-0.1716 0.55534-0.27286 0.82635-0.19194 0.47863-0.42163 0.93155-0.68455 1.354-0.15613 0.25088-0.22489 0.34096-0.39168 0.57702-0.25029 0.35106-0.52346 0.67809-0.81991 0.97394-0.17866 0.17819-0.23586 0.2229-0.41978 0.38353-0.17768 0.15048-0.36743 0.28066-0.5633 0.39819-0.05408 0.03344-0.11094 0.06065-0.16488 0.09425-0.03215 0.02101 0.13648-0.06235 0.09948-0.05491-0.04969 0.01227-0.09404 0.0429-0.14155 0.06299-0.14752 0.06428-0.2939 0.13564-0.45142 0.16946l-0.27774 0.20364c0.17103-0.02985 0.32581-0.11874 0.48494-0.18571 0.44877-0.20352 0.88581-0.43749 1.2695-0.77214 0.06475-0.05875 0.13037-0.1164 0.19499-0.17512 0.37443-0.35262 0.72252-0.74384 1.0264-1.1825 0.16667-0.24178 0.225-0.31944 0.38177-0.57591 0.26144-0.42748 0.49278-0.88297 0.69038-1.3611 0.04781-0.11308 0.09824-0.22423 0.1433-0.33914 0.03488-0.0887 0.06552-0.18018 0.09643-0.27135 0.06976-0.20482 0.13647-0.4141 0.17713-0.63323l-0.31797 0.13839z" stroke-width=".94317"/>
      <path id="path1018" d="m28.954 84.984c-0.42085 0.72206-0.93145 1.3586-1.4331 1.9974-0.5159 0.62926-1.0433 1.2509-1.6359 1.7809-0.25205 0.22565-0.3078 0.2581-0.56093 0.44395-0.09705-0.15143-0.25445 0.32744-0.36664 0.21112-0.04743-0.04935 0.10367-0.05891 0.15514-0.08919l-0.25296 0.19417c0.2425-0.1187 0.48905-0.22547 0.70917-0.3917 0.07703-0.06029 0.15575-0.11765 0.23098-0.18086 0.68687-0.57872 1.2658-1.3096 1.8573-2.0136 0.39897-0.49233 0.79377-0.98864 1.1835-1.4915 0.0558-0.07215 0.30019-0.38895 0.38407-0.50274 0.01829-0.02479 0.03527-0.05107 0.05309-0.07655l-0.32316 0.11936z" stroke-width=".94317"/>
      <path id="path1020" d="m28.745 84.197c-0.0075 0.02314-0.01549 0.0465-0.02501 0.06853-0.11473 0.27268-0.25884 0.52662-0.40832 0.77086-0.25695 0.41963-0.31752 0.49031-0.60692 0.90025-0.5604 0.74783-1.1712 1.4461-1.8606 2.0277-0.09698 0.0807-0.19745 0.15577-0.29533 0.2351-0.20432 0.15495-0.41576 0.29765-0.63524 0.42366-0.04518 0.02624-0.1853 0.09705-0.13811 0.07468 0.41116-0.19377 0.13904-0.07708 0.09672-0.0592-0.01785 0.0079-0.03618 0.01275-0.05358 0.02151l-0.26941 0.20548c0.01988-0.0084 0.03898-0.01966 0.0599-0.02525 0.41654-0.17685 0.80421-0.42234 1.1657-0.71179 0.09214-0.07654 0.18622-0.15041 0.27628-0.23018 0.66973-0.59096 1.259-1.2942 1.8231-2.0201 0.31793-0.43501 0.35761-0.47957 0.65162-0.91774 0.17482-0.26048 0.34959-0.52731 0.50032-0.81038 0.01487-0.02705 0.02561-0.05628 0.03832-0.0847l-0.31952 0.13152z" stroke-width=".94317"/>
      <path d="m29.856 85.418c-0.0062 0.02432-0.0099 0.04961-0.01945 0.07217-0.18395 0.45602-0.43423 0.86526-0.69988 1.2518-0.35828 0.52133-0.51638 0.69348-0.90851 1.1717-0.42957 0.48972-0.86872 0.97348-1.3628 1.3743-0.1501 0.12168-0.1996 0.15122-0.3466 0.2504-0.03494 0.02001-0.06979 0.03959-0.10551 0.05796 0 0 0.30185-0.08997 0.30185-0.08997 0.02925-0.01849 0.05867-0.03784 0.08788-0.05663 0.12767-0.09496 0.17166-0.12426 0.30179-0.24019 0.45234-0.39854 0.8524-0.87115 1.2504-1.341 0.1505-0.18679 0.3038-0.37024 0.45167-0.55988 0.23119-0.29684 0.67381-0.89209 0.89033-1.2138 0.09602-0.1428 0.18313-0.29429 0.27376-0.4423 0.05738-0.0938 0.1167-0.18572 0.17015-0.28288 0.0153-0.02501 0.02163-0.05696 0.03248-0.0856l-0.31837 0.13213z"/>
      <path d="m30.632 84.131c-0.04117 0.18181-0.11854 0.34659-0.19541 0.50603-0.12225 0.25334-0.17498 0.34034-0.3171 0.59964-0.34496 0.6016-0.73285 1.1672-1.1754 1.6676-0.06583 0.07462-0.13516 0.14476-0.20274 0.21742-0.15258 0.15651-0.30894 0.30755-0.47427 0.44539l0.30729-0.0982c0.14431-0.13623 0.28149-0.28182 0.41661-0.43036 0.17894-0.20467 0.22629-0.25349 0.40349-0.48058 0.34261-0.43917 0.65306-0.91261 0.94664-1.401 0.07092-0.1168 0.14414-0.23135 0.21298-0.34995 0.07531-0.12982 0.19038-0.3524 0.2609-0.49357 0.04345-0.08638 0.09096-0.1776 0.1236-0.27322 0.0047-0.01541 0.0079-0.03166 0.01126-0.04762l-0.31798 0.13838z"/>
      <path id="path1030" d="m27.71 82.513c-0.2047 0.63997-0.52889 1.2058-0.86741 1.7437-0.1051 0.16684-0.21707 0.32714-0.32561 0.49072-0.3082 0.4417-0.63447 0.86757-1.0021 1.2402-0.11253 0.11409-0.15851 0.15102-0.27073 0.2489 0 0 0.29005-0.09359 0.29005-0.09359 0.43512-0.42332 0.80373-0.93166 1.1517-1.4555 0.38322-0.5894 0.26587-0.39839 0.64137-1.0198 0.24849-0.41109 0.50058-0.82215 0.69525-1.2778l-0.31268 0.12262z" stroke-width=".94317"/>
      <path d="m26.547 84.256c-0.19273 0.23625-0.38379 0.47467-0.57379 0.71421-0.3947 0.48564-0.80529 0.95438-1.2558 1.3678-0.13689 0.11958-0.28019 0.2291-0.42901 0.32831 0 0 0.31956-0.09789 0.31956-0.09789 0.13218-0.09863 0.26025-0.20445 0.38262-0.31864 0.43174-0.42357 0.82369-0.89863 1.2249-1.3614 0.16065-0.18756 0.22359-0.26375 0.37962-0.43853 0.08389-0.09402 0.1752-0.1817 0.25497-0.28098 0.0086-0.01112 0.01502-0.02174 0.02208-0.03284l-0.32496 0.12024z"/>
      <path id="path1034" d="m26.37 82.615c-0.01712 0.03328-0.03261 0.06861-0.05073 0.10127-0.23486 0.42436-0.51395 0.81571-0.81058 1.1775-0.1033 0.12597-0.21214 0.24507-0.31816 0.36773-0.43612 0.46782-0.88764 0.92264-1.3944 1.2858-0.06524 0.04688-0.13317 0.08864-0.19956 0.13327-0.02637 0.01628-0.28161 0.17398-0.32435 0.18562-0.05218 0.01343 0.10087-0.04298 0.14344-0.07929 0.02689-0.02319-0.06317 0.02756-0.09517 0.03961-0.02358 0.0094-0.04782 0.01587-0.07177 0.02432l-0.26548 0.20018c0.30767-0.11276 0.59908-0.27241 0.87835-0.45192 0.06251-0.04349 0.12626-0.08515 0.18766-0.1306 0.48451-0.36386 0.91296-0.81657 1.3345-1.2715 0.10825-0.12357 0.21892-0.24435 0.32468-0.37107 0.34919-0.41795 0.67184-0.86796 0.98107-1.3289l-0.31944 0.11805z" stroke-width=".94317"/>
      <path id="path1036" d="m25.685 82.456c-0.17635 0.27444-0.36761 0.53523-0.55813 0.79542-0.34239 0.47326-0.73971 0.88354-1.1609 1.2556-0.10524 0.09389-0.2173 0.17648-0.33131 0.25571 0 0 0.30604-0.09427 0.30604-0.09427 0.10149-0.07782 0.20118-0.15888 0.29554-0.24809 0.40872-0.3834 0.79934-0.79648 1.1471-1.2571 0.20907-0.27384 0.4148-0.55138 0.62855-0.82l-0.32691 0.11279z" stroke-width=".94317"/>
      <path id="path1038" d="m23.978 82.505c-0.05695 0.16779-0.10276 0.34209-0.17067 0.5034-0.03895 0.09281-0.08281 0.18215-0.12419 0.27309-0.26701 0.51459-0.57712 0.99877-0.93889 1.4203-0.05113 0.0585-0.10467 0.11411-0.15697 0.17115-0.09837 0.0947-0.1434 0.14697-0.24921 0.22134-0.03228 0.02281-0.13515 0.07708-0.10066 0.05935 0.38838-0.19178 0.19237-0.09876 0.08717-0.07931l-0.27447 0.20099c0.1836-0.02944 0.30759-0.11559 0.48823-0.21299 0.12137-0.06613 0.21913-0.17609 0.31628-0.27943 0.04778-0.05584 0.09691-0.11062 0.14311-0.16851 0.34857-0.43455 0.64812-0.92396 0.92987-1.4239 0.05172-0.09587 0.10623-0.18948 0.15499-0.28774 0.08348-0.16797 0.14215-0.35435 0.21554-0.52931l-0.32076 0.13063z" stroke-width=".94317"/>
    </g>
    <path id="path1040" d="m25.629 80.06c-0.09541 0.21133-0.24392 0.39638-0.40806 0.55862-0.05528 0.05478-0.1146 0.10531-0.17186 0.15794-0.25334 0.21138-0.52991 0.39315-0.8214 0.54734 0 0 0.21446-0.0625 0.21446-0.0625 0.27302-0.15589 0.53148-0.33606 0.7727-0.53773 0.13638-0.12447 0.21181-0.18702 0.33477-0.32348 0.11672-0.12967 0.21613-0.27514 0.30636-0.42393 0 0-0.22698 0.084-0.22698 0.084z" stroke-width=".60474"/>
    <path d="m25.337 79.961c-0.07375 0.11889-0.16587 0.22648-0.25939 0.3302-0.0408 0.04527-0.08164 0.09045-0.12478 0.13357-0.04735 0.04723-0.09765 0.09124-0.14649 0.13692-0.21978 0.19576-0.46282 0.36354-0.72455 0.498 0 0 0.21471-0.06256 0.21471-0.06256 0.24672-0.13676 0.47535-0.30348 0.68547-0.4915 0.05063-0.04626 0.10226-0.09175 0.15134-0.13975 0.04507-0.04405 0.08788-0.09027 0.13101-0.13626 0.09304-0.09913 0.18475-0.20085 0.26997-0.30686 0.01135-0.01401 0.02155-0.02904 0.03242-0.04364 0 0-0.22964 0.08194-0.22964 0.08194z" stroke-width=".60474"/>
    <path id="path1044" d="m25.562 80.137c0.0068 0.23252-0.02122 0.46388-0.08966 0.68667-0.02551 0.08302-0.05856 0.16363-0.08784 0.24544-0.13408 0.31324-0.31873 0.60167-0.56196 0.84169-0.11983 0.1182-0.168 0.14761-0.29865 0.2445-0.11508 0.07191-0.13145 0.08705-0.24924 0.14164-0.03188 0.01468 0.07162-0.02121 0.09349-0.049 0.01662-0.02003-0.04939 0.01731-0.07446 0.02505-0.03292 0.0098-0.06837 0.01729-0.10219 0.02426l-0.19642 0.12638c0.0261-0.0067 0.09086-0.02123 0.11273-0.0281 0.13272-0.03961 0.22951-0.09113 0.36675-0.15666 0.03739-0.01821 0.07374-0.03757 0.10928-0.05856 0.04262-0.02535 0.08304-0.05441 0.1248-0.08117 0.12548-0.09868 0.16595-0.12325 0.28118-0.24251 0.23662-0.244 0.41425-0.53375 0.54969-0.84427 0.07438-0.19404 0.1151-0.28253 0.16585-0.48066 0.04076-0.1594 0.05178-0.32382 0.08294-0.48488 0 0-0.22589 0.09109-0.22589 0.09109z" stroke-width=".60474"/>
    <path id="path1050" d="m25.366 80.066c-0.0041 0.01278-0.0073 0.02585-0.01233 0.03827-0.02977 0.06877-0.07146 0.14168-0.11058 0.20376-0.07084 0.11258-0.14523 0.21687-0.22827 0.3211-0.04756 0.05959-0.09807 0.11668-0.14708 0.17502-0.22686 0.2563-0.4794 0.48898-0.74661 0.7027-0.13502 0.10811-0.18852 0.14406-0.32438 0.24182-0.11987 0.08498-0.24262 0.16591-0.37016 0.23888l0.2181-0.06449c0.11489-0.07186 0.22605-0.14948 0.33477-0.23038 0.12728-0.09619 0.17854-0.13206 0.30595-0.2373 0.26495-0.21843 0.51691-0.45312 0.74873-0.70645 0.051-0.05928 0.10342-0.11739 0.15293-0.17798 0.07664-0.09393 0.17582-0.22872 0.24594-0.32902 0.04284-0.0614 0.10245-0.14955 0.14046-0.21887 0.0081-0.01469 0.01349-0.02986 0.02031-0.04481l-0.22769 0.08808z" stroke-width=".60474"/>
    <g stroke-width=".94317">
      <path d="m26.007 82.382c-0.10354 0.29168-0.27554 0.57766-0.43157 0.82254-0.32409 0.50853-0.43153 0.62712-0.80734 1.1232-0.64769 0.81434-1.3405 1.5807-2.0966 2.2543-0.38025 0.3388-0.50897 0.4253-0.89695 0.71833-0.2834 0.19967-0.57243 0.39277-0.88013 0.54306-0.02956 0.01509 0.1182-0.04228 0.08548-0.05158-0.04043-0.01328-0.07472 0.03065-0.11307 0.04265-0.02475 0.01175-0.05232 0.01502-0.07812 0.02295l-0.26356 0.19843c0.22224-0.0736 0.41776-0.178 0.6304-0.28965 0.28029-0.14758 0.54382-0.33167 0.80153-0.52314 0.35037-0.27745 0.50534-0.39024 0.84961-0.7057 0.74275-0.68161 1.4221-1.4533 2.076-2.2497 0.48514-0.60628 0.45826-0.55517 0.88786-1.153 0.1856-0.25817 0.38032-0.52242 0.52852-0.81757 0.01076-0.02077 0.01815-0.04508 0.0273-0.06754l-0.31951 0.13153z"/>
      <path d="m25.131 81.353c-0.11909 0.37242-0.30884 0.7078-0.49258 1.0326-0.30892 0.54605-0.35716 0.60545-0.7124 1.1675-0.67374 1.0053-1.4271 1.9308-2.2651 2.7426-0.41432 0.40137-0.6286 0.56707-1.0541 0.92048-0.50477 0.38457-0.26497 0.2105-0.71715 0.52642 0 0 0.22622-0.06974 0.22622-0.06974 0.40384-0.30318 0.18854-0.13586 0.64422-0.50506 0.39042-0.34134 0.60555-0.51946 0.98849-0.90069 0.83488-0.83127 1.5935-1.7628 2.2932-2.7545 0.15026-0.2198 0.30311-0.43715 0.45072-0.65962 0.2481-0.37411 0.37694-0.58895 0.59846-0.96562 0.09572-0.16274 0.22508-0.38011 0.31351-0.56154 0.01688-0.03287 0.02863-0.07038 0.04292-0.10521l-0.31629 0.1328z"/>
      <path d="m25.209 82.13c-0.0012 0.03115-2.85e-4 0.06262-0.0036 0.09327-0.03621 0.2792-0.12926 0.56727-0.21075 0.82436-0.11748 0.37034-0.18662 0.55108-0.32048 0.92424-0.27126 0.7175-0.57982 1.4126-0.94616 2.0602-0.21121 0.37335-0.36125 0.59574-0.58956 0.95083-0.35195 0.52222-0.73022 1.0185-1.1633 1.4465-0.20151 0.19918-0.29891 0.27567-0.50599 0.45161-0.17696 0.14394-0.36122 0.27556-0.55124 0.396 0 0 0.30746-0.09291 0.30746-0.09291 0.16779-0.11882 0.33185-0.24452 0.48905-0.38128 0.26191-0.23449 0.51882-0.4738 0.75549-0.74356 0.30857-0.35159 0.58204-0.74319 0.84886-1.1402 0.20121-0.31854 0.3962-0.61906 0.58378-0.95058 0.36866-0.65163 0.67919-1.3507 0.95894-2.0683 0.21006-0.53213 0.1762-0.43401 0.35889-0.94043 0.10037-0.2782 0.21265-0.56768 0.28404-0.86242 8e-3 -0.03367 0.01183-0.06926 0.01857-0.10384l-0.31388 0.13676z"/>
      <path d="m27.17 84.204c-0.17879 0.48008-0.46496 0.88254-0.73941 1.2814-0.29101 0.41168-0.62936 0.76864-0.98083 1.1055-0.25012 0.23984-0.60057 0.55313-0.8697 0.76587-0.14987 0.11926-0.3066 0.22696-0.45985 0.3405-0.43774 0.30663-0.90118 0.56362-1.3722 0.80023-0.05685 0.02936-0.11616 0.05199-0.17354 0.07955-0.3474 0.156-0.21062 0.09674-0.52053 0.22569l-0.21833 0.16843c0.37407-0.16488 0.74108-0.33998 1.106-0.52834 0.25326-0.13061 0.63901-0.34139 0.87709-0.48783 0.1586-0.09667 0.31163-0.20473 0.46738-0.30715 0.15415-0.11425 0.31175-0.22284 0.46266-0.3427 0.25833-0.20518 0.6256-0.53957 0.86695-0.76644 0.36934-0.34753 0.73366-0.7051 1.0418-1.1306 0.29825-0.42205 0.59903-0.84834 0.8321-1.3303l-0.31885 0.12782z"/>
      <path id="path1060" d="m27.929 84.573c-0.03812 0.13546-0.10993 0.25188-0.18365 0.3598-0.14984 0.21958-0.22859 0.30775-0.40405 0.52773-0.71262 0.83686-1.5229 1.5516-2.3768 2.1818-0.18444 0.13671-0.37448 0.26372-0.56167 0.39562-0.16788 0.10962-0.33448 0.2213-0.50384 0.32776-0.24238 0.15221-0.52915 0.31898-0.78105 0.4586-0.04824 0.02706-0.40227 0.21799-0.4824 0.25325-0.04073 0.01807 0.07825-0.04401 0.1175-0.06599-0.02994 0.01314-0.05935 0.02828-0.08931 0.04194l-0.25648 0.19919c0.0341-0.0163 0.06808-0.03421 0.10201-0.05108 0.13224-0.06727 0.26477-0.1341 0.39679-0.20202 0.56299-0.29287 1.1007-0.64291 1.6311-1.0022 0.18161-0.13011 0.36499-0.2571 0.54453-0.39084 0.46561-0.34692 0.71278-0.54693 1.155-0.93177 0.32928-0.2861 0.67732-0.60547 0.98713-0.92252 0.11448-0.11686 0.2225-0.24235 0.33378-0.36345 0.20842-0.23761 0.28724-0.31705 0.46612-0.55255 0.08914-0.11778 0.18137-0.24472 0.22388-0.40095l-0.31794 0.13858z" stroke-width=".94317"/>
      <path d="m25.42 82.176c-0.04478 0.23248-0.13298 0.44904-0.21872 0.65864-0.17644 0.43102-0.18788 0.4302-0.41507 0.88831-0.11468 0.20024-0.22536 0.4041-0.34394 0.6009-0.37227 0.6178-0.77674 1.2229-1.2222 1.7659-0.37486 0.45692-0.47738 0.53488-0.88684 0.93481-0.35447 0.32593-0.7285 0.62296-1.1213 0.88515-0.20179 0.13458-0.28809 0.17983-0.48687 0.29289 0 0 0.26545-0.07819 0.26545-0.07819 0.17936-0.1093 0.25779-0.15325 0.44101-0.2815 0.36998-0.25915 0.72196-0.55012 1.0554-0.86817 0.41016-0.40717 0.49277-0.46749 0.86889-0.93141 0.59349-0.73216 1.0955-1.5622 1.6013-2.3825 0.35101-0.62136 0.2215-0.36393 0.48417-0.91627 0.10798-0.22713 0.22663-0.45434 0.29652-0.7068l-0.31795 0.13856z"/>
      <path d="m25.908 81.177c-0.20377 0.33243-0.43543 0.63718-0.66915 0.93857-0.3936 0.50318-0.73432 1.0617-1.1027 1.591-0.1042 0.14978-0.21156 0.29634-0.3174 0.44444-0.4474 0.61773-0.94567 1.1766-1.4883 1.6752-0.31456 0.28906-0.42405 0.37008-0.74432 0.63001-0.36396 0.27188-0.71878 0.5718-1.1203 0.77211 0.42083-0.21409 0.27689-0.13057 0.17362-0.10633l-0.2813 0.20671c0.1509-0.02447 0.28259-0.12482 0.41666-0.19083 0.36171-0.2029 0.68216-0.48785 1.0135-0.74557 0.38235-0.32058 0.7601-0.64727 1.1155-1.0081 0.30597-0.31041 0.46726-0.49991 0.74363-0.84514 0.11796-0.14743 0.23197-0.29954 0.3479-0.44944 0.33509-0.45041 0.31435-0.41625 0.62528-0.85752 0.28525-0.40467 0.55848-0.82272 0.86763-1.2019 0.25306-0.31706 0.4979-0.64303 0.74403-0.96783l-0.32436 0.1144z"/>
      <path d="m24.789 80.838c-0.06163 0.23564-0.18954 0.47443-0.29635 0.6746-0.17279 0.32402-0.30891 0.54132-0.49918 0.85934-0.44433 0.6987-0.93544 1.3522-1.4605 1.9638-0.27875 0.32471-0.37419 0.41913-0.65925 0.72127-0.50636 0.51231-1.0376 0.99015-1.5826 1.4454-0.172 0.138-0.34651 0.27221-0.52997 0.38987-0.03907 0.0246-0.07836 0.04793-0.11835 0.07032-0.03027 0.01733-0.12178 0.06621-0.09097 0.05058 0.07386-0.03781 0.14686-0.07723 0.22057-0.1152-0.01471 6e-3 -0.02959 0.01099-0.04401 0.01895l-0.27199 0.20759c0.01704-0.0076 0.0335-0.01409 0.05055-0.0207 0.11693-0.05999 0.23459-0.11854 0.35096-0.18002 0.24518-0.12978 0.4587-0.32407 0.67928-0.49803 0.52931-0.45333 1.0506-0.92057 1.5382-1.4342 0.28007-0.30649 0.35737-0.38408 0.63159-0.71341 0.51848-0.62261 0.99939-1.2877 1.4645-1.9682 0.39713-0.61795 0.20393-0.30578 0.54567-0.87739 0.06954-0.1164 0.1408-0.23136 0.20888-0.34899 0.04947-0.0857 0.1247-0.21794 0.16545-0.3245 0.0077-0.01802 0.01103-0.03856 0.01578-0.05827l-0.31797 0.13839z"/>
    </g>
    <path d="m31.726 82.274c-0.44106-1.4748-1.5674-2.4953-3.1158-2.823-0.7673-0.1624-1.3264-0.40442-1.2425-0.53782 0.17294-0.27491 11.325-14.042 24.497-30.241 24.744-30.432 38.218-46.572 38.662-46.315 0.32234 0.18579-5.691 8.8-16.876 24.175-5.5844 7.6765-37.377 50.881-40.85 55.513l-0.8171 1.0898z"/>
    <ellipse transform="matrix(.90658 -.42203 .4232 .90604 0 0)" cx="-8.8984" cy="82.965" rx=".0026926" ry=".0026897" stroke="#000" stroke-width=".2623"/>
    <ellipse transform="matrix(.90658 -.42203 .4232 .90604 0 0)" cx="-8.8984" cy="82.965" rx=".0026926" ry=".0026897" stroke="#000" stroke-width=".2623"/>
    <use transform="matrix(1.5836 .16649 -.27924 .94421 6.3662 3.2083)" width="100%" height="100%" xlink:href="#path977"/>
    <use transform="matrix(1.5836 .16649 -.27924 .94421 9.84 1.1294)" width="100%" height="100%" xlink:href="#path979"/>
    <use transform="matrix(1.5836 .16649 -.27924 .94421 9.9079 1.6347)" width="100%" height="100%" xlink:href="#path983"/>
    <use transform="matrix(1.5836 .16649 -.27924 .94421 7.8634 1.1805)" width="100%" height="100%" xlink:href="#path985"/>
    <use transform="matrix(1.5836 .16649 -.27924 .94421 6.669 -.25191)" width="100%" height="100%" xlink:href="#path993"/>
    <use transform="matrix(1.5836 .16649 -.27924 .94421 4.3955 -.17512)" width="100%" height="100%" xlink:href="#path995"/>
    <use transform="matrix(1.5836 .16649 -.27924 .94421 4.3637 -.83242)" width="100%" height="100%" xlink:href="#path997"/>
    <use transform="matrix(1.5836 .16649 -.27924 .94421 .95314 -.86755)" width="100%" height="100%" xlink:href="#path1001"/>
    <use transform="matrix(1.5836 .16649 -.27924 .94421 1.6405 -1.6876)" width="100%" height="100%" xlink:href="#path1003"/>
    <use transform="matrix(1.5836 .16649 -.27924 .94421 2.0959 -3.3228)" width="100%" height="100%" xlink:href="#path1005"/>
    <use transform="matrix(1.5836 .16649 -.27924 .94421 4.5628 2.1736)" width="100%" height="100%" xlink:href="#path1019"/>
    <use transform="matrix(1.5836 .16649 -.27924 .94421 6.3609 .4481)" width="100%" height="100%" xlink:href="#path1025"/>
    <use transform="matrix(1.5836 .16649 -.27924 .94421 3.3853 1.6727)" width="100%" height="100%" xlink:href="#path1027"/>
    <use transform="matrix(1.5836 .16649 -.27924 .94421 .32161 .29974)" width="100%" height="100%" xlink:href="#path1029"/>
    <use transform="matrix(1.5836 .16649 -.27924 .94421 .11205 -2.0581)" width="100%" height="100%" xlink:href="#path1037"/>
    <use transform="matrix(1.5836 .16649 -.27924 .94421 -1.6783 -.017659)" width="100%" height="100%" xlink:href="#path976"/>
    <use transform="matrix(1.5836 .16649 -.27924 .94421 1.5181 -.63657)" width="100%" height="100%" xlink:href="#path980"/>
    <use transform="matrix(1.5836 .16649 -.27924 .94421 1.1164 -3.2725)" width="100%" height="100%" xlink:href="#path984"/>
    <use transform="matrix(1.5836 .16649 -.27924 .94421 2.5264 -3.0611)" width="100%" height="100%" xlink:href="#path986"/>
    <use transform="matrix(1.5836 .16649 -.27924 .94421 5.81 -.68534)" width="100%" height="100%" xlink:href="#path990"/>
    <use transform="matrix(1.5836 .16649 -.27924 .94421 6.6855 .22185)" width="100%" height="100%" xlink:href="#path992"/>
    <use transform="matrix(1.5836 .16649 -.27924 .94421 6.1317 .59034)" width="100%" height="100%" xlink:href="#path1000"/>
    <use transform="matrix(1.5836 .16649 -.27924 .94421 6.6444 .63494)" width="100%" height="100%" xlink:href="#path1008"/>
    <use transform="matrix(1.6072 .16879 -.2834 .95725 4.5192 -2.3974)" width="100%" height="100%" xlink:href="#path1012"/>
    <use transform="matrix(1.5836 .16649 -.27924 .94421 .87903 -1.9559)" width="100%" height="100%" xlink:href="#path1016"/>
    <use transform="matrix(1.5836 .16649 -.27924 .94421 4.3681 -3.9426)" width="100%" height="100%" xlink:href="#path1018"/>
    <use transform="matrix(1.5836 .16649 -.27924 .94421 5.043 -3.3337)" width="100%" height="100%" xlink:href="#path1020"/>
    <use transform="matrix(1.5836 .16649 -.27924 .94421 4.1516 -1.1077)" width="100%" height="100%" xlink:href="#path1030"/>
    <use transform="matrix(1.5836 .16649 -.27924 .94421 6.5077 -.73509)" width="100%" height="100%" xlink:href="#path1034"/>
    <use transform="matrix(1.5836 .16649 -.27924 .94421 7.6126 -.83895)" width="100%" height="100%" xlink:href="#path1036"/>
    <use transform="matrix(1.5836 .16649 -.27924 .94421 12.123 .36118)" width="100%" height="100%" xlink:href="#path1038"/>
    <use transform="matrix(1.5836 .16649 -.27924 .94421 7.838 2.6363)" width="100%" height="100%" xlink:href="#path1040"/>
    <use transform="matrix(1.5836 .16649 -.27924 .94421 7.3128 2.5831)" width="100%" height="100%" xlink:href="#path1044"/>
    <use transform="matrix(1.5836 .16649 -.27924 .94421 8.2168 1.4779)" width="100%" height="100%" xlink:href="#path1050"/>
    <use transform="translate(4.2409 -1.7228)" width="100%" height="100%" xlink:href="#path1060"/>
    <use transform="translate(3.1295 -1.7211)" width="100%" height="100%" xlink:href="#path1060"/>
    <use transform="translate(2.5222 -1.888)" width="100%" height="100%" xlink:href="#path1060"/>
    <use transform="translate(2.7002 -2.4166)" width="100%" height="100%" xlink:href="#path1060"/>
    <use transform="translate(2.7254 -2.5064)" width="100%" height="100%" xlink:href="#path1060"/>
    <use transform="translate(2.865 -2.9401)" width="100%" height="100%" xlink:href="#path1060"/>
    <use transform="translate(3.1613 -1.6296)" width="100%" height="100%" xlink:href="#path1060"/>
    <use transform="translate(1.2469 -1.7943)" width="100%" height="100%" xlink:href="#path1060"/>
    <use transform="translate(2.0802 -2.247)" width="100%" height="100%" xlink:href="#path1060"/>
    <use transform="translate(1.6402 -2.5517)" width="100%" height="100%" xlink:href="#path1060"/>
    <use transform="translate(2.1444 -.96656)" width="100%" height="100%" xlink:href="#path1060"/>
    <use transform="translate(-.25678 -2.2175)" width="100%" height="100%" xlink:href="#path1060"/>
    <use transform="translate(.91455 -2.1558)" width="100%" height="100%" xlink:href="#path1060"/>
    <use transform="translate(.19818 -1.3535)" width="100%" height="100%" xlink:href="#path1060"/>
    <use transform="translate(-.22954 -1.3958)" width="100%" height="100%" xlink:href="#path1060"/>
    <use transform="translate(-.27838 -1.9541)" width="100%" height="100%" xlink:href="#path1060"/>
    <use transform="translate(.18303 -2.1613)" width="100%" height="100%" xlink:href="#path1060"/>
    <use transform="translate(-.77509 -2.4134)" width="100%" height="100%" xlink:href="#path1060"/>
    <use transform="translate(-.96072 -2.7927)" width="100%" height="100%" xlink:href="#path1060"/>
    <use transform="translate(-.28365 -1.5224)" width="100%" height="100%" xlink:href="#path1060"/>
    <use transform="translate(.51828 -1.8963)" width="100%" height="100%" xlink:href="#path1060"/>
    <use transform="translate(.90149 -2.7626)" width="100%" height="100%" xlink:href="#path1060"/>
    <use transform="translate(-.57914 -2.1893)" width="100%" height="100%" xlink:href="#path1060"/>
    <use transform="translate(-.069023 -1.534)" width="100%" height="100%" xlink:href="#path1060"/>
    <use transform="translate(-.58793 -1.8345)" width="100%" height="100%" xlink:href="#path1060"/>
    <use transform="translate(-.47415 -2.2727)" width="100%" height="100%" xlink:href="#path1060"/>
    <use transform="translate(.35608 -2.0558)" width="100%" height="100%" xlink:href="#path1060"/>
    <use transform="translate(-.47538 -.86742)" width="100%" height="100%" xlink:href="#path1060"/>
    <use transform="translate(1.4781 -.68953)" width="100%" height="100%" xlink:href="#path1060"/>
    <use transform="translate(1.4279 .1643)" width="100%" height="100%" xlink:href="#path1060"/>
    <use transform="translate(-.20243 -.81031)" width="100%" height="100%" xlink:href="#path1060"/>
    <use transform="translate(-.39791 -.43371)" width="100%" height="100%" xlink:href="#path1060"/>
    <use transform="translate(.074729 -.28194)" width="100%" height="100%" xlink:href="#path1060"/>
    <use transform="translate(1.144 .65874)" width="100%" height="100%" xlink:href="#path1060"/>
    <use transform="translate(.78459 -.63796)" width="100%" height="100%" xlink:href="#path1060"/>
    <use transform="translate(1.0916 .37148)" width="100%" height="100%" xlink:href="#path1060"/>
    <use transform="translate(1.9842 .35695)" width="100%" height="100%" xlink:href="#path1060"/>
    <use transform="translate(.98266 1.2439)" width="100%" height="100%" xlink:href="#path1060"/>
    <use transform="translate(1.4613 .8335)" width="100%" height="100%" xlink:href="#path1060"/>
    <use transform="translate(2.3802 1.3392)" width="100%" height="100%" xlink:href="#path1060"/>
    <use transform="translate(1.7906 1.1723)" width="100%" height="100%" xlink:href="#path1060"/>
    <use transform="translate(1.2942 .8833)" width="100%" height="100%" xlink:href="#path1060"/>
    <g>
      <path d="m28.348 80.049c-0.09552 0.1883-0.23186 0.35229-0.36265 0.5166-0.28047 0.33567-0.59961 0.63688-0.92492 0.92845l0.29046-0.11916c0.3068-0.30012 0.61634-0.59871 0.899-0.92201 0.14712-0.17598 0.3-0.35026 0.41731-0.54831l-0.31921 0.14442z"/>
      <path d="m29.961 80.818c-0.05223 0.13815-0.14455 0.25736-0.23682 0.37072-0.08074 0.09919-0.16327 0.19709-0.25028 0.29082-0.35978 0.38751-0.46765 0.46975-0.8738 0.84136-0.4357 0.38388-0.8883 0.748-1.3499 1.1001-0.12857 0.09807-0.39552 0.29913-0.54423 0.39688-0.05142 0.0338-0.10609 0.06236-0.15913 0.09354l0.28079-0.10874c0.0426-0.02786 0.08638-0.054 0.12782-0.08357 0.14075-0.10045 0.35762-0.2731 0.48366-0.37378 0.43858-0.35035 0.87076-0.70872 1.2932-1.0784 0.37966-0.33849 0.59652-0.52151 0.9507-0.87528 0.10002-0.09991 0.19578-0.20407 0.29008-0.3094 0.11313-0.12636 0.23247-0.2597 0.30024-0.41783l-0.31232 0.15359z"/>
      <path d="m30.182 81.161c-0.26367 0.38401-0.57664 0.73194-0.90421 1.0621-0.09513 0.09588-0.19342 0.18857-0.29013 0.28286-0.2087 0.2032-0.42736 0.39556-0.64741 0.58622l0.26511-0.10811c0.19997-0.18578 0.3991-0.37249 0.59263-0.56503 0.2095-0.20798 0.3799-0.37398 0.58379-0.58978 0.24713-0.26155 0.48204-0.53426 0.71994-0.80409l-0.31972 0.13584z"/>
      <path d="m30.456 81.332c-0.02572 0.08017-0.07372 0.14933-0.12011 0.21874-0.04219 0.06314-0.0845 0.12623-0.12904 0.18774-0.19 0.26242-0.20635 0.27129-0.42928 0.53672-0.49127 0.55736-1.0615 1.0399-1.6808 1.4491-0.08059 0.05324-0.16374 0.10251-0.24561 0.15376 0.09374-0.0663 0.07874-0.04987-0.06548 0.01296l-0.24214 0.19197c0.28496-0.1301 0.09509-0.03833 0.55614-0.30163 0.21702-0.14238 0.28209-0.18087 0.50345-0.3467 0.49918-0.37396 0.96462-0.78993 1.3869-1.2493 0.27076-0.3073 0.23686-0.26018 0.47246-0.55738 0.05229-0.06597 0.10379-0.13258 0.15445-0.1998 0.05907-0.07837 0.12033-0.15549 0.15378-0.24877l-0.31475 0.15262z"/>
      <path d="m29.721 80.623c-0.52677 0.42652-1.1134 0.77236-1.6878 1.1295-0.3255 0.20271-0.65991 0.39037-0.99756 0.57188-0.18595 0.09996-0.37242 0.19546-0.56529 0.28106-0.02833 0.0094-0.05665 0.01886-0.08498 0.0283l-0.2551 0.19877c0.03336-0.01212 0.06673-0.02424 0.10009-0.03636 0.21213-0.10087 0.41798-0.21129 0.62351-0.32513 0.32414-0.17954 0.58468-0.32828 0.91512-0.52275 0.14598-0.08591 0.29024-0.17474 0.43536-0.26211 0.6192-0.38437 1.2514-0.75273 1.8337-1.1925l-0.31697 0.12934z"/>
      <path d="m29.372 80.492c-0.1838 0.10612 0.09858-0.0549 0.07365-0.04168-0.07801 0.04139-0.15438 0.08579-0.23158 0.12869-0.10463 0.05628-0.20881 0.1134-0.3139 0.16884-0.4172 0.22008-0.40267 0.20922-0.83246 0.42124-0.31371 0.15501-0.63372 0.29617-0.95604 0.43205l-0.2081 0.16464c0.33715-0.15075 0.67244-0.30552 1.0038-0.46866 0.60412-0.29402 1.2099-0.58728 1.787-0.93248l-0.32243 0.12736z"/>
      <path d="m29.215 80.327c-0.22448 0.20088-0.46556 0.38411-0.71881 0.54747-0.13664 0.08814-0.27753 0.16949-0.4163 0.25424-0.67945 0.37402-1.3837 0.70997-2.1186 0.96043l-0.22288 0.17403c0.46438-0.1757 0.91834-0.37665 1.3657-0.59211 0.16827-0.08104 0.33684-0.16169 0.50191-0.24905 0.22056-0.11674 0.43646-0.24207 0.6547-0.3631 0.1515-0.09012 0.30502-0.17694 0.45451-0.27036 0.28697-0.17935 0.56195-0.37937 0.82248-0.59522l-0.32272 0.13367z"/>
      <path d="m29.444 80.647c0.03232 0.25894-0.05063 0.45213-0.13319 0.69748-0.05998 0.13461-0.11183 0.27315-0.17995 0.40383-0.24128 0.46289-0.47075 0.79392-0.79238 1.2189-0.3593 0.47474-0.7533 0.93489-1.1591 1.3703-0.18662 0.20022-0.38291 0.3912-0.57437 0.5868-0.66054 0.61503-0.33528 0.3319-0.97096 0.85489l0.1617-0.06535c0.58824-0.5059 0.28653-0.23185 0.9003-0.82743 0.18384-0.19255 0.37162-0.38141 0.55153-0.57764 0.42958-0.46858 0.77242-0.87529 1.1678-1.3748 0.37376-0.47221 0.60858-0.76944 0.90602-1.2722 0.08109-0.13706 0.14646-0.28283 0.21968-0.42425 0.08955-0.2111 0.14013-0.3001 0.19057-0.50582 0.01963-0.08005 0.01923-0.16248 0.02498-0.244l-0.31255 0.15925z"/>
      <path d="m30.195 80.903c-0.0058 0.01175-0.01037 0.02426-0.01757 0.03522-0.15422 0.23424-0.34546 0.46195-0.52249 0.67705-0.35953 0.43687-0.43823 0.52218-0.81887 0.96238-0.38961 0.45419-0.78027 0.90748-1.1699 1.3617l0.18102-0.07691c0.36606-0.45262 0.73455-0.90334 1.1197-1.34 0.79234-0.89782 0.10702-0.12531 0.88408-0.99022 0.26952-0.29999 0.28243-0.31314 0.50883-0.58124 0.04274-0.05061 0.08724-0.09985 0.12729-0.1526 0.01061-0.014 0.01609-0.03123 0.02413-0.04685l-0.31626 0.1515z"/>
      <path d="m28.785 80.167c-0.01005 0.19281-7.94e-4 0.04529-0.02713 0.32575-0.06644 0.70549-0.02545 0.3635-0.13423 1.177-0.10766 0.80505-0.11267 0.82264-0.23126 1.6374-0.16121 1.0707-0.07902 0.54678-0.24581 1.5717l0.10385-0.05097c0.13979-1.0149 0.06658-0.4952 0.22011-1.5591 0.12636-0.822 0.12356-0.84544 0.27367-1.6581 0.04316-0.23362 0.08594-0.46739 0.13584-0.69966 0.03904-0.18173 0.08798-0.3612 0.1309-0.54205 0.02832-0.11936 0.05376-0.2394 0.08185-0.35881l-0.30778 0.15682z"/>
      <path d="m29.451 80.445c-0.22624 0.25892-0.49 0.48141-0.75626 0.69754-0.19464 0.158-0.39235 0.3122-0.58996 0.46647-0.24419 0.19062-0.49029 0.37878-0.73544 0.56817-0.99468 0.76319-0.5078 0.38984-1.4606 1.1201l0.07516-0.03002c0.92348-0.72188 0.44546-0.35171 1.4347-1.1097 0.26112-0.19577 0.52212-0.39171 0.78336-0.58732 0.53716-0.4022 1.0875-0.79186 1.5718-1.2589l-0.32272 0.13367z"/>
      <path d="m28.063 80.054c-0.1084 0.18712-0.25762 0.34923-0.40834 0.50232-0.14828 0.15062-0.29837 0.29979-0.45587 0.44074-0.67304 0.60235-1.0505 0.87842-1.7856 1.4574-1.2912 0.9907-0.66237 0.51392-1.8855 1.4316l0.0066-0.0026c1.2231-0.91768 0.5943-0.4409 1.8855-1.4316 0.33619-0.26436 0.67293-0.52802 1.0086-0.79307 0.6956-0.54933 0.85785-0.65501 1.4346-1.1892 0.1851-0.17142 0.37029-0.35252 0.51742-0.55914l-0.3174 0.1436z"/>
      <path d="m31.202 83.423c-0.01738 0.02782-0.03137 0.05806-0.05211 0.08347-0.13078 0.16026-0.26504 0.27369-0.43782 0.39811-0.15175 0.10927-0.3056 0.21675-0.46847 0.30864-0.47849 0.26996-0.91397 0.41978-1.4304 0.6262-0.25695 0.08471-0.5139 0.16942-0.77085 0.25413l-0.07514 0.05838c0.26209-0.08854 0.52418-0.17707 0.78628-0.2656 0.77773-0.3027 0.89881-0.32092 1.6466-0.7341 0.18069-0.09983 0.35272-0.21501 0.52271-0.33213 0.20212-0.13926 0.35966-0.26469 0.51998-0.44146 0.02726-0.03006 0.04778-0.06561 0.07167-0.09842l-0.3125 0.14278z"/>
      <path d="m30.558 81.517c-0.02111 0.0289-0.04137 0.05843-0.06332 0.08669-0.12857 0.16553-0.24599 0.30249-0.38513 0.4665-0.29291 0.34525-0.47037 0.55357-0.78081 0.89727-0.14957 0.16561-0.30245 0.3282-0.45368 0.4923-0.6241 0.60787-0.31094 0.32144-0.93682 0.86219 0 0 0.15498-0.06301 0.15498-0.06301 0.60069-0.53466 0.2954-0.25094 0.91309-0.85416 0.62399-0.67376 1.244-1.3512 1.8704-2.0227l-0.31875 0.13491z"/>
      <path d="m30.361 81.234c-0.02706 0.0186-0.05271 0.03942-0.08116 0.05579-0.07515 0.04324-0.15247 0.08259-0.22927 0.12282-0.2583 0.13531-0.51568 0.27245-0.77601 0.4038-0.55235 0.27868-1.2025 0.59276-1.771 0.83763-0.25991 0.11195-0.52502 0.21144-0.78752 0.31716l-0.06363 0.05012c0.2716-0.1128 0.54516-0.22099 0.81479-0.33841 0.59812-0.26048 1.1476-0.52465 1.7345-0.80813 0.59823-0.28896 0.79539-0.38214 1.3755-0.70163 0.03594-0.01979 0.06805-0.04585 0.10208-0.06878l-0.31822 0.12962z"/>
      <path d="m29.811 80.685c0.05599-0.03216 0.22454-0.12758 0.16796-0.09648-0.54241 0.2981-1.0767 0.60778-1.6297 0.88697-0.83487 0.42155-0.97687 0.47241-1.829 0.85185-0.27176 0.11301-0.54353 0.22601-0.81529 0.33902l-0.05537 0.0437c0.28034-0.11974 0.56068-0.23949 0.84102-0.35923 0.30466-0.13516 0.61082-0.267 0.914-0.40546 0.2908-0.1328 0.58033-0.26844 0.86782-0.40825 0.47511-0.23106 0.73916-0.37676 1.1867-0.6098 0.09182-0.04781 0.18537-0.09234 0.27623-0.14195 0.13295-0.07259 0.26337-0.14971 0.39506-0.22456l-0.31942 0.1242z"/>
      <path d="m28.605 80.098c-0.64196 0.6592-1.3593 1.2392-2.0669 1.8252-0.21018 0.1682-0.42036 0.3364-0.63053 0.5046l0.09334-0.03748c0.20758-0.16719 0.41516-0.33439 0.62273-0.50158 0.57764-0.46963 1.1557-0.938 1.722-1.4213 0.0095-0.0081 0.43684-0.37384 0.52044-0.45043 0.02061-0.01889 0.03873-0.04034 0.05811-0.06051l-0.3192 0.14148z"/>
    </g>
  </g>
</svg>
