<?xml version="1.0" encoding="UTF-8" standalone="no"?>
<svg xmlns:dc="http://purl.org/dc/elements/1.1/" xmlns:cc="http://creativecommons.org/ns#" xmlns:rdf="http://www.w3.org/1999/02/22-rdf-syntax-ns#" xmlns:svg="http://www.w3.org/2000/svg" xmlns="http://www.w3.org/2000/svg" width="200" height="306" viewBox="0 0 52.916665 80.962502" version="1.1" id="svg-blah">
   <defs id="defs2" />
   <metadata id="metadata5">
      <rdf:RDF>
         <cc:Work rdf:about="">
            <dc:format>image/svg+xml</dc:format>
            <dc:type rdf:resource="http://purl.org/dc/dcmitype/StillImage" />
            <dc:title></dc:title>
         </cc:Work>
      </rdf:RDF>
   </metadata>
   <g id="layer2" style="display:inline;mix-blend-mode:normal">
      <g id="g929" transform="matrix(0.62398871,0,0.32755162,0.5956021,-58.065409,-28.292555)" style="fill:none;fill-opacity:1;stroke:none;stroke-width:0.15;stroke-miterlimit:4;stroke-dasharray:none;stroke-opacity:1">
         <path style="fill:none;fill-opacity:1;stroke:none;stroke-width:0.15;stroke-linecap:butt;stroke-linejoin:miter;stroke-miterlimit:4;stroke-dasharray:none;stroke-opacity:1" d="m 77.182741,47.805505 4.28e-4,135.512945" id="path837" />
         <path id="path839" d="m 80.88691,47.805505 4.25e-4,135.512945" style="fill:none;fill-opacity:1;stroke:none;stroke-width:0.15;stroke-linecap:butt;stroke-linejoin:miter;stroke-miterlimit:4;stroke-dasharray:none;stroke-opacity:1" />
         <path id="path843" d="M 77.182741,47.805505 H 80.88691" style="fill:none;fill-opacity:1;stroke:none;stroke-width:0.15;stroke-linecap:butt;stroke-linejoin:miter;stroke-miterlimit:4;stroke-dasharray:none;stroke-opacity:1" />
         <path id="path847" d="m 77.183169,183.31845 h 3.704163" style="fill:none;fill-opacity:1;stroke:none;stroke-width:0.15;stroke-linecap:butt;stroke-linejoin:miter;stroke-miterlimit:4;stroke-dasharray:none;stroke-opacity:1" />
      </g>
      <path style="fill:#803300;stroke:#803300;stroke-width:0.0447771;stroke-miterlimit:4;stroke-dasharray:none;stroke-dashoffset:0;stroke-opacity:1" d="M 50.151657,80.556402 C 49.907774,80.179752 6.0378233,0.37452663 6.0378233,0.30753063 c 0,-0.03784 0.438385,-0.04457 0.97419,-0.01497 l 0.974187,0.05383 L 29.977068,40.323469 c 12.094979,21.987395 22.033568,40.077233 22.085757,40.199653 0.120437,0.28253 -1.728934,0.31474 -1.911168,0.0333 z" id="path1042" />
   </g>
   <g id="layer3" style="display:inline;opacity:1;mix-blend-mode:normal">
      <path style="fill:#ffe680;stroke:#2b2200;stroke-width:0.00990964;stroke-miterlimit:4;stroke-dasharray:none;stroke-dashoffset:0" d="m 4.3099676,5.7078953 4.9e-5,-0.813191 0.09089,-0.03884 c 0.04999,-0.02134 1.2217227,-0.1885077 2.6038477,-0.3714647 2.908546,-0.384998 2.598502,-0.446386 2.598502,0.5144847 0,0.427074 -0.0087,0.596913 -0.03572,0.692824 -0.0318,0.113125 -0.300487,0.162919 -2.448794,0.45384 -1.327191,0.179735 -2.5021207,0.337748 -2.6109517,0.351153 l -0.197878,0.02441 z" id="path1034" />
      <path id="path1172" d="m 7.4849693,11.817381 4.9e-5,-0.813191 0.09089,-0.03884 c 0.04999,-0.02134 1.221723,-0.188508 2.6038477,-0.371465 2.908546,-0.384998 2.598502,-0.446386 2.598502,0.514485 0,0.427074 -0.0087,0.596913 -0.03572,0.692824 -0.0318,0.113125 -0.300487,0.162919 -2.448794,0.45384 -1.3271907,0.179735 -2.5021207,0.337748 -2.6109517,0.351153 l -0.197878,0.02441 z" style="fill:#ffe680;stroke:#2b2200;stroke-width:0.00990964;stroke-miterlimit:4;stroke-dasharray:none;stroke-dashoffset:0" />
      <path style="fill:#ffe680;stroke:#2b2200;stroke-width:0.00990964;stroke-miterlimit:4;stroke-dasharray:none;stroke-dashoffset:0" d="m 10.659971,17.926867 4.9e-5,-0.813191 0.09089,-0.03884 c 0.04999,-0.02134 1.221723,-0.188508 2.603848,-0.371465 2.908546,-0.384998 2.598502,-0.446386 2.598502,0.514485 0,0.427074 -0.0087,0.596913 -0.03572,0.692824 -0.0318,0.113125 -0.300487,0.162919 -2.448794,0.45384 -1.327191,0.179735 -2.502121,0.337748 -2.610952,0.351153 l -0.197878,0.02441 z" id="path1174" />
      <path id="path1176" d="m 14.139908,24.036358 4.9e-5,-0.813191 0.09089,-0.03884 c 0.04999,-0.02134 1.221723,-0.188508 2.603848,-0.371465 2.908546,-0.384998 2.598502,-0.446386 2.598502,0.514485 0,0.427074 -0.0087,0.596913 -0.03572,0.692824 -0.0318,0.113125 -0.300487,0.162919 -2.448794,0.45384 -1.327191,0.179735 -2.502121,0.337748 -2.610952,0.351153 l -0.197878,0.02441 z" style="fill:#ffe680;stroke:#2b2200;stroke-width:0.00990964;stroke-miterlimit:4;stroke-dasharray:none;stroke-dashoffset:0" />
      <path style="fill:#ffe680;stroke:#2b2200;stroke-width:0.00990964;stroke-miterlimit:4;stroke-dasharray:none;stroke-dashoffset:0" d="m 17.421067,30.14584 4.9e-5,-0.813191 0.09089,-0.03884 c 0.04999,-0.02134 1.221723,-0.188508 2.603848,-0.371465 2.908546,-0.384998 2.598502,-0.446386 2.598502,0.514485 0,0.427074 -0.0087,0.596913 -0.03572,0.692824 -0.0318,0.113125 -0.300487,0.162919 -2.448794,0.45384 -1.327191,0.179735 -2.502121,0.337748 -2.610952,0.351153 l -0.197878,0.02441 z" id="path1178" />
      <path id="path1180" d="m 20.969789,36.25533 4.9e-5,-0.813191 0.09089,-0.03884 c 0.04999,-0.02134 1.221723,-0.188508 2.603848,-0.371465 2.908546,-0.384998 2.598502,-0.446386 2.598502,0.514485 0,0.427074 -0.0087,0.596913 -0.03572,0.692824 -0.0318,0.113125 -0.300487,0.162919 -2.448794,0.45384 -1.327191,0.179735 -2.502121,0.337748 -2.610952,0.351153 l -0.197878,0.02441 z" style="fill:#ffe680;stroke:#2b2200;stroke-width:0.00990964;stroke-miterlimit:4;stroke-dasharray:none;stroke-dashoffset:0" />
      <path style="fill:#ffe680;stroke:#2b2200;stroke-width:0.00990964;stroke-miterlimit:4;stroke-dasharray:none;stroke-dashoffset:0" d="m 24.300238,42.364813 4.9e-5,-0.813191 0.09089,-0.03884 c 0.04999,-0.02134 1.221723,-0.188508 2.603848,-0.371465 2.908546,-0.384998 2.598502,-0.446386 2.598502,0.514485 0,0.427074 -0.0087,0.596913 -0.03572,0.692824 -0.0318,0.113125 -0.300487,0.162919 -2.448794,0.45384 -1.327191,0.179735 -2.502121,0.337748 -2.610952,0.351153 l -0.197878,0.02441 z" id="path1182" />
      <path id="path1184" d="m 27.47524,48.474303 4.9e-5,-0.813191 0.09089,-0.03884 c 0.04999,-0.02134 1.221723,-0.188508 2.603848,-0.371465 2.908546,-0.384998 2.598502,-0.446386 2.598502,0.514485 0,0.427074 -0.0087,0.596913 -0.03572,0.692824 -0.0318,0.113125 -0.300487,0.162919 -2.448794,0.45384 -1.327191,0.179735 -2.502121,0.337748 -2.610952,0.351153 l -0.197878,0.02441 z" style="fill:#ffe680;stroke:#2b2200;stroke-width:0.00990964;stroke-miterlimit:4;stroke-dasharray:none;stroke-dashoffset:0" />
      <path style="fill:#ffe680;stroke:#2b2200;stroke-width:0.00990964;stroke-miterlimit:4;stroke-dasharray:none;stroke-dashoffset:0" d="m 30.880433,54.583747 4.9e-5,-0.81319 0.09089,-0.0388 c 0.04999,-0.0213 1.221723,-0.18851 2.603848,-0.37147 2.908546,-0.38499 2.598502,-0.44638 2.598502,0.51449 0,0.42707 -0.0087,0.59691 -0.03572,0.69282 -0.0318,0.11313 -0.300487,0.16293 -2.448794,0.45385 -1.327191,0.17973 -2.502121,0.33775 -2.610952,0.35115 l -0.197878,0.0244 z" id="path1186" />
      <path id="path1188" d="m 34.130179,60.693234 4.9e-5,-0.81319 0.09089,-0.0388 c 0.04999,-0.0213 1.221723,-0.18851 2.603848,-0.37147 2.908546,-0.385 2.598502,-0.44639 2.598502,0.51449 0,0.42707 -0.0087,0.59691 -0.03572,0.69282 -0.0318,0.11313 -0.300487,0.16293 -2.448794,0.45385 -1.327191,0.17973 -2.502121,0.33775 -2.610952,0.35115 l -0.197878,0.0244 z" style="fill:#ffe680;stroke:#2b2200;stroke-width:0.00990964;stroke-miterlimit:4;stroke-dasharray:none;stroke-dashoffset:0" />
      <path style="fill:#ffe680;stroke:#2b2200;stroke-width:0.00990964;stroke-miterlimit:4;stroke-dasharray:none;stroke-dashoffset:0" d="m 37.68486,66.802721 4.9e-5,-0.81319 0.09089,-0.0388 c 0.04999,-0.0213 1.221723,-0.18851 2.603848,-0.37147 2.908546,-0.385 2.598502,-0.44639 2.598502,0.51449 0,0.42707 -0.0087,0.59691 -0.03572,0.69282 -0.0318,0.11313 -0.300487,0.16293 -2.448794,0.45385 -1.327191,0.17973 -2.502121,0.33775 -2.610952,0.35115 l -0.197878,0.0244 z" id="path1190" />
      <path id="path1192" d="m 41.052681,72.949578 4.9e-5,-0.81319 0.09089,-0.0388 c 0.04999,-0.0213 1.221723,-0.18851 2.603848,-0.37147 2.908546,-0.385 2.598502,-0.44639 2.598502,0.51449 0,0.42707 -0.0087,0.59691 -0.03572,0.69282 -0.0318,0.11313 -0.300487,0.16293 -2.448794,0.45385 -1.327191,0.179727 -2.502121,0.337747 -2.610952,0.351147 l -0.197878,0.0244 z" style="fill:#ffe680;stroke:#2b2200;stroke-width:0.00990964;stroke-miterlimit:4;stroke-dasharray:none;stroke-dashoffset:0" />
   </g>
   <g id="layer1" style="display:inline;mix-blend-mode:normal">
      <g id="g935" transform="matrix(0.62398871,0,0.32755162,0.5956021,-49.810553,-28.292555)" style="fill:none;fill-opacity:1;stroke:none;stroke-width:1;stroke-miterlimit:4;stroke-dasharray:none;stroke-opacity:1">
         <path id="path833" d="M 54.428572,47.805505 54.429,183.31845" style="fill:none;fill-opacity:1;stroke:none;stroke-width:1;stroke-linecap:butt;stroke-linejoin:miter;stroke-miterlimit:4;stroke-dasharray:none;stroke-opacity:1" />
         <path style="fill:none;fill-opacity:1;stroke:none;stroke-width:1;stroke-linecap:butt;stroke-linejoin:miter;stroke-miterlimit:4;stroke-dasharray:none;stroke-opacity:1" d="m 58.132741,47.805506 4.27e-4,135.512944" id="path835" />
         <path id="path841" d="m 54.428572,47.805505 3.704169,1e-6" style="fill:none;fill-opacity:1;stroke:none;stroke-width:1;stroke-linecap:butt;stroke-linejoin:miter;stroke-miterlimit:4;stroke-dasharray:none;stroke-opacity:1" />
         <path id="path845" d="m 54.429001,183.31845 h 3.704165" style="fill:none;fill-opacity:1;stroke:none;stroke-width:1;stroke-linecap:butt;stroke-linejoin:miter;stroke-miterlimit:4;stroke-dasharray:none;stroke-opacity:1" />
      </g>
      <path style="fill:#803300;stroke:#803300;stroke-width:0.0447771;stroke-miterlimit:4;stroke-dasharray:none;stroke-dashoffset:0;stroke-opacity:1" d="M 22.344209,40.752842 C 10.246176,18.756756 0.31980363,0.68693863 0.28560163,0.59769263 c -0.0342,-0.08925 0.347092,-0.162268 0.84732197,-0.162268 h 0.909509 L 24.048535,40.440533 c 12.103358,22.002811 22.034087,40.072619 22.068288,40.155139 0.0342,0.0825 -0.351447,0.15004 -0.857002,0.15004 H 44.34063 Z" id="path1044" />
   </g>
</svg>
