<?xml version="1.0" standalone="no"?>
<!DOCTYPE svg PUBLIC "-//W3C//DTD SVG 20010904//EN"
 "http://www.w3.org/TR/2001/REC-SVG-20010904/DTD/svg10.dtd">
<svg version="1.0" xmlns="http://www.w3.org/2000/svg"
 width="700.000000pt" height="700.000000pt" viewBox="0 0 700.000000 700.000000"
 preserveAspectRatio="xMidYMid meet">
<metadata>
Created by potrace 1.11, written by Peter Selinger 2001-2013
</metadata>
<g transform="translate(0.000000,700.000000) scale(0.100000,-0.100000)"
fill="#000000" stroke="none">
<path d="M1334 6412 c-25 -2 -42 -17 -85 -70 -30 -37 -56 -69 -59 -72 -3 -3
-24 -27 -45 -55 -22 -27 -42 -52 -45 -55 -5 -4 -59 -71 -110 -133 -8 -10 -23
-28 -33 -40 -215 -253 -772 -943 -771 -955 1 -12 904 -1231 1017 -1372 13 -17
80 -107 359 -480 169 -227 880 -1179 918 -1230 11 -14 132 -176 270 -360 138
-184 258 -345 268 -357 9 -13 121 -162 247 -332 127 -171 232 -310 235 -310 3
0 57 70 120 155 63 86 121 163 128 172 7 10 87 116 177 237 200 267 93 125
755 1010 648 866 560 749 744 995 80 107 149 200 153 205 9 11 420 560 721
965 105 140 194 260 199 265 62 76 324 437 321 444 -3 10 -65 90 -208 271 -47
59 -97 122 -112 141 -22 29 -286 362 -481 609 -85 108 -99 126 -169 215 -35
44 -73 93 -85 109 l-23 28 -2187 2 c-1204 0 -2202 0 -2219 -2z"/>
</g>
</svg>
